<svg width="54" height="50" viewBox="0 0 54 50" fill="none" xmlns="http://www.w3.org/2000/svg">
<g clip-path="url(#clip0_222_14650)">
<path d="M38.6777 29.7792C39.723 27.8947 40.6821 25.9578 41.8472 24.1558C42.3755 23.339 42.634 21.833 44.2524 22.3837C45.7398 22.8895 46.1893 24.0658 46.0882 25.482C45.9383 27.5351 45.6086 29.5769 45.5375 31.6337C45.5075 32.5178 45.9308 33.4132 46.1481 34.3049C46.9686 33.904 47.9689 33.6867 48.5721 33.0723C50.8686 30.7495 51.7603 27.6962 52.1537 24.5978C53.3488 15.1755 45.9945 5.14633 37.7036 3.09328C29.2966 1.01025 21.2493 1.35118 13.674 5.82068C-0.731096 13.6882 -2.42823 35.1291 11.0552 44.7087C13.2244 46.3871 16.2141 47.4062 18.9677 47.8258C22.628 48.384 26.4381 48.2903 30.1583 48.0543C34.4143 47.7808 37.0817 44.5327 40.6259 41.9101C37.9771 41.2957 35.8417 40.7975 33.7099 40.3029C34.4517 39.6173 34.448 39.6361 38.1045 40.1418C39.7042 40.3629 41.319 40.4865 43.402 40.7C43.0273 43.4649 42.6639 46.1661 42.2968 48.871C42.0682 48.8598 41.8435 48.8485 41.6149 48.8373C40.0227 47.1402 41.9596 45.1471 41.3414 43.064C40.3411 43.7721 39.3184 44.3341 38.4979 45.1096C34.6878 48.7137 30.1621 50.0699 24.977 49.9875C9.29438 50.4483 -2.49567 37.849 0.617624 22.1477C2.24358 13.0888 7.07649 6.32271 15.5884 2.75984C18.9714 1.34369 22.8715 1.1751 26.5355 0.437049C32.3163 -0.728094 37.6549 0.511978 42.7801 3.25812C53.8658 8.98268 57.6947 25.2347 49.4263 34.8818C48.3623 36.1406 46.9873 36.9499 45.4962 36.3392C43.8628 35.6686 43.6979 34.0501 43.9115 32.353C44.1475 30.4385 44.1737 28.4941 44.2112 26.5647C44.2187 26.1376 43.8778 25.703 43.6942 25.2722C43.2371 25.5082 42.5291 25.6356 42.3642 26.0028C41.2403 28.4904 40.2625 31.0455 39.1648 33.5443C38.8988 34.1475 38.3593 34.6271 37.9472 35.1666C37.5238 34.4884 36.752 33.8178 36.7371 33.1285C36.591 26.827 36.546 20.5217 36.5647 14.2165C36.5647 13.4222 37.1042 12.6317 37.3927 11.8375C37.7111 12.5905 38.2881 13.336 38.2993 14.0928C38.3817 19.2704 38.3405 24.448 38.3405 29.6293C38.4529 29.6818 38.5653 29.7342 38.6777 29.7867V29.7792Z" fill="#D64F32" stroke="#D64F32" stroke-width="0.625"/>
<path d="M10.4932 22.8864C9.01336 21.1443 9.14823 19.4285 9.69896 18.1247C10.4932 16.2365 11.5947 14.2321 13.1382 12.9921C14.1572 12.1753 16.4088 12.0555 17.7126 12.5912C21.1743 14.0148 23.5683 16.9558 21.519 21.2118C20.0729 24.2127 17.9112 26.5579 15.1875 28.4461C13.5653 29.5701 12.0218 30.8026 10.5269 32.2825C14.5319 33.6125 18.4469 33.0318 22.3619 32.26C23.1787 34.0621 22.6054 34.9312 20.7322 34.9387C18.1884 34.95 15.6446 35.126 13.1007 35.1335C11.5909 35.1373 10.0174 34.9462 9.2906 33.3502C8.56753 31.7542 9.20443 30.4355 10.5457 29.4389C13.8013 27.0262 17.2031 24.7484 19.1362 21.0095C20.5337 18.2633 20.485 15.7944 17.2743 14.6667C15.6446 14.0561 14.0074 14.0186 12.9471 15.6933C11.4598 18.0685 10.9765 19.9305 10.4969 22.8827L10.4932 22.8864Z" fill="#D64F32" stroke="#D64F32" stroke-width="0.625"/>
<path d="M23.9654 27.0026C26.1046 27.9055 28.1877 27.5009 30.207 26.9464C30.5217 26.8602 30.7315 25.8037 30.7165 25.2005C30.6566 22.9752 30.4842 20.7535 30.3531 18.5319C30.5292 18.3858 30.709 18.2434 30.8851 18.0973C31.4246 18.5506 32.4361 19.0114 32.4249 19.4498C32.2938 24.4138 32.009 29.3741 31.743 34.3344C31.7318 34.5479 31.492 34.7465 31.301 35.0462C30.0909 34.3531 29.9822 33.4427 30.3381 32.2251C30.6303 31.2248 30.6566 30.1496 30.8252 28.9245C28.5174 28.9245 26.3557 28.9245 24.1977 28.9245C21.9274 28.9245 21.3392 28.0478 22.3807 26.0435C23.9317 23.0576 24.977 19.9593 24.6398 16.5425C24.5574 15.7033 24.1715 14.8941 24.0966 14.0549C24.0479 13.5079 24.3064 12.9309 24.4262 12.3652C25.0144 12.6837 26.0597 12.9422 26.1084 13.3281C26.3519 15.2762 26.6704 17.318 26.3294 19.21C25.8574 21.81 24.8121 24.3089 23.9692 26.9951L23.9654 27.0026Z" fill="#D64F32" stroke="#D64F32" stroke-width="0.625"/>
</g>
<defs>
<clipPath id="clip0_222_14650">
<rect width="53.7689" height="50" fill="white" transform="translate(0.11554)"/>
</clipPath>
</defs>
</svg>
