<svg width="50" height="50" viewBox="0 0 50 50" fill="none" xmlns="http://www.w3.org/2000/svg">
<g clip-path="url(#clip0_222_14669)">
<path d="M49.0894 16.4947C48.8647 16.4236 48.4748 16.6341 48.2643 16.8333C48.0395 17.0496 47.9399 17.3967 47.7009 17.8378C44.0644 3.16669 27.2223 -3.68227 15.1804 1.98015C15.8775 2.25331 16.3043 2.58054 16.6856 2.53785C18.4413 2.34152 20.1741 1.92609 21.9298 1.79804C28.8186 1.29724 34.8367 3.39718 39.8731 8.13483C42.7185 10.8124 44.6306 14.0732 45.6066 17.9032C44.8128 17.6443 44.1156 17.4166 43.1966 17.1179C43.2961 17.667 43.2677 17.9004 43.3701 18.0142C44.5652 19.3458 45.7546 20.686 47.0208 21.9466C47.2029 22.1287 48.0935 22.0063 48.1505 21.847C48.6882 20.3361 49.1407 18.7938 49.5476 17.2431C49.6016 17.0353 49.3085 16.5687 49.0866 16.5004L49.0894 16.4947Z" fill="#D64F32"/>
<path d="M12.0845 44.2049C12.3719 43.761 12.6593 43.3114 12.9609 42.8448C7.26153 39.103 3.62506 34.1207 2.36169 27.505C0.990186 20.326 3.93521 12.299 6.97698 9.76373C6.92577 10.4409 6.8091 11.0584 6.86032 11.6616C6.88877 12.0059 7.19039 12.3275 7.36965 12.6575C7.69688 12.3844 8.25174 12.1567 8.31434 11.8324C8.56758 10.4865 8.74684 9.11497 8.78384 7.74631C8.79237 7.39348 8.12369 6.67074 7.88183 6.71911C6.39936 7.00365 4.94534 7.44185 3.49701 7.88289C3.31206 7.9398 3.06735 8.3467 3.11857 8.50604C3.18117 8.70238 3.52547 8.9357 3.74457 8.93286C4.29943 8.92717 4.85144 8.79912 5.62256 8.68531C-4.54419 22.5027 1.67024 38.3575 12.0845 44.2049Z" fill="#D64F32"/>
<path d="M37.6195 41.4528C33.5278 44.432 28.9665 45.9372 23.9899 45.8661C24.0781 45.3027 24.1435 44.8901 24.209 44.4804C23.8021 44.4718 23.361 44.358 22.9911 44.4718C22.1347 44.7393 21.3066 45.1064 20.4786 45.4535C19.5681 45.8376 19.5225 46.4181 20.1571 47.1067C20.7347 47.7327 21.2782 48.4099 21.9326 48.9448C22.4903 49.4001 23.5375 50.1485 23.7594 49.9749C24.889 49.107 23.3354 48.6603 23.2102 47.727C28.9125 47.8323 34.0599 46.3157 38.6154 43.0007C43.1795 39.6801 46.1786 35.2811 47.5643 29.6784C46.8956 29.5674 46.3522 29.4764 45.7262 29.3711C44.349 34.3364 41.7568 38.431 37.6138 41.4471L37.6195 41.4528Z" fill="#D64F32"/>
<path d="M37.2211 20.9913C35.9208 19.9784 34.3643 19.3751 32.8648 20.243C31.8091 20.8519 30.6795 21.8507 30.2697 22.9348C29.7661 24.2664 29.9766 25.8684 29.8657 27.5529C27.8483 28.324 26.0869 29.8862 25.2874 32.3503C25.1451 32.7885 25.4069 33.3576 25.4808 33.8669C25.8877 33.5283 26.5052 33.2694 26.6617 32.8426C27.3731 30.8935 28.5966 29.4736 30.5372 28.7565C30.9839 28.5915 31.6298 28.6399 32.0709 28.8391C33.4082 29.4338 34.6915 29.4224 36.0801 29.0155C36.726 28.8248 37.5768 28.8362 38.1857 29.1037C39.7849 29.8037 40.7495 31.1154 41.2759 32.7999C41.384 33.1442 41.9787 33.3377 42.3486 33.6023C42.4966 33.2011 42.7754 32.7971 42.7583 32.4044C42.7356 31.9577 42.5563 31.4284 42.2604 31.0983C41.0539 29.761 39.7792 28.4891 38.3934 27.0521C39.3267 24.366 39.045 22.4169 37.2211 20.997V20.9913ZM34.222 27.9114C32.4522 27.92 30.8843 26.2895 30.9299 24.4941C30.9754 22.7726 32.29 21.5576 34.0854 21.5775C35.9947 21.5974 37.4118 22.9518 37.4032 24.7445C37.3947 26.4717 35.9549 27.9058 34.222 27.9114Z" fill="#D64F32"/>
<path d="M16.4096 18.1113C16.2474 18.6007 16.5519 19.2438 16.6401 19.8186C17.0242 19.4316 17.5819 19.1129 17.7584 18.6491C18.4213 16.9248 19.4941 15.6272 21.1587 14.8106C21.9098 14.4407 22.5415 14.4692 23.3952 14.7423C24.4964 15.0951 25.8565 15.2061 26.9377 14.8789C28.0389 14.546 28.9551 14.5574 29.6722 15.2516C30.6311 16.1764 31.3681 17.3345 32.2246 18.3702C32.566 18.7828 32.9729 19.1414 33.3513 19.5255C33.4709 18.9649 33.818 18.3361 33.6729 17.8552C32.9985 15.6187 31.3083 14.2927 29.2368 13.4249C30.4376 10.4941 30.1161 8.37138 28.295 6.88607C26.9377 5.77919 24.7411 5.47758 23.6484 6.25153C20.8286 8.25188 20.268 9.95914 21.4062 13.2769C18.9705 14.1931 17.212 15.7041 16.4068 18.1113H16.4096ZM25.0341 7.50922C27.0003 7.46369 28.4771 8.80674 28.4771 10.642C28.4771 12.318 27.0146 13.809 25.3329 13.8488C23.5972 13.8915 22.0294 12.3009 22.0151 10.4884C22.0009 8.72991 23.196 7.5519 25.0341 7.50922Z" fill="#D64F32"/>
<path d="M10.7443 27.5733C8.58181 28.4781 6.99121 29.9691 6.24286 32.2056C6.08067 32.6894 6.39936 33.3324 6.49326 33.9044C6.87455 33.5174 7.42941 33.1987 7.60867 32.7349C8.23751 31.1215 9.19643 29.8439 10.75 29.0387C11.6008 28.5976 12.3349 28.481 13.365 28.8879C14.3723 29.2862 15.7295 29.3004 16.771 28.9732C17.8722 28.6261 18.8112 28.6659 19.5254 29.346C20.49 30.2622 21.2099 31.4345 22.0606 32.4731C22.3992 32.8857 22.8147 33.2357 23.196 33.617C23.3126 33.0536 23.6512 32.4219 23.5061 31.941C22.8403 29.7529 21.207 28.4297 19.0644 27.5277C20.2908 24.614 19.9465 22.4373 18.1055 20.9662C16.7567 19.8906 14.6654 19.5662 13.5841 20.269C10.7756 22.0958 10.1354 23.9795 11.2138 27.3456C11.063 27.4225 10.9065 27.5107 10.7415 27.579L10.7443 27.5733ZM15.0637 21.5779C16.9417 21.6263 18.3758 23.0576 18.3189 24.8217C18.262 26.5318 16.7624 27.9546 15.0523 27.9233C13.3394 27.892 11.8484 26.3298 11.8427 24.5656C11.837 22.7901 13.1971 21.5296 15.0666 21.5779H15.0637Z" fill="#D64F32"/>
</g>
<defs>
<clipPath id="clip0_222_14669">
<rect width="49.1122" height="50" fill="white" transform="translate(0.443878)"/>
</clipPath>
</defs>
</svg>
