<svg width="70" height="50" viewBox="0 0 70 50" fill="none" xmlns="http://www.w3.org/2000/svg">
<g clip-path="url(#clip0_222_14692)">
<path d="M67.1228 11.2221C66.4847 11.199 65.8434 11.2188 65.1888 11.2188C65.4896 8.47485 65.4202 8.38558 62.7886 7.85332C57.9784 6.88466 53.1285 6.66316 48.3844 7.97564C45.2437 8.84181 42.2451 10.227 38.992 11.4502C38.7936 11.1329 38.4895 10.4717 38.0266 9.95263C36.6117 8.36244 35.3521 6.50447 33.6363 5.34075C29.8873 2.79513 25.7283 1.05287 21.1991 0.269345C18.3427 -0.226556 18.3559 -0.299288 17.7873 2.46123C17.7344 2.7224 17.622 2.97366 17.536 3.24475C13.6845 0.887568 14.0118 1.75043 12.6961 4.90106C10.5141 10.1245 8.39825 15.3844 6.53366 20.7269C4.55337 26.3769 2.87392 32.1326 1.12174 37.8619C0.586163 39.6207 0.939905 40.1695 2.4243 40.3315C11.2513 41.2869 19.4833 44.0508 27.1168 48.5502C28.5715 49.4065 29.9071 49.4594 31.3386 48.8378C35.7951 46.9005 40.4698 46.8377 45.128 47.5121C48.596 48.0147 51.9945 48.9866 55.4129 49.7999C57.2973 50.2495 57.8495 50.0181 58.5669 48.1965C58.7487 47.7369 58.9008 47.2675 59.0462 46.7947C61.4629 38.9661 63.906 31.1474 66.2765 23.3089C67.2616 20.0492 68.1543 16.7564 68.9642 13.4471C69.3841 11.7313 68.908 11.2816 67.1162 11.2188L67.1228 11.2221ZM39.7524 14.505C39.9937 13.3314 40.4599 12.6073 41.6368 12.1081C48.3612 9.24514 55.2708 8.36905 62.4481 9.87329C62.7159 9.92949 62.9804 10.0055 63.2349 10.0948C63.3275 10.1278 63.3936 10.2336 63.6383 10.4618C60.3587 21.3319 57.0494 32.2979 53.6905 43.4292C46.1297 40.3117 38.5093 41.3795 30.6212 43.8293C30.9353 42.9994 31.1039 42.5068 31.3055 42.0308C35.0612 33.1442 37.8151 23.9469 39.7524 14.505ZM19.8932 1.96202C22.657 2.92737 25.7283 3.88281 28.7037 5.07627C32.4098 6.56398 35.3323 9.15919 37.8382 12.2106C38.225 12.6834 38.5292 13.5496 38.3738 14.0917C35.7356 23.3386 33.3619 32.6748 29.3881 41.482C29.1699 41.968 28.9021 42.4308 28.5946 43.0259C22.5942 37.6206 14.8549 38.1132 7.78664 36.4436C11.7571 25.1371 15.7442 13.781 19.8932 1.96202ZM64.5309 22.7733C62.2001 30.3374 59.9521 37.928 57.6577 45.5054C56.851 48.1667 56.8345 48.17 54.2459 47.4163C48.5993 45.7765 42.8799 44.6458 36.9853 45.588C34.724 45.9484 32.5387 46.7749 30.3005 47.3105C29.6757 47.4592 28.8128 47.5816 28.3467 47.2774C20.7726 42.3614 12.2894 40.2389 3.49875 39.0157C3.28386 38.986 3.07228 38.943 2.70201 38.8802C5.72039 26.767 10.5538 15.3414 14.7722 3.70428C17.1162 4.67955 17.0798 4.67625 16.2765 6.90449C13.592 14.3529 10.9769 21.8245 8.25609 29.2597C7.29404 31.888 6.10058 34.427 4.93025 37.2007C5.5088 37.4057 5.93528 37.6073 6.38159 37.6999C10.5273 38.5628 14.6863 39.3728 18.8254 40.2687C22.1281 40.9828 25.0539 42.4407 27.3317 45.0161C28.1186 45.9054 28.9814 46.0277 30.1418 45.7566C33.5635 44.9599 36.9985 44.1698 40.4698 43.6474C44.4006 43.0556 48.2455 43.6309 51.9648 45.1351C54.117 46.0046 55.3303 45.3434 55.9783 43.1714C58.871 33.4748 61.7571 23.7783 64.6367 14.0818C65.288 11.8933 65.3409 11.8602 67.9195 12.6602C66.7856 16.0324 65.5822 19.3847 64.5342 22.7832L64.5309 22.7733Z" fill="#D64F32"/>
<path d="M22.3231 9.16949C25.8043 11.1266 29.1599 13.0177 32.7139 15.0178C32.2808 12.1548 24.8059 7.93635 22.3231 9.16949Z" fill="#D64F32"/>
<path d="M17.4269 20.9109C20.7296 22.7391 24.3695 23.5458 27.9665 24.488C26.2441 21.9457 20.3164 19.8927 17.4269 20.9109Z" fill="#D64F32"/>
<path d="M15.6979 27.1739C19.6981 28.3475 23.4339 29.4451 27.1697 30.5394C24.6836 27.4946 18.4914 25.749 15.6979 27.1739Z" fill="#D64F32"/>
<path d="M19.3808 15.0168C23.2852 16.4648 26.9251 17.8136 30.4824 19.1327C29.2294 16.5342 22.7695 13.9655 19.3808 15.0168Z" fill="#D64F32"/>
<path d="M12.9308 33.6787C17.1459 34.5647 20.9974 35.3747 24.915 36.2012C23.6422 34.0821 16.0913 32.3662 12.9308 33.6787Z" fill="#D64F32"/>
<path d="M55.0096 16.4559C55.5418 16.3732 56.0443 16.0988 56.7055 15.8641C54.2327 13.9169 43.6005 15.6525 42.0765 18.1585C42.3773 18.2345 42.536 18.3238 42.6815 18.3039C46.7941 17.6989 50.9035 17.0973 55.0096 16.4559Z" fill="#D64F32"/>
<path d="M41.4285 22.9278C45.9214 22.4055 50.4176 21.8831 55.1848 21.3277C52.7318 19.2317 43.3923 20.5277 41.4285 22.9278Z" fill="#D64F32"/>
<path d="M39.0019 28.5808C43.8187 28.0254 48.4703 27.4898 53.1218 26.9575C50.7382 25.0698 41.0285 26.3823 39.0019 28.5808Z" fill="#D64F32"/>
<path d="M39.1771 33.5073H51.2506L51.2969 32.9651C49.4158 31.1897 41.5277 31.527 39.1771 33.5073Z" fill="#D64F32"/>
<path d="M47.4785 39.0375C47.4785 38.7366 47.4851 38.4325 47.4884 38.1316C44.3907 37.0737 41.2566 38.0324 38.1225 38.4821C41.2301 39.0275 44.3543 39.0573 47.4785 39.0375Z" fill="#D64F32"/>
</g>
<defs>
<clipPath id="clip0_222_14692">
<rect width="68.226" height="50" fill="white" transform="translate(0.887024)"/>
</clipPath>
</defs>
</svg>
