<svg width="200" height="117" viewBox="0 0 200 117" fill="none" xmlns="http://www.w3.org/2000/svg">
<g clip-path="url(#clip0_91_7811)">
<path d="M101.472 112.319C101.472 112.319 101.477 112.319 101.48 112.316C101.48 112.316 101.48 112.313 101.48 112.311L101.472 112.319Z" fill="black"/>
<path d="M162.403 94.4311C162.294 94.2118 162.181 93.9897 162.072 93.7704C162.074 93.7704 162.08 93.7733 162.083 93.7761C161.979 93.5961 161.872 93.4162 161.768 93.2391C161.774 93.2391 161.779 93.2419 161.785 93.2447C161.507 92.1989 161.231 91.1503 160.953 90.1045C160.883 90.0146 160.815 89.9218 160.745 89.8318C160.644 89.6435 160.545 89.4551 160.444 89.2639C159.817 88.8563 159.362 88.9547 159.415 89.7728C159.508 91.2037 159.134 92.6825 159.797 94.06L159.865 94.1415C159.865 94.1415 159.854 94.164 159.842 94.1893L159.82 94.2371C159.879 94.5829 159.935 94.9287 159.994 95.2773C160.258 96.1572 160.902 96.9331 160.719 97.9339C160.646 97.9396 160.576 97.9255 160.509 97.8918C160.143 97.2452 159.325 97.4532 158.839 96.9809C156.615 94.819 154.476 92.5841 152.387 90.2957C151.552 89.382 150.725 88.4571 149.907 87.5294C149.497 87.0655 149.089 86.5989 148.684 86.1294C148.403 85.8426 148.125 85.5531 147.844 85.2663C147.394 84.5832 147.102 83.7735 146.444 83.2591C146.067 82.9667 146.163 81.9546 145.342 82.3847C144.687 82.7305 145.128 83.3574 145.207 83.8719C145.226 84.0068 145.224 84.1446 145.232 84.2795L145.238 84.302C145.783 85.3169 146.281 86.3571 146.905 87.3242C147.057 87.5603 147.214 87.7908 147.383 88.0157C147.506 88.1788 147.636 88.339 147.771 88.4965C147.771 88.4965 147.774 88.5077 147.774 88.5049C147.914 88.7326 148.055 88.9603 148.195 89.188C149.57 90.7905 150.947 92.3929 152.322 93.9953C154.22 95.907 155.971 97.9733 158.375 99.5701C157.52 99.6966 156.921 99.5926 156.283 99.4071C154.956 99.0191 153.553 98.8785 152.249 98.4344C150.95 97.9902 151.223 99.1709 150.976 99.6095C150.593 100.29 151.414 99.9665 151.67 100.146C152.392 100.652 153.343 100.697 154.006 101.316C154.217 101.336 154.49 101.164 154.605 101.501C157.318 101.622 160.025 101.808 162.715 102.182C163.542 102.297 164.458 102.216 164.804 101.53C165.071 100.995 164.976 100.2 164.565 99.4577C163.685 97.8637 162.645 96.3062 162.401 94.4283L162.403 94.4311ZM159.511 99.095C159.525 99.0781 159.539 99.0585 159.547 99.0388C159.539 99.0613 159.527 99.081 159.511 99.095Z" fill="black"/>
<path d="M198.714 6.6064C197.446 6.31965 196.178 5.91764 194.893 5.82486C190.651 5.51 186.397 5.34132 182.152 5.05738C181.284 4.99835 180.415 4.92525 179.546 4.84654C176.94 4.6132 174.337 4.34332 171.714 4.363V4.35737C171.523 4.10155 171.287 4.04251 171.042 4.04251C170.795 4.04251 170.539 4.10155 170.3 4.08187C168.79 3.95536 167.264 4.22806 165.757 3.94974C164.697 3.75014 163.649 3.80636 162.58 3.95255C162.046 4.02564 161.394 4.34613 160.919 3.73046C160.823 3.55054 160.68 3.48869 160.483 3.54491C160.292 3.54491 160.098 3.54491 159.907 3.5421C155.31 3.57303 150.745 2.82241 146.143 2.98266C145.6 2.77181 145.035 2.8449 144.481 2.87021C142.499 2.96298 140.517 3.04732 138.555 2.62562C138.459 2.62562 138.367 2.63125 138.271 2.63125C138.08 2.71277 137.889 2.79149 137.698 2.87302C136.697 2.79149 135.699 2.70715 134.698 2.62562C134.428 2.37261 134.088 2.50193 133.779 2.44851C133.498 2.31076 133.214 2.34168 132.93 2.42883C132.643 2.37261 132.356 2.31638 132.067 2.25735C129.005 2.23767 125.941 2.25735 122.882 2.1702C122.244 2.15333 121.746 2.30795 121.229 2.58345L121.204 2.65374C121.193 2.74932 121.184 2.84772 121.173 2.9433C121.327 3.09511 121.482 3.24692 121.637 3.39873C121.923 3.58427 122.348 3.3425 122.584 3.68829C122.792 3.74733 123.023 3.76138 123.132 3.99191C123.956 4.17745 124.847 3.80917 125.637 4.28147C125.724 4.22524 125.811 4.16902 125.899 4.1156C126.686 4.26741 127.479 4.33207 128.274 4.35456C129.07 4.37705 129.865 4.36019 130.661 4.35456C132.64 4.33488 134.611 4.37143 136.581 4.57384C139.393 4.64413 142.193 5.11923 145.015 4.8634C148.482 5.06863 151.948 5.27104 155.414 5.47626C155.884 5.45659 156.353 5.4341 156.823 5.41442C158.852 5.61683 160.882 5.75177 162.929 5.75458C165.195 5.7602 167.461 5.97948 169.727 6.10599C170.359 6.53331 171.003 6.81725 171.708 6.25218C175.175 6.48552 178.638 6.71604 182.105 6.94938C182.754 7.1799 183.423 7.15741 184.092 7.104C185.208 7.18553 186.327 7.26424 187.443 7.34858C190.165 7.5538 192.869 7.98674 195.61 7.92208C195.706 7.93052 195.801 7.94176 195.897 7.95019C196.687 7.74778 197.148 8.09638 197.167 8.86386C197.187 9.55825 197.041 10.2554 196.968 10.9498C196.872 11.8663 196.22 12.7266 196.698 13.6993C195.694 17.8515 195.267 22.0994 194.59 26.3051C194.353 27.9581 194.123 29.6139 193.881 31.2642C193.816 31.714 193.771 32.1806 193.381 32.5039C193.361 32.6754 193.344 32.8441 193.324 33.0156C192.751 35.6413 192.872 38.3795 192.023 40.9603L192.059 40.9266C191.334 46.1865 190.505 51.4295 189.408 56.6248C189.391 56.7203 189.375 56.8159 189.358 56.9087C189.358 57.5187 189.254 58.1091 189.029 58.677C189.029 58.677 189.029 58.6882 189.029 58.6995C189.029 58.7079 189.029 58.7135 189.029 58.7135C188.691 61.016 188.351 63.3156 188.014 65.6181C188.053 65.5815 188.09 65.5703 188.129 65.5787C188.093 65.5703 188.053 65.5787 188.014 65.6181C187.977 65.6518 187.952 65.6855 187.935 65.7193C187.918 65.753 187.91 65.7895 187.91 65.8233C187.91 65.8936 187.938 65.9667 187.986 66.0426C187.986 66.0735 187.989 66.1072 187.989 66.1381C187.989 66.1072 187.989 66.0735 187.986 66.0426C187.736 66.2197 187.724 66.4699 187.772 66.7369C187.691 67.0209 187.606 67.3048 187.525 67.5888C187.424 68.3366 187.322 69.0844 187.221 69.8322C186.518 70.5462 187.328 71.7748 186.347 72.3961C186.336 72.4832 186.324 72.5732 186.31 72.6603L186.369 72.6294C186.386 72.7362 186.4 72.843 186.417 72.9499C185.928 75.8567 185.439 78.7608 184.952 81.6677C184.952 81.6677 184.961 81.6564 184.966 81.6508C184.874 82.303 184.784 82.9581 184.691 83.6103C184.809 83.6749 184.91 83.7115 185 83.7227C184.91 83.7115 184.806 83.6749 184.691 83.6103C184.517 84.195 184.34 84.7798 184.165 85.3645C184.174 85.3589 184.182 85.3533 184.191 85.3476C183.777 87.9115 183.406 90.4839 182.942 93.0365C182.597 94.9426 182.054 96.8177 182.172 98.7828C181.666 99.6655 181.928 100.787 181.289 101.628C181.287 101.67 181.284 101.712 181.284 101.751C181.284 101.878 181.292 102.005 181.303 102.131C181.306 102.173 181.312 102.215 181.315 102.258C181.326 102.384 181.34 102.513 181.343 102.637C181.343 102.679 181.343 102.721 181.343 102.764C181.34 102.89 181.326 103.014 181.289 103.135C181.244 103.292 181.166 103.447 181.036 103.593C181.017 105.749 180.238 107.835 180.435 110.014C181.562 109.395 181.902 108.276 182.31 107.166C183.375 104.273 183.339 101.175 184.042 98.2177C184.115 97.7454 184.185 97.2731 184.258 96.798L184.337 96.5309C184.514 95.3024 184.5 94.0457 184.916 92.8566C184.95 92.7666 184.981 92.6767 185.014 92.5895C185.056 92.4124 185.099 92.2353 185.141 92.061C185.152 91.9513 185.163 91.8445 185.175 91.7349C185.523 90.8409 185.877 89.9469 185.83 88.9601C186.08 88.7099 186.009 88.3979 185.998 88.0971C186.108 87.3437 186.22 86.593 186.33 85.8396C186.572 85.3982 186.622 84.9259 186.561 84.434C186.982 83.9392 186.856 83.332 186.901 82.7585C186.957 82.7022 186.968 82.6376 186.929 82.5673C187.311 82.0191 187.19 81.3978 187.193 80.7934C187.41 78.9829 187.691 77.1724 188.278 75.4547C188.866 73.7399 189.226 72.0081 189.313 70.2342C189.327 69.939 189.335 69.641 189.332 69.343C189.332 69.045 189.324 68.7442 189.307 68.4434C189.524 68.1819 189.448 67.8783 189.442 67.5831C189.689 67.3189 189.692 67.0153 189.675 66.7116C189.664 66.5289 189.647 66.3434 189.667 66.1663C190.519 61.9746 191.832 57.8083 192.073 53.5801C192.27 50.1813 193.333 47.0074 193.777 43.6929C194.317 39.653 195.062 35.5879 195.745 31.5397C196.124 29.3019 196.813 27.0782 196.889 24.8348C196.974 22.313 197.634 19.9656 198.202 17.5676C198.523 16.0776 198.753 14.582 198.551 13.0527C199.377 11.3069 199.329 9.40082 199.549 7.54256C199.619 6.955 199.194 6.70198 198.716 6.59516L198.714 6.6064ZM134.352 3.24129C134.352 3.24129 134.344 3.23286 134.332 3.22162L134.352 3.24129ZM135.96 3.96942C135.986 3.94693 136.011 3.92163 136.039 3.89914C136.014 3.92163 135.986 3.94693 135.96 3.96942ZM146.654 4.42484C146.635 4.40235 146.612 4.37986 146.59 4.35456C146.609 4.37705 146.632 4.39954 146.654 4.42484C146.702 4.36862 146.747 4.30958 146.795 4.25055C146.747 4.30958 146.699 4.36581 146.654 4.42484ZM152.893 4.35456C153.072 4.60196 153.311 4.63007 153.607 4.65256C153.314 4.63007 153.072 4.60196 152.893 4.35456ZM177.621 5.46502C177.621 5.46502 177.621 5.46502 177.621 5.46221V5.46502ZM184.936 89.5083C184.938 89.3931 184.952 89.2862 184.992 89.1935C184.952 89.2891 184.941 89.3959 184.936 89.5055V89.5083ZM198.309 11.8635C198.298 11.8663 198.281 11.8691 198.267 11.8691C198.281 11.8691 198.295 11.8663 198.309 11.8635ZM198.348 11.9675C198.298 11.9788 198.247 11.99 198.194 11.9984C198.244 11.9872 198.295 11.976 198.348 11.9675ZM197.367 16.8085C197.353 16.7355 197.345 16.6624 197.347 16.5893C197.347 16.6624 197.353 16.7355 197.367 16.8085ZM197.415 16.9772C197.44 17.0447 197.471 17.1122 197.513 17.1824C197.471 17.115 197.44 17.0475 197.415 16.9772ZM197.82 17.5423C197.733 17.4608 197.657 17.3821 197.595 17.3033C197.657 17.3821 197.73 17.4636 197.82 17.5423Z" fill="black"/>
<path d="M181.031 103.612L181.039 103.601L181.031 103.612Z" fill="black"/>
<path d="M178.149 55.7558C176.139 54.0859 173.488 54.128 171.102 54.2124C168.909 54.2883 166.966 55.5815 165.293 57.1249C164.242 58.0919 163.725 59.2895 163.559 60.6277C163.525 60.9032 163.573 61.1281 163.669 61.3221C163.716 61.4205 163.778 61.5076 163.848 61.592C164.203 62.0109 164.782 62.2892 165.128 62.7137L165.147 62.7081C165.364 62.8008 165.58 62.8936 165.797 62.9864C166.078 63.0988 166.342 63.3631 166.623 63.484C166.654 63.498 166.685 63.5093 166.719 63.5177C166.783 63.5374 166.845 63.5458 166.913 63.543C167.045 63.5374 167.183 63.4868 167.326 63.3575C167.602 63.1157 168.06 62.7221 167.88 62.2554C167.5 61.2687 168.105 60.7008 168.659 60.0879C170.157 58.6935 171.63 57.2345 173.966 58.2213L173.989 58.21C174.756 58.9887 175.524 59.7675 176.288 60.5462C176.086 61.0578 176.789 61.2096 176.733 61.6623C176.37 61.8815 176.496 62.247 176.519 62.5422C176.688 64.7772 175.698 66.2503 173.637 67.0655C173.497 67.1218 173.412 67.3186 173.303 67.4479C173.303 67.4479 173.292 67.4591 173.283 67.4704C173.272 67.4816 173.261 67.4929 173.261 67.4957C171.045 68.6202 169.131 71.2319 168.391 73.7958C168.144 74.6504 168.026 75.5022 168.074 76.2894C168.127 77.2227 168.892 77.605 169.446 77.5291C169.558 77.5123 169.668 77.5067 169.777 77.5095C169.935 77.5095 170.089 77.532 170.241 77.5573C170.41 77.5854 170.576 77.6247 170.742 77.6669C171.135 77.7625 171.526 77.8609 171.937 77.8271L171.956 77.799L171.908 77.8159C171.945 76.8657 171.928 75.9436 172.263 74.9906C173.114 72.5476 174.857 70.9648 176.955 69.6632C178.973 68.4093 180.407 66.8069 180.646 64.288C180.949 61.0831 180.837 57.9823 178.152 55.7529L178.149 55.7558ZM166.381 60.8414C166.373 60.802 166.365 60.7627 166.353 60.7261C166.365 60.7655 166.373 60.8048 166.381 60.8414C166.398 60.8751 166.418 60.9088 166.435 60.9398C166.418 60.906 166.398 60.8723 166.381 60.8414ZM168.063 59.7309C168.004 59.7984 167.944 59.8659 167.883 59.9333C167.944 59.8659 168.004 59.7956 168.063 59.7309C168.063 59.7309 168.11 59.7253 168.108 59.7253L168.06 59.7309H168.063ZM168.324 58.2297C168.242 58.2241 168.175 58.196 168.133 58.1538C168.175 58.1988 168.242 58.2269 168.324 58.2297ZM177.607 57.4819L177.567 57.5212C177.567 57.5212 177.587 57.5016 177.607 57.4819ZM177.773 58.1566C177.747 58.1763 177.705 58.196 177.686 58.2156C177.705 58.1988 177.747 58.1763 177.773 58.1566ZM174.247 55.857C174.231 55.857 174.214 55.8654 174.2 55.871C174.216 55.8654 174.231 55.8598 174.247 55.857ZM174.166 55.8795C174.022 55.9554 173.986 56.1915 173.972 56.4698C173.983 56.1971 174.022 55.9554 174.166 55.8795Z" fill="black"/>
<path d="M147.734 78.2717C148.642 78.2043 149.713 78.0609 150.444 78.3448C151.886 78.9043 151.81 77.8388 152.038 77.1866C152.384 76.197 152.578 75.1512 152.803 74.1223C153.233 72.1431 153.761 70.1752 154.13 68.1989C154.731 64.9884 155.476 61.8341 156.404 58.7052C156.784 57.4232 157.441 56.1722 157.453 54.8031C157.453 54.4883 157.422 54.165 157.346 53.836C156.89 53.8501 156.435 53.8642 155.98 53.8782C153.163 53.8023 150.382 53.2176 147.557 53.2935C147.363 53.2991 147.169 53.3019 146.975 53.3075C146.882 53.2878 146.82 53.3047 146.778 53.3441C146.736 53.3862 146.714 53.4509 146.7 53.5268C146.584 53.569 146.489 53.583 146.41 53.5718C146.371 53.5662 146.334 53.5577 146.3 53.5409C146.258 53.5212 146.222 53.4959 146.191 53.4621C146.092 53.3637 146.033 53.2119 145.98 53.0433C145.98 53.0433 145.946 53.0433 145.924 53.0461C145.915 53.0461 145.907 53.0461 145.907 53.0461L145.867 52.9842C145.679 52.9702 145.494 52.9561 145.305 52.9421C145.069 52.9561 144.83 52.9702 144.594 52.9842C144.358 52.9983 144.119 53.0123 143.883 53.0264L143.874 53.8164C143.874 53.5521 143.88 53.2907 143.883 53.0264C142.66 52.9449 141.485 52.4079 140.231 52.6244C140.082 52.6328 139.93 52.6412 139.781 52.6497C139.657 52.5991 139.534 52.5513 139.41 52.5007C138.929 52.526 138.446 52.5485 137.965 52.5738C137.934 52.5316 137.897 52.5035 137.858 52.4894C137.819 52.4754 137.771 52.4754 137.72 52.4894C137.625 52.4838 137.529 52.4782 137.434 52.4726C136.095 52.3236 134.746 52.2758 133.408 52.1999C130.394 52.0256 127.361 52.1886 124.37 51.5955C124.072 51.5364 123.478 51.5955 123.459 51.6882C123.237 52.7396 122.045 53.1332 121.907 54.3533C121.783 55.4666 121.693 56.6333 121.395 57.7297C121.041 59.0229 121.513 60.3357 121.162 61.6177C121.061 61.986 121.145 62.402 121.581 62.5398C121.887 62.6382 122.118 62.4554 122.168 62.1181C122.472 60.049 123.433 58.1204 123.442 55.9867C123.442 55.8461 123.442 55.7027 123.45 55.5622C123.456 55.4694 123.461 55.3794 123.476 55.2895C123.481 55.2445 123.49 55.2023 123.498 55.1602C123.526 55.0337 123.568 54.9156 123.63 54.8116C123.65 54.7806 123.67 54.7525 123.692 54.7244C123.802 54.5838 123.962 54.477 124.195 54.4208C124.288 54.3983 124.392 54.3814 124.51 54.3758C125.573 54.2887 126.633 54.2577 127.695 54.2605C128.404 54.2605 129.109 54.283 129.818 54.3112C130.878 54.3561 131.938 54.4236 132.997 54.4967C134.038 54.5698 135.075 54.6682 136.118 54.6738C136.464 54.6738 136.812 54.6682 137.161 54.6457C140.813 54.9465 144.465 55.2501 148.116 55.5509C148.235 55.5594 148.35 55.565 148.468 55.5734C150.588 55.8939 152.724 55.7618 154.855 55.7871C154.338 59.245 153.421 62.6101 152.516 65.978L152.502 66.0398C152.429 66.3013 152.356 66.5627 152.286 66.827C152.308 66.886 152.291 66.9282 152.232 66.9535C151.937 67.9037 152.044 68.9551 151.51 69.8435C151.459 71.7608 150.737 73.5713 150.593 75.4745C150.551 76.0368 150.171 76.0621 149.708 76.0874C148.569 76.1492 147.445 76.048 146.32 75.9243C146.16 75.9074 146 75.8878 145.839 75.8709C144.228 75.7528 142.612 75.6825 141.01 75.5026C136.464 74.991 131.887 74.8616 127.333 74.4034C125.145 74.1841 122.944 73.7821 120.661 74.2263C119.512 74.4484 119.562 75.2918 119.61 75.6657C119.683 76.2476 120.437 76.0649 120.993 75.9918C121.541 75.9187 122.12 75.9637 122.672 76.0452C126.619 76.6384 130.591 76.8998 134.569 77.1388C137.878 77.3384 141.212 77.1275 144.501 77.6729C145.583 77.8528 146.596 78.3533 147.751 78.2689L147.734 78.2717ZM139.348 54.1425C139.371 54.12 139.39 54.0975 139.41 54.0778C139.39 54.1003 139.368 54.12 139.348 54.1425ZM143.118 54.3393C143.309 54.3505 143.5 54.0047 143.689 53.8164C143.498 54.0047 143.306 54.3505 143.115 54.3393H143.118ZM144.864 54.3533C145.058 54.3111 145.215 54.2128 145.274 53.971C145.215 54.2128 145.058 54.314 144.864 54.3533ZM151.839 74.4174C151.791 74.3668 151.743 74.3162 151.695 74.2685C151.746 74.3162 151.794 74.3668 151.839 74.4174ZM125.919 75.0809C125.935 75.0697 125.952 75.0556 125.969 75.0444C125.952 75.0556 125.935 75.0669 125.916 75.0809H125.919ZM126.602 75.2918C126.621 75.3171 126.644 75.3592 126.664 75.3761C126.647 75.3592 126.621 75.3171 126.602 75.2918ZM132.559 75.7359C132.635 75.6938 132.711 75.6488 132.784 75.6066C132.708 75.6488 132.635 75.6938 132.559 75.7359Z" fill="black"/>
<path d="M154.141 39.4732L154.133 39.4816C153.382 39.923 152.91 40.6033 152.46 41.3005C152.311 41.5338 152.165 41.7672 152.01 41.9977C151.296 42.7146 150.61 43.4511 149.994 44.2411C149.685 44.6347 149.396 45.0451 149.128 45.4696C148.861 45.8941 148.62 46.3383 148.406 46.805C148.184 47.0805 147.959 47.3532 147.737 47.6287C147.47 47.7777 147.318 47.9913 147.225 48.2416C147.172 48.3905 147.138 48.5536 147.116 48.7195C146.975 48.9697 146.888 49.2086 147.245 49.3576C147.585 50.0267 148.032 49.8159 148.448 49.4701C148.934 49.0653 149.334 48.5761 149.584 47.9857C150.2 47.2098 150.815 46.4367 151.431 45.6608C151.451 45.6242 151.467 45.5849 151.476 45.5455C151.487 45.5062 151.493 45.4668 151.496 45.4246C151.799 45.1379 152.103 44.8483 152.409 44.5616C152.418 44.556 152.426 44.5503 152.435 44.5447C152.496 44.5025 152.561 44.4632 152.623 44.421C152.82 44.1174 153.016 43.8138 153.213 43.5102C153.39 43.2937 153.567 43.0772 153.745 42.8636C153.674 42.8242 153.607 42.7792 153.537 42.7371C153.604 42.782 153.674 42.8242 153.745 42.8636C156.876 39.6306 160.284 36.7293 164.222 34.306C162.89 35.7819 162.811 37.6458 162.448 39.431C162.282 40.2519 162.741 40.7129 163.261 41.0475C163.761 41.368 164.031 40.7551 164.343 40.4683C165.358 39.5238 165.476 38.1575 165.971 36.9655C166.842 34.8739 167.731 32.7879 168.599 30.6935C168.895 29.9794 168.796 29.2541 168.38 28.6441C168.161 28.3208 167.719 28.0959 167.261 28.3067C164.773 29.4566 161.807 28.6385 159.418 30.2212C158.631 30.7441 157.455 30.2999 156.798 31.2951C156.576 31.6297 155.608 31.2867 155.665 31.953C155.741 32.8329 156.719 32.4028 157.242 32.698C157.492 32.8385 157.883 32.7458 158.209 32.7289C159.558 32.6558 160.908 32.5686 162.254 32.4871C160.48 33.4373 158.959 34.6743 157.517 35.9337C156.303 36.9936 154.911 37.9607 154.138 39.4703L154.141 39.4732ZM148.738 46.8162C148.622 46.8865 148.504 46.954 148.389 47.0215C148.504 46.954 148.622 46.8837 148.738 46.8162H148.724C148.724 46.8162 148.735 46.8162 148.738 46.8162ZM148.442 46.8443C148.42 46.9006 148.403 46.9596 148.392 47.0215C148.406 46.9624 148.423 46.9034 148.442 46.8443ZM149.519 47.9211C149.519 47.9211 149.525 47.9267 149.53 47.9323L149.519 47.9211ZM150.866 45.3937C150.919 45.3234 150.97 45.2588 151.026 45.2447C150.973 45.2616 150.919 45.3234 150.866 45.3937ZM151.92 42.7314C151.884 42.7989 151.839 42.8664 151.816 42.9367C151.841 42.8636 151.884 42.7989 151.92 42.7314ZM151.622 43.8841C151.869 43.7126 152.333 43.8053 152.612 43.6732C152.331 43.8053 151.869 43.7126 151.622 43.8841Z" fill="black"/>
<path d="M149.227 10.5901C148.316 10.2358 147.419 9.8282 146.424 9.76354C145.485 9.36715 144.566 9.69607 143.638 9.83663C141.217 10.2133 138.892 10.7615 137.63 13.2046L137.571 13.2636C136.444 14.1154 136.208 15.4002 136.151 16.6006C136.143 16.7721 136.14 16.9436 136.135 17.1094C136.118 18.1046 137.402 17.7279 138.153 17.8207C138.195 17.8263 138.237 17.8572 138.277 17.8797C139.449 18.5291 140.003 18.307 140.208 16.9773C140.304 16.3504 140.444 15.8162 140.863 15.3355C142.572 13.3817 144.543 12.8138 146.978 13.5981C148.943 15.1753 149.081 17.9359 147.383 20.1765C146.441 21.4191 145.367 22.4902 144.034 23.2746C142.705 24.0561 141.754 25.2087 141.063 26.5132C140.512 27.5533 139.654 28.602 140.169 29.9542C140.194 30.1313 140.222 30.3084 140.247 30.4855C139.719 31.4385 140.517 31.2727 140.947 31.2361C141.577 31.1799 142.19 31.1574 142.817 31.2642C143.52 31.3851 143.916 31.2024 143.891 30.3196C143.86 29.2064 144.504 28.2843 145.133 27.4128C146.68 25.2762 149.03 23.924 150.641 21.8521C154.138 17.354 153.744 13.9383 149.221 10.5816L149.227 10.5901ZM140.672 11.3435C140.714 11.5403 140.759 11.7371 140.801 11.9367C140.759 11.7399 140.714 11.5431 140.672 11.3435C140.652 11.3547 140.63 11.3632 140.607 11.3744C140.627 11.3632 140.652 11.3547 140.672 11.3435Z" fill="black"/>
<path d="M118.682 41.0475C118.666 41.6126 119.025 42.1973 119.253 42.7568C119.512 43.3978 120.153 43.4455 120.667 43.3893C121.187 43.3331 121.128 42.7596 121.109 42.352C121.066 41.5283 121.322 40.7523 121.249 39.8865C121.131 38.4864 120.729 37.1989 120.141 35.782C120.853 36.0575 121.238 36.3752 121.606 36.7434C123.473 38.613 125.359 40.4684 127.237 42.3267C127.355 42.5038 127.476 42.6781 127.594 42.8552C127.639 43.1785 127.867 43.3472 128.126 43.4933C128.314 44.1062 128.826 44.4492 129.264 44.8568C129.351 44.9665 129.438 45.0789 129.526 45.1885C129.601 45.2673 129.68 45.346 129.756 45.4247C129.812 45.4669 129.857 45.5147 129.899 45.5681C130.189 45.9392 130.211 46.552 130.836 46.6251C130.836 46.6251 130.85 46.6364 130.864 46.6504C130.878 46.6645 130.892 46.6757 130.895 46.6757C131.052 47.2155 131.333 47.6344 131.85 47.8171C131.924 47.8424 132.002 47.8649 132.087 47.8818C132.331 47.8761 132.626 47.6793 132.719 48.1376C132.82 48.6408 133.422 48.4271 133.414 48.3316C133.385 47.9324 134.212 47.8058 133.712 47.3111C133.355 46.9597 133.014 46.5886 132.669 46.2259C132.43 45.5849 132.163 44.9636 131.623 44.5054C131.612 44.4885 131.603 44.4689 131.597 44.4492C131.547 44.3086 131.544 44.1231 131.297 44.1737C131.285 44.168 131.274 44.1709 131.263 44.168C131.33 44.0584 131.274 43.9431 131.184 43.8335C131.159 43.7998 131.128 43.7688 131.1 43.7379C131.055 43.6901 131.013 43.6452 130.976 43.603C130.341 42.8467 129.677 42.1158 129.025 41.3736C128.823 41.1319 128.62 40.8873 128.418 40.6455L128.404 40.6315C128.221 40.4487 128.041 40.2632 127.858 40.0804C126.756 38.8154 125.623 37.5756 124.572 36.2683C124.288 35.9141 123.448 35.9844 123.684 35.2225C124.845 35.647 126.506 35.5318 127.836 35.0932C128.828 34.7643 129.638 34.2555 129.908 33.651C128.277 33.4318 126.666 33.1366 125.078 32.6699C123.493 32.206 121.969 31.5004 120.288 31.3908C120.189 31.3823 120.088 31.3739 119.99 31.3655C119.959 31.3402 119.928 31.3177 119.897 31.298C119.835 31.2558 119.77 31.2193 119.706 31.1912C119.672 31.1771 119.641 31.1659 119.607 31.1546C119.54 31.1349 119.47 31.1265 119.396 31.1265C119.323 31.1265 119.247 31.1377 119.172 31.163C119.068 31.1574 118.964 31.1518 118.86 31.1462C118.68 31.104 118.5 31.0647 118.32 31.0225C117.842 30.5361 117.4 30.9016 116.951 31.0787C116.377 32.296 116.287 33.4289 117.451 34.396C117.758 34.6519 117.743 35.0679 117.786 35.439C118.005 37.3226 118.736 39.1162 118.682 41.056V41.0475ZM123.647 35.2141C123.664 35.2001 123.681 35.1832 123.698 35.1691C123.698 35.1691 123.684 35.2113 123.684 35.2141C123.672 35.2141 123.658 35.2141 123.647 35.2141C123.611 35.245 123.577 35.2788 123.54 35.3097C123.518 35.2788 123.495 35.2478 123.476 35.2169C123.532 35.2169 123.591 35.2169 123.647 35.2169V35.2141ZM119.669 32.1189C119.703 32.1554 119.739 32.1892 119.776 32.2229C119.739 32.1892 119.703 32.1526 119.669 32.1189ZM120.631 33.7663C120.482 33.7747 120.439 33.7016 120.439 33.6061C120.439 33.6988 120.484 33.7719 120.631 33.7635C120.707 33.7269 120.757 33.6763 120.791 33.6201C120.76 33.6763 120.707 33.7241 120.631 33.7635V33.7663Z" fill="black"/>
<path d="M97.8649 12.2545C98.6155 12.3922 99.5601 12.8477 99.934 12.1252C100.285 11.4448 100.898 10.6155 100.749 9.87613C100.527 8.77411 101.056 8.32993 101.806 7.88856C103.074 7.14357 104.44 6.82308 105.908 6.96365C105.967 7.11545 106.068 7.17449 106.226 7.10702C106.321 7.10702 106.417 7.10702 106.51 7.10702C106.838 7.14076 107.17 7.17449 107.499 7.20823C107.595 7.29819 107.69 7.38534 107.783 7.4753C109.428 9.07211 109.686 10.5284 108.725 12.7718C108.537 13.1035 108.348 13.4324 108.16 13.7641C108.073 13.9047 107.985 14.0425 107.898 14.183C107.862 14.2477 107.822 14.3123 107.78 14.3742C107.488 14.8015 107.094 15.1107 106.659 15.4144C106.535 15.5015 106.403 15.5774 106.268 15.6589C106.133 15.7405 106.001 15.822 105.88 15.9176C105.818 15.9654 105.762 16.016 105.708 16.0722C105.63 16.1537 105.559 16.2465 105.503 16.3533C105.447 16.4602 105.408 16.581 105.388 16.7188H105.385C104.643 16.7666 104.516 17.4357 104.185 17.9023C102.74 19.6229 102.453 21.6582 102.568 23.8089C102.608 24.5314 102.903 25.3269 103.589 25.2229C104.654 25.0599 105.779 25.192 106.791 24.7197C106.844 24.6944 106.824 24.4583 106.796 24.3261C106.228 21.7313 107.384 19.7606 109.093 17.9979C110.004 17.059 110.974 16.1762 111.845 15.2063C113.591 13.2637 114.449 11.0625 113.597 8.43676C113.628 7.8998 113.372 7.50341 112.99 7.16325C112.9 7.04236 112.81 6.92429 112.717 6.8034C112.666 6.71906 112.616 6.63754 112.568 6.5532C111.263 4.98169 109.672 3.87404 107.634 3.48609C107.454 3.48046 107.274 3.47203 107.094 3.46641C106.751 3.00817 106.22 2.99974 105.739 2.95757C104.193 2.817 102.773 3.30054 101.393 3.9387C101.014 4.04834 100.637 4.1608 100.257 4.27044C99.3577 4.72305 98.7898 5.69013 97.7299 5.88974C97.7299 5.88974 97.7159 5.99938 97.7187 5.99938C97.0018 7.43032 96.2849 8.86407 95.5681 10.295C95.5765 10.8348 95.6046 11.3717 95.8604 11.8665C96.5014 12.1589 97.1986 12.1364 97.8677 12.2573L97.8649 12.2545ZM107.499 7.21104C107.853 7.16606 108.208 7.10983 109.071 6.87931C109.529 5.95158 109.346 5.66483 109.321 5.36121C109.346 5.66202 109.529 5.95158 109.667 6.31705C109.641 6.56163 109.52 6.76404 109.335 6.93553C109.442 6.82589 109.405 6.76686 109.071 6.87931C108.753 7.09859 108.525 7.23634 108.351 7.32349C108.104 7.13232 107.8 7.17449 107.499 7.21385V7.21104ZM111.255 13.5505C111.272 13.5449 111.292 13.542 111.311 13.5364C111.294 13.542 111.275 13.5449 111.255 13.5505Z" fill="black"/>
<path d="M99.4783 76.4587C100.294 74.8113 100.935 73.1498 101.401 71.4406C102.023 69.1747 102.557 66.8835 103.04 64.5838C103.749 61.1962 104.415 57.8002 105.017 54.3929C105.137 53.7154 104.752 53.111 103.847 53.2909C103.718 53.4736 103.586 53.6592 103.456 53.8419C103.456 53.8419 103.459 53.8419 103.462 53.8391C101.803 59.8356 100.873 65.9895 99.5542 72.0618C99.5486 72.0562 99.5458 72.0534 99.5402 72.0478C99.9619 72.9137 99.7707 73.7655 99.4811 74.6173V76.4587H99.4783Z" fill="black"/>
<path d="M146.848 64.5107C144.965 64.6793 143.182 63.9597 141.33 63.8753C137.97 63.7207 134.608 63.5858 131.249 63.4424C131.153 63.4593 131.057 63.4733 130.965 63.4902C129.964 63.5408 128.966 63.5914 127.965 63.6392C127.639 63.656 127.316 63.6223 127.301 64.1199C127.285 64.7693 127.74 64.432 127.985 64.4601C130.383 64.7187 132.798 64.8621 135.182 65.2247C139.055 65.8123 142.935 65.8517 146.829 65.6043C146.995 65.593 147.529 65.8882 147.425 65.2697C147.366 64.9211 147.408 64.4657 146.851 64.5163L146.848 64.5107ZM132.843 64.0749C132.812 64.148 132.778 64.2211 132.747 64.297C132.778 64.2239 132.812 64.1508 132.843 64.0749ZM133.065 64.1705C133.065 64.1705 133.056 64.1677 133.051 64.1649C133.056 64.1649 133.059 64.1677 133.065 64.1705ZM140.377 64.983C140.318 64.9577 140.247 64.9071 140.194 64.893C140.25 64.9071 140.318 64.9577 140.38 64.983H140.377Z" fill="black"/>
<path d="M169.524 80.7881C168.206 80.8331 166.952 82.2893 166.941 83.7793C166.932 85.2355 168.003 86.152 169.721 86.1576C171.217 86.1605 172.389 85.109 172.386 83.7709C172.386 82.4496 170.75 80.7459 169.524 80.7909V80.7881Z" fill="black"/>
<path d="M107.831 30.4068C107.786 28.6357 107.178 27.916 105.736 27.9385C104.016 27.9638 102.711 29.2879 102.759 30.9634C102.793 32.1639 103.78 32.9763 105.16 32.9426C106.838 32.9004 107.87 31.9221 107.831 30.4096V30.4068Z" fill="black"/>
<path d="M141.611 33.7578C139.913 33.7325 138.817 34.7221 138.808 36.2823C138.803 37.8201 139.781 38.8912 141.232 38.925C142.311 38.9503 143.481 37.7498 143.405 36.5101C143.278 34.4297 142.674 33.5976 141.611 33.7606V33.7578Z" fill="black"/>
<path d="M125.725 69.2843C125.761 69.7201 126.487 69.3124 126.686 69.7735C126.709 69.8269 127.032 69.7285 127.215 69.7369C131.013 69.8775 134.808 70.0293 138.606 70.1642C138.924 70.1755 139.449 70.5663 139.506 69.959C139.548 69.512 138.988 69.3518 138.617 69.3237C135.424 69.0706 132.227 68.8542 129.034 68.6265C129.034 68.6658 129.031 68.7052 129.028 68.7473C128.238 68.7473 127.448 68.7164 126.664 68.7614C126.295 68.7839 125.674 68.649 125.725 69.2843Z" fill="black"/>
<path d="M142.409 58.9499C141.965 58.9106 141.524 58.874 141.08 58.8346C140.818 58.8346 140.554 58.829 140.293 58.8262C140.293 58.8262 140.293 58.8262 140.293 58.829C140.264 58.8093 140.233 58.7869 140.205 58.7672C139.995 58.6266 139.781 58.5282 139.536 58.7531L139.452 58.7081C139.283 58.4692 139.058 58.5479 138.839 58.5985C138.558 58.6013 138.28 58.6041 137.998 58.6069C136.77 58.576 135.539 58.5423 134.31 58.5114C134.24 58.4551 134.161 58.4495 134.08 58.4889C131.999 58.5451 129.947 57.668 127.841 58.3146C127.51 58.4158 127.226 58.472 127.178 58.8712C127.316 59.0624 127.453 59.2563 127.591 59.4475C128.564 59.4053 129.497 59.6246 130.431 59.8551L130.487 59.7708L130.585 59.7989C131.122 59.9817 131.67 60.0126 132.218 59.9985C132.224 59.9985 132.23 59.9985 132.235 59.9985C132.452 59.9929 132.668 59.9788 132.882 59.9648C132.992 59.9592 133.101 59.9507 133.214 59.9451C134.161 59.9029 135.049 60.5186 136.022 60.1813C137.051 60.2319 138.08 60.2853 139.109 60.3359C140.236 60.3949 141.364 60.4568 142.491 60.5158C142.724 60.5327 142.955 60.5552 143.188 60.5748C143.421 60.5945 143.652 60.6086 143.885 60.6058C145.221 60.5889 146.579 60.7801 147.886 60.4174C149.019 60.1025 147.509 60.0997 147.793 59.8523C145.999 59.5515 144.209 59.2479 142.415 58.9471L142.409 58.9499Z" fill="black"/>
<path d="M128.631 93.4271C130.209 89.8062 132.421 86.4045 132.733 81.9346C132.348 82.4237 132.131 82.7695 132.087 82.747C130.717 82.0892 131.226 83.3599 130.962 83.8238C130.85 84.0234 130.729 84.2173 130.611 84.4141C129.823 84.8246 129.793 85.6483 129.556 86.3595C129.365 86.4579 129.272 86.5929 129.236 86.7475C129.216 86.8234 129.211 86.9077 129.213 86.9921C129.213 87.0736 129.225 87.1607 129.233 87.2451C129.225 87.231 129.213 87.217 129.205 87.2029C128.362 88.2684 127.825 89.4969 127.276 90.7198C127.237 90.807 127.198 90.8969 127.158 90.9841C127.071 91.1781 126.981 91.3749 126.891 91.5688C126.728 91.9118 126.56 92.2548 126.38 92.5865C126.318 92.6877 126.259 92.7889 126.197 92.8929C125.91 93.264 125.623 93.6351 125.337 94.0062C124.763 94.442 124.454 95.038 124.296 95.7239C124.246 95.7773 124.201 95.8307 124.153 95.8842C123.47 96.7107 123.172 97.8324 122.216 98.4452C122.295 97.5456 122.91 96.7472 122.882 95.8195C122.882 95.752 122.874 95.6874 122.866 95.6199C122.857 95.5524 122.843 95.485 122.826 95.4147C122.851 95.1448 122.874 94.8777 122.899 94.6078C123.481 93.4636 121.921 93.3793 121.994 92.3335C121.255 93.1403 120.988 93.8066 121.491 94.6163C121.491 94.6163 121.443 94.6725 121.443 94.6753C120.552 96.4605 119.708 98.2681 119.087 100.171C118.814 100.469 118.643 100.81 118.516 101.167C118.474 101.285 118.435 101.408 118.398 101.529C118.362 101.65 118.328 101.774 118.294 101.897C118.261 102.021 118.227 102.142 118.188 102.266C118.114 102.51 118.03 102.749 117.915 102.974C117.892 102.985 117.873 102.997 117.856 103.011C117.839 103.022 117.825 103.036 117.814 103.05C117.791 103.075 117.777 103.104 117.774 103.134C117.769 103.193 117.8 103.258 117.864 103.328C118.131 103.57 117.701 104.31 118.477 104.189C118.5 104.349 118.525 104.512 118.547 104.672C118.084 104.99 118.516 105.254 118.663 105.417C118.992 105.783 119.16 105.234 119.436 105.192C119.663 105.294 119.866 105.271 120.023 105.057C121.603 104.346 123.088 103.469 124.524 102.502C124.569 102.496 124.611 102.482 124.653 102.468C124.696 102.454 124.735 102.432 124.772 102.406C125.12 102.263 125.469 102.117 125.82 101.973C125.862 101.948 125.899 101.926 125.933 101.9C126.214 101.951 126.492 101.805 126.751 101.599C126.978 101.58 127.226 101.605 127.347 101.344C128.415 100.576 129.615 100.104 130.852 99.6822C131.429 99.4854 132.252 99.2549 131.94 98.3918C131.684 97.6834 130.928 97.495 130.259 97.7199C128.592 98.2822 126.824 98.5914 125.328 99.6288C125.005 99.8537 124.639 100.396 124.102 99.9184C125.19 98.7995 126.183 97.6019 126.992 96.2637C127.192 95.9826 127.394 95.6986 127.594 95.4175C127.732 95.2601 127.881 95.1082 127.763 94.8721C127.92 94.5938 128.078 94.3155 128.232 94.0371C128.367 93.8347 128.502 93.6323 128.634 93.4299L128.631 93.4271ZM129.778 99.3392C129.75 99.3111 129.722 99.283 129.694 99.2549C129.722 99.283 129.75 99.3111 129.778 99.3364V99.3392ZM120.127 102.853C120.108 102.803 120.068 102.755 119.998 102.704C120.071 102.755 120.11 102.803 120.127 102.853ZM121.828 102.524C121.8 102.451 121.778 102.373 121.738 102.305C121.778 102.373 121.8 102.449 121.828 102.522V102.524ZM122.573 103.163C122.604 103.089 122.643 103.019 122.663 102.943C122.643 103.019 122.607 103.089 122.573 103.163ZM125.938 96.646C126.059 96.3986 126.239 96.3087 126.436 96.2749C126.236 96.3087 126.059 96.3958 125.938 96.646ZM127.029 93.444C127.33 93.354 127.628 93.2162 127.929 93.1909C127.628 93.2134 127.33 93.354 127.029 93.444Z" fill="black"/>
<path d="M180.125 42.8524C179.639 42.6191 179.487 41.8347 178.748 42.0175C177.148 41.5255 175.886 42.5741 175.701 44.542C175.939 46.5689 178.034 47.2914 179.335 46.8276C179.743 46.6814 180.052 46.4705 180.26 46.195C180.345 46.0854 180.412 45.9617 180.463 45.8296C180.513 45.6974 180.55 45.5541 180.567 45.3994C180.595 45.1689 180.587 44.9131 180.542 44.632C180.527 44.5392 180.508 44.4408 180.485 44.3424C180.415 44.0444 180.311 43.7211 180.168 43.3725C180.154 43.1982 180.14 43.0239 180.125 42.8496V42.8524ZM178.2 44.3564C178.2 44.3283 178.2 44.3002 178.194 44.2777C178.203 44.3002 178.203 44.3283 178.2 44.3564ZM178.203 44.3649C178.203 44.3958 178.194 44.4295 178.197 44.4605C178.197 44.4295 178.2 44.3958 178.203 44.3649Z" fill="black"/>
<path d="M175.518 17.4692C175.518 17.4692 175.515 17.4777 175.512 17.4861C175.51 17.4945 175.504 17.503 175.507 17.503C174.177 18.3435 173.131 19.3725 172.502 20.8203C172.412 21.0283 172.33 21.242 172.257 21.4669C171.931 22.4733 172.327 22.9203 172.996 23.3842C173.671 23.8508 174.689 23.4769 175.254 24.3316C175.38 24.5227 175.85 24.3316 175.999 23.9408C176.145 23.5556 176.359 23.1958 176.541 22.8247C178.304 19.26 180.916 18.5712 184.236 20.8006C185.546 24.4721 184.95 26.1786 181.694 28.2702C180.722 28.8943 179.774 29.5746 178.894 30.3196C176.957 31.9586 176.707 34.3454 176.35 36.6197C176.153 37.8623 176.744 38.2277 178.121 38.0844C178.641 38.0309 179.108 37.9579 179.682 38.2643C180.429 38.6663 181.098 38.5707 181.051 37.2831C180.986 35.5767 181.422 33.9715 182.723 32.6642C182.912 32.4759 183.114 32.3015 183.325 32.1357C184.236 31.4188 185.279 30.8509 185.866 29.7911C185.866 29.7911 185.878 29.7798 185.889 29.7686C185.9 29.7573 185.911 29.7461 185.911 29.7461C186.58 29.4116 187.053 28.9055 187.415 28.3011C187.536 28.0987 187.643 27.8878 187.741 27.6657C187.792 27.5786 187.843 27.4914 187.893 27.4043C187.938 27.3087 187.983 27.2103 188.028 27.1147C189.83 23.9324 189.496 20.3873 187.205 18.3941C186.805 17.4046 185.998 16.921 185.026 16.6483L184.986 16.6961C185.037 16.5668 185.023 16.4965 184.981 16.4572C184.908 16.3897 184.75 16.4009 184.66 16.3503C184.638 16.2154 184.565 16.1732 184.469 16.1704C184.438 16.1704 184.402 16.1732 184.365 16.1817C182.428 15.4676 180.472 15.282 178.476 15.9258C178.374 15.9849 178.276 16.0439 178.175 16.1029C178.18 16.3053 178.186 16.5078 178.189 16.7102C178.183 16.5078 178.178 16.3053 178.175 16.1029C178.045 16.1198 177.916 16.1451 177.792 16.176C176.921 16.3869 176.198 16.8845 175.521 17.4692H175.518ZM184.16 18.9901C184.174 19.0773 184.25 19.1644 184.36 19.2488C184.216 19.4709 184.286 19.6367 184.396 19.7942C184.289 19.6367 184.216 19.468 184.36 19.2488C184.25 19.1644 184.174 19.0801 184.16 18.9901ZM185.085 29.4284C185.254 29.5043 185.431 29.5718 185.599 29.6505C185.433 29.5746 185.254 29.5043 185.085 29.4284ZM185.237 19.5524L185.225 19.5411C185.225 19.5411 185.237 19.5552 185.237 19.5524ZM184.627 20.154C184.652 20.2215 184.663 20.2946 184.646 20.3733C184.663 20.2946 184.655 20.2215 184.627 20.154ZM183.882 30.0019C183.98 29.9598 184.154 29.9485 184.174 29.8529C184.157 29.9457 183.98 29.9598 183.882 30.0019C183.831 30.0525 183.783 30.1003 183.733 30.1509C183.78 30.1003 183.831 30.0525 183.879 30.0019H183.882ZM187.427 23.9239C187.365 23.9605 187.311 23.9942 187.255 24.0251C187.25 23.983 187.244 23.9408 187.235 23.9014C187.241 23.9436 187.25 23.9858 187.255 24.0251C187.311 23.9914 187.368 23.9577 187.427 23.9239ZM176.333 18.0849C176.536 18.0652 176.755 18.0034 176.898 18.1158C176.755 18.0062 176.536 18.068 176.333 18.0849ZM179.119 16.9013C179.119 16.9013 179.119 16.9013 179.116 16.9042C179.1 16.921 179.066 16.9576 179.027 16.9997C179.035 16.9997 179.043 16.9997 179.049 16.9997C178.928 17.174 178.802 17.3287 178.667 17.4608C178.799 17.3258 178.922 17.174 179.027 16.9997C178.144 17.2781 177.171 17.2246 176.316 17.6154C177.171 17.2246 178.152 17.264 179.116 16.9042L179.119 16.9013ZM175.928 17.8403L175.903 17.8656C175.903 17.8656 175.914 17.8544 175.928 17.8403Z" fill="black"/>
<path d="M97.2573 95.5586C97.2573 95.5586 97.2545 95.5923 97.2545 95.5951L97.2573 95.5586Z" fill="black"/>
<g clip-path="url(#clip1_91_7811)">
<path d="M107.173 100.664C107.173 100.664 107.173 100.667 107.173 100.668C107.172 100.675 107.168 100.679 107.166 100.686C107.176 100.683 107.185 100.682 107.196 100.68C107.19 100.675 107.181 100.67 107.175 100.664H107.173Z" fill="#FEFEFE"/>
<path d="M114.382 63.2992C114.329 63.3402 114.279 63.3907 114.236 63.4412C113.165 64.6731 112.076 65.8887 111.032 67.1425C109.693 68.7486 108.946 70.7057 107.946 72.5113C107.142 73.9645 106.369 75.4381 105.558 76.8886C105.329 77.2969 105.308 78.1369 104.584 77.2519C104.484 77.1303 104.186 77.0935 104.005 77.1317C103.36 77.2655 102.814 77.5059 102.379 78.1014C101.746 78.9673 101.204 79.952 100.268 80.5461C99.3911 81.102 98.6386 81.789 98.0295 82.6016C96.3974 84.7732 94.3118 86.5896 93.0171 89.1655C92.5281 87.9568 92.1102 86.8669 91.4943 85.8726C91.288 85.5394 91.4273 85.3195 91.7032 85.0736C93.786 83.2039 94.8213 80.7564 95.134 78.0713C95.5028 74.9219 94.8035 71.9226 93.1414 69.1856C93.0171 68.9821 92.9584 68.8019 93.0307 68.5547C93.2438 67.824 93.3913 67.0742 93.6262 66.3517C94.8595 62.563 94.3815 58.9028 92.7139 55.3777C92.2154 54.3233 92.1553 53.3018 92.3711 52.2406C92.9365 49.4626 92.8081 46.6942 92.2645 43.9476C91.9572 42.3934 91.7087 40.8801 91.8412 39.2698C92.0692 36.4946 92.5746 33.7713 93.069 31.0424C93.2861 29.8406 93.5702 28.6264 93.3681 27.4095C92.759 23.7615 91.5926 20.3376 89.5344 17.2004C87.3355 13.8474 84.4592 11.512 80.6241 10.3278C79.8238 10.0806 78.9824 9.9659 78.2668 9.39501C76.0187 7.60039 73.4989 6.59928 70.5488 7.04316C69.9192 7.13739 69.2964 7.08549 68.7023 6.7782C68.3663 6.60474 67.9948 6.46817 67.6247 6.40124C64.4602 5.82352 61.2616 5.87133 58.1627 6.58426C53.937 7.55668 50.3109 9.78972 47.1231 12.7152C46.0292 13.719 45.3668 15.1039 44.3315 16.1323C42.1176 18.334 41.0072 21.127 39.8764 23.9131C39.0706 25.899 38.8056 28.0391 38.3535 30.1247C38.0299 31.612 37.5232 33.0679 37.2978 34.5675C36.9181 37.0805 36.3486 39.5184 34.9951 41.6913C33.4163 44.2262 32.422 46.9209 32.2936 49.931C32.2499 50.9636 32.0314 51.9893 31.8648 53.0136C31.5643 54.8574 30.1821 56.0524 29.1332 57.4359C28.4941 58.2786 27.5981 58.9014 27.0177 59.8233C25.6164 62.0522 24.8857 64.441 25.1165 67.0865C25.2913 69.0969 24.6877 70.9366 23.7425 72.6383C22.8807 74.1885 22.1596 75.7359 21.9302 77.5223C21.683 79.4439 21.8933 81.255 22.8548 82.9362C23.0446 83.2681 23.0132 83.4129 22.8193 83.6737C21.7635 85.0859 20.8567 86.5951 20.055 88.1616C18.1115 91.9585 16.7635 95.9697 15.8293 100.124C15.4728 101.707 15.0672 103.283 15.0044 104.918C14.9975 105.105 14.9784 105.299 15.2092 105.361C15.4346 105.421 15.5452 105.261 15.6203 105.089C16.0246 104.164 16.5832 103.316 16.926 102.359C17.9763 99.4251 18.7179 96.3945 19.8938 93.4963C21.489 89.5616 23.3219 85.7756 25.9728 82.435C26.5506 81.707 27.1829 81.0132 27.9396 80.456C29.5771 79.2486 31.3526 78.3049 33.1991 77.4417C36.9209 75.7031 40.7054 74.1229 44.5132 72.5864C44.7972 72.4717 44.8314 72.4881 44.8519 72.7967C44.8997 73.5192 44.9229 74.2581 45.1018 74.9533C45.8543 77.8733 47.3594 80.4 49.389 82.5948C51.3133 84.6748 53.601 86.2318 56.2601 87.2985C60.0993 88.8391 63.9685 89.4304 67.9921 88.1753C70.1964 87.4883 71.7548 86.0297 72.9075 84.0643C73.7078 82.6999 73.9387 81.1949 74.134 79.6748C74.2951 78.4196 74.4276 77.1563 74.1381 75.9011C74.0233 75.4067 74.0616 75.2715 74.6284 75.4395C76.7549 76.0678 78.7325 77.0115 80.7047 78.0126C86.2674 80.8357 89.8499 85.2976 91.8248 91.1404C91.9327 91.4586 91.8958 91.7482 91.7797 92.0623C90.5013 95.5027 90.5409 99.055 90.8906 102.636C91.0053 103.819 90.937 105.002 90.5177 106.115C89.7392 108.177 89.5262 110.355 89.1397 112.497C89.0564 112.961 89.1451 113.519 89.8417 113.573C90.3921 112.501 90.6079 111.311 91.0217 110.19C91.4342 109.069 91.68 107.886 92.0242 106.739C92.6306 104.711 92.4803 102.646 92.2946 100.592C92.0774 98.1714 92.1334 95.7922 92.9392 93.4718C93.7901 91.0188 94.8718 88.6957 96.5872 86.7085C98.3204 84.7008 100.032 82.6753 102.024 80.9108C102.646 80.3604 102.95 79.5723 103.391 78.8881C103.55 78.6409 103.734 78.3117 104.017 78.3595C104.327 78.4114 104.483 78.7638 104.573 79.0793C104.752 79.7062 104.705 80.3208 104.552 80.9572C104.21 82.3858 103.385 83.5412 102.539 84.6912C102.42 84.8537 102.255 84.9685 102.06 85.0572C101.32 85.3932 100.738 85.9368 100.271 86.5869C99.9975 86.9666 99.7094 87.3859 99.8214 87.8994C100.017 88.7981 99.8855 89.5124 99.2587 90.3073C98.3094 91.5105 97.759 92.9814 97.2045 94.4264C96.8071 95.4617 96.5722 96.5434 96.1816 97.5786C95.9002 98.3257 96.1761 98.8392 96.9136 99.1643C98.8093 100 99.0319 99.9032 99.7681 97.9392C99.8705 97.666 99.9893 97.3983 100.126 97.0678C100.23 97.2153 100.306 97.2973 100.353 97.3929C100.588 97.8941 101.397 98.1454 101.317 98.607C101.239 99.0523 100.719 99.4675 100.467 99.9564C100.067 100.732 99.4936 101.423 99.3693 102.351C99.9798 101.584 100.641 100.852 101.19 100.044C101.944 98.9348 102.942 98.6412 104.195 98.8925C104.839 99.0222 105.093 99.5358 105.399 100.008C105.877 100.75 106.206 100.892 107.166 100.693C107.168 100.687 107.172 100.682 107.173 100.675C107.173 100.673 107.173 100.672 107.173 100.671C106.454 100.148 105.681 99.7311 105.476 98.8119C106.423 98.7436 107.354 98.9826 108.299 99.0127C108.427 99.0168 108.569 99.1247 108.662 98.969C108.748 98.8228 108.603 98.719 108.55 98.603C108.146 97.7425 107.343 97.4612 106.511 97.3232C105.754 97.1989 104.974 97.2153 104.204 97.1689C103.737 97.1621 103.263 97.2549 102.806 97.0856C101.475 97.0009 101.37 96.9135 101.135 96.0968C101.018 95.687 101.168 95.5313 101.497 95.3606C102.892 94.6327 104.408 94.7378 105.9 94.6955C106.764 94.6709 107.624 94.7119 108.49 94.6354C109.958 94.5056 110.891 95.4234 110.988 97.0501C111.099 98.9321 110.245 100.436 108.844 101.541C107.538 102.571 106.43 103.809 105.114 104.817C104.951 104.941 104.802 105.089 104.626 105.187C102.348 106.449 101.217 108.49 100.685 110.947C100.448 112.038 100.019 113.062 99.5072 114.05C99.2846 114.479 99.1631 114.886 99.4253 115.332C99.9415 115.986 100.258 115.459 100.508 115.099C101.35 113.886 101.87 112.508 102.257 111.104C102.665 109.622 103.267 108.259 104.526 107.373C105.978 106.352 107.348 105.238 108.657 104.055C109.772 103.047 110.947 102.073 111.597 100.634C112.266 99.1479 112.828 97.666 112.419 96.0012C112.374 95.8181 112.457 95.6966 112.542 95.5627C113.505 94.0358 113.581 92.375 113.169 90.6883C113.057 90.2294 113.108 89.8852 113.256 89.4782C113.745 88.1398 113.814 86.7863 113.235 85.4588C112.938 84.78 113.005 84.2269 113.515 83.671C113.994 83.1479 114.251 82.5183 114.304 81.7767C114.404 80.3986 113.498 79.4726 112.905 78.4032C112.796 78.2052 112.569 78.2147 112.358 78.2066C111.635 78.1765 110.922 78.2038 110.168 78.5453C110.29 77.9115 110.564 77.4554 110.829 77.0033C112.68 73.8484 114.103 70.5186 115.044 66.9799C115.28 66.0935 115.128 65.1252 115.675 64.3044C115.947 63.8974 116.185 63.321 115.802 62.9591C115.289 62.4756 114.811 62.9741 114.385 63.3046L114.382 63.2992ZM87.1361 18.6631C85.1366 17.6688 83.5441 16.0381 81.49 15.1299C83.7954 15.6461 85.3852 17.281 87.1361 18.6631ZM73.1766 14.6928C73.4647 14.462 73.8253 14.4552 74.1777 14.3965C73.9387 14.6327 73.6478 14.772 73.32 14.8431C71.5677 15.6584 70.1104 16.8494 68.8157 18.2752C67.5564 19.6629 66.1251 20.7869 64.2444 21.2895C63.1436 21.5831 62.2122 22.2059 61.7096 23.3477C61.0185 24.917 59.9614 26.1789 58.4263 27.0216C57.6245 27.4614 56.9512 28.0705 56.4172 28.8272C56.6617 27.9749 57.1834 27.2934 57.9387 26.8673C59.4752 26 60.5869 24.7722 61.3244 23.1893C61.8625 22.0325 62.7434 21.3032 63.9713 20.9658C66.2316 20.3444 67.8268 18.7669 69.4221 17.1785C70.5037 16.1023 71.7288 15.2241 73.1766 14.6915V14.6928ZM52.8184 25.085C52.6791 25.3445 52.5999 25.6231 52.563 25.9195C52.4974 26.4425 52.3035 26.9288 51.9839 27.3426C50.8066 28.8613 49.7195 30.4333 48.9492 32.232C48.8918 31.7991 48.9983 31.2719 49.3152 30.7365C49.9571 29.648 50.5772 28.5417 51.3461 27.5338C51.7668 26.9834 52.1014 26.3797 52.2093 25.7146C52.3923 24.5851 53.0765 23.7875 53.8168 23.0254C54.3849 22.4408 55.0269 21.9273 55.6387 21.3851C55.9651 21.0969 56.3298 20.8989 56.7737 20.8333C57.5535 20.7172 58.1094 20.231 58.4153 19.5563C58.8892 18.5129 59.7606 18.1018 60.7767 18.0062C61.9254 17.8969 62.8636 17.4981 63.7446 16.7333C64.8167 15.8032 66.0554 15.0848 67.3925 14.5644C67.551 14.503 67.7135 14.3828 67.9238 14.5044C66.248 15.4413 64.7907 16.6718 63.242 17.7685C62.5167 18.2821 61.6727 18.4446 60.8204 18.5197C59.8562 18.6044 59.131 19.0018 58.7417 19.9005C58.3894 20.7172 57.8581 21.2526 56.9171 21.2786C56.7901 21.2827 56.6521 21.351 56.5401 21.4206C55.0228 22.3603 53.6802 23.4802 52.8198 25.0863L52.8184 25.085ZM56.5046 10.6023C58.2132 9.98366 59.9764 9.64358 61.8011 9.65451C62.8705 9.65997 63.8839 9.93995 64.8822 10.3183C63.1272 10.1257 61.349 9.86757 59.6254 10.2486C57.9428 10.6201 56.1359 10.8072 54.7865 12.2522C55.0214 11.4682 55.5691 10.9411 56.5046 10.6023ZM52.1901 13.7928C49.4409 15.6502 47.3977 17.9393 46.2682 20.9877C46.2586 18.5675 50.2248 13.6863 52.1901 13.7928ZM44.8587 27.2907C45.4692 25.8102 46.4648 24.6151 47.7719 23.7001C48.702 23.0486 49.3439 22.1663 49.6648 21.127C50.3095 19.0401 51.6848 17.7084 53.6543 16.9231C54.2893 16.6705 54.863 16.4164 55.2085 15.7486C55.4325 15.3183 55.8245 14.9537 56.2629 14.7051C58.1982 13.6139 60.1676 12.6018 62.3474 12.0692C64.9123 11.4423 67.5045 11.4 70.1131 11.6581C70.2606 11.6731 70.4259 11.6526 70.5843 11.822C70.2524 12.0214 69.9151 11.9271 69.59 11.9094C64.8891 11.6485 60.4913 12.61 56.4841 15.149C56.0116 15.4495 55.7248 15.9275 55.4175 16.3686C55.1443 16.7606 54.8193 17.0215 54.3686 17.1676C53.2418 17.5323 52.1942 18.028 51.3734 18.9322C50.9541 19.3952 50.6004 19.8937 50.4106 20.4741C49.9366 21.9232 49.2483 23.2166 47.9849 24.1303C46.29 25.3554 45.192 26.9861 44.6224 28.9897C44.5746 29.1591 44.4708 29.3148 44.3848 29.4704C44.367 29.5019 44.3083 29.5114 44.2059 29.562C44.2687 28.7329 44.561 28.0036 44.856 27.2893L44.8587 27.2907ZM33.0981 59.8711C32.7648 61.3584 31.9945 62.5972 31.0194 63.7513C29.7342 65.2727 28.886 66.9881 28.9885 69.0559C28.9953 69.2075 29.0267 69.3782 28.8437 69.5503C28.7358 68.104 28.7727 66.73 29.4706 65.4544C29.924 64.6226 30.4116 63.8113 31.0207 63.0807C32.0751 61.8173 32.549 60.3027 32.8905 58.7334C33.1595 57.4933 33.684 56.3911 34.3696 55.3108C35.2751 53.8836 36.2776 52.4632 36.5152 50.7136C36.6095 50.0212 36.6532 49.3219 36.7228 48.6267C36.7556 48.2948 36.7843 47.9589 37.082 47.6939C36.899 50.1414 36.7911 52.5451 35.3707 54.6839C34.6346 55.7929 33.7386 56.8541 33.4969 58.2458C33.4026 58.7949 33.221 59.3275 33.0981 59.8725V59.8711ZM38.9094 59.4136C39.0077 60.4871 38.5707 61.3612 37.8441 62.0809C35.9908 63.9179 35.2505 66.1919 35.0702 68.7254C35.0197 69.4315 34.8148 70.1294 34.4229 70.7522C34.483 69.7606 34.8135 68.8183 34.8722 67.8226C34.9992 65.6387 35.8323 63.728 37.2609 62.0618C37.9862 61.215 38.3959 60.3191 38.4246 59.0776C38.4765 56.7394 39.0774 54.4558 40.1454 52.3334C40.2233 52.1777 40.323 52.0302 40.5907 51.9237C40.0935 53.1693 39.6538 54.363 39.3847 55.6072C39.1129 56.8609 38.792 58.1134 38.9108 59.4149L38.9094 59.4136ZM42.8865 61.693C42.7773 62.4852 42.5683 63.25 42.1381 63.9042C41.376 65.0638 40.8365 66.3011 40.5251 67.6464C40.4964 67.7734 40.42 67.8882 40.3107 67.992C40.4404 67.0346 40.6521 66.099 41.0673 65.2222C41.4224 64.4724 41.8117 63.7376 42.1886 62.9973C42.8264 61.7477 42.5547 60.4434 42.4003 59.1527C42.3293 58.56 42.3238 57.9904 42.5792 57.4291C42.4358 58.87 43.0873 60.244 42.8865 61.693ZM72.3503 80.2456C72.0771 81.2222 71.961 82.2369 71.4215 83.1452C70.1459 85.2908 68.2489 86.4585 65.8246 86.8095C61.9964 87.364 58.4003 86.5459 55.0869 84.6584C51.6889 82.7245 48.9314 80.0927 47.2119 76.5048C46.5932 75.2141 46.0865 73.8853 46.0128 72.4266C45.995 72.077 46.0729 71.8748 46.4444 71.8148C48.5668 71.4788 49.7591 69.9327 50.7738 68.2883C52.1314 66.0867 52.4469 63.5751 52.5452 61.0416C52.6094 59.3849 52.6122 57.7282 52.4251 56.077C52.3895 55.7642 52.4196 55.4446 52.4196 55.1278C53.9288 63.795 63.7951 73.5643 71.5199 75.1131C71.2044 76.3436 70.4737 77.4117 70.1391 78.6395C70.079 78.8607 70.0025 79.0752 70.0189 79.3019C70.0339 79.5095 69.8714 79.8127 70.1678 79.896C70.4068 79.9643 70.5693 79.7116 70.7004 79.5354C71.4202 78.5698 71.6141 77.3762 72.0771 76.2986C72.1987 76.0131 72.2533 75.6922 72.6302 75.445C72.6371 77.0989 72.7859 78.6873 72.3503 80.247V80.2456ZM84.3731 75.2401C85.015 73.8839 86.2046 72.8445 85.911 71.2124C86.3644 72.4116 85.5969 74.4043 84.3731 75.2401ZM90.2337 76.0036C90.1394 76.4707 89.9141 76.8777 89.6272 77.2601C89.7065 76.7711 89.8608 76.3095 90.1094 75.8779C90.5546 74.6351 90.2541 73.4947 89.7188 72.3433C89.014 70.8273 88.9211 69.2253 89.4661 67.6464C89.9168 66.3394 90.0534 65.0009 90.1217 63.642C90.1353 63.3757 90.0957 63.0957 90.4303 62.8348C90.4781 64.3904 90.5587 65.8887 90.0179 67.3063C89.3609 69.0272 89.3186 70.7235 90.0834 72.387C90.6379 73.5957 90.6857 74.7757 90.2364 76.0022L90.2337 76.0036ZM90.6475 53.1665C90.1531 55.192 89.5986 57.2024 88.8638 59.1527C88.0839 61.2205 86.979 63.1353 85.687 64.9135C84.4605 66.6002 83.2587 68.3075 81.9639 69.9477C79.8565 72.6165 77.1468 73.5411 73.8512 73.1027C71.341 72.7681 69.1721 71.5744 66.9678 70.4667C63.384 68.6653 60.4558 66.058 57.7816 63.0984C55.3205 60.3764 54.0531 57.1368 53.2186 53.6541C53.0683 53.0286 52.996 52.3676 52.619 51.7393C52.4988 52.0207 52.3213 52.246 52.3172 52.4741C52.2871 53.8945 51.3953 54.2264 49.8547 53.9409C47.7569 53.5517 46.4184 52.0999 45.3968 50.3298C44.2728 48.3822 43.4957 46.3008 43.4847 44.0336C43.4779 42.5135 43.7401 40.9852 44.5937 39.6782C45.6809 38.0133 48.6665 37.9259 49.994 39.5034C50.8558 40.5263 51.6111 41.6395 52.4155 42.7102C52.7843 43.2019 53.1353 43.7059 53.6939 44.0132C54.3522 44.3764 54.7196 44.33 55.1402 43.7059C55.8764 42.6119 56.2916 41.3854 56.3312 40.0688C56.3626 39.0486 56.4309 38.0229 56.2752 37.0027C56.1673 36.2993 56.5647 35.8022 56.9826 35.3173C58.6598 33.3697 60.5528 31.6256 62.2873 29.734C65.1294 26.6351 68.6245 24.3816 72.0348 22.0106C73.5822 20.9344 75.146 19.8787 76.1853 18.2288C76.7754 17.2905 77.0226 16.2512 77.2657 15.0616C77.9458 15.937 78.5645 16.7046 79.1491 17.4968C79.4249 17.8723 79.75 18.1619 80.1474 18.3995C82.401 19.7434 84.4564 21.34 86.2743 23.2371C88.0074 25.0467 88.9935 27.2784 89.869 29.5783C90.2774 30.6505 90.9056 31.6543 90.8428 32.8644C90.8373 32.9764 90.8496 33.0884 90.84 33.199C90.8373 33.2345 90.7868 33.2646 90.7445 33.3124C90.4344 32.5625 90.0834 31.8687 89.4634 31.3074C88.6302 30.5549 87.7807 30.3732 86.6594 30.6109C84.9659 30.9701 83.4198 31.7636 81.7317 32.1105C81.4818 32.1624 81.3712 33.0693 81.587 33.4148C81.8738 33.8737 82.3149 34.0772 82.8448 34.1018C83.4949 34.1318 84.0904 33.8955 84.6954 33.7098C85.6692 33.4107 86.6389 33.102 87.6264 32.8439C88.8283 32.5311 89.7188 33.1403 90.6024 33.7576C90.8114 33.9037 90.6885 34.2834 90.6461 34.5443C90.1121 37.8194 90.0479 41.0781 90.8264 44.3368C91.5311 47.2855 91.3686 50.237 90.6516 53.1665H90.6475ZM111.884 92.6455C111.82 93.1863 111.71 93.7149 111.415 94.3172C110.454 93.3406 109.303 93.1481 108.062 93.1767C106.727 93.2082 105.398 93.2437 104.055 93.0948C103.307 93.0115 102.491 93.3038 101.743 93.5414C101.195 93.7162 100.805 93.652 100.537 93.1727C100.265 92.6864 100.461 92.2494 100.813 91.8765C101.255 91.4081 101.759 91.0216 102.404 90.8864C104.753 90.3947 107.095 89.8525 109.514 89.817C110.926 89.7965 112.112 90.7088 111.884 92.6455ZM111.945 88.6424C111.865 88.8486 111.791 88.9593 111.506 88.8527C109.585 88.133 107.621 88.372 105.667 88.6588C105.174 88.7312 104.688 88.8404 104.188 88.8486C103.927 89.033 103.636 89.0071 103.342 88.9715C103.169 89.0153 102.984 89.0357 102.823 89.1054C102.224 89.3622 101.84 89.1628 101.559 88.596C101.266 88.0073 101.411 87.614 101.91 87.1919C103.411 85.9231 105.254 85.6541 107.078 85.2963C107.877 85.1392 108.673 84.9671 109.468 84.7964C110.85 84.4973 111.717 85.034 112.009 86.4339C112.162 87.1646 112.233 87.9144 111.947 88.6424H111.945ZM111.355 79.6898C112.713 79.6611 113.322 80.7237 112.832 81.9037C112.494 82.7163 111.988 83.2831 110.954 83.2831C109.226 83.2831 107.528 83.6218 105.848 84.0138C105.425 84.1135 105.364 84.0889 105.245 83.5959C104.888 82.1304 106.004 81.6469 106.841 81.0528C108.248 80.0531 109.951 79.9069 111.357 79.6898H111.355ZM112.938 69.4861C112.91 69.7046 112.81 69.7524 112.623 69.6541C112.583 69.6336 112.541 69.6172 112.5 69.5981C111.51 69.1488 111.49 69.1337 112.165 68.3061C112.616 67.7516 112.986 67.1247 113.676 66.5265C113.418 67.6287 113.062 68.5301 112.94 69.4861H112.938Z" fill="black"/>
<path d="M39.7368 93.9879C38.9023 90.1815 37.3644 86.7657 34.3871 84.1407C33.4269 83.294 32.3876 82.5305 31.0232 82.4567C30.7801 82.4431 30.4427 82.342 30.3444 82.6042C30.2242 82.9252 30.5998 83.0276 30.8033 83.1628C33.4693 84.9383 35.3062 87.3967 36.5627 90.2908C38.1088 93.8555 39.0621 97.5471 38.9378 101.491C38.8627 103.845 38.9214 106.203 38.6291 108.547C38.4284 110.155 38.2057 111.759 38.6291 113.37C38.6769 113.55 38.6701 113.752 38.8791 113.803C39.1427 113.867 39.2219 113.635 39.312 113.458C39.7122 112.672 40.0045 111.822 40.1083 110.969C40.4292 108.315 40.6819 105.652 40.701 102.973C40.701 102.11 40.7556 101.243 40.6901 100.385C40.5262 98.2314 40.1984 96.1021 39.7354 93.9879H39.7368Z" fill="black"/>
<path d="M87.2859 100.351C86.3749 97.359 86.043 94.2614 85.7507 91.1611C85.6674 90.2802 85.3492 89.4703 85.0801 88.6413C85.0214 88.461 84.9012 88.3927 84.7223 88.3941C84.4778 88.3968 84.5188 88.5743 84.5038 88.73C84.4696 89.0674 84.415 89.402 84.3822 89.738C84.2429 91.1679 84.441 92.5979 84.3918 94.0306C84.3549 95.0973 84.5543 96.1557 84.7455 97.1992C85.0337 98.7684 85.483 100.309 85.7289 101.882C86.1291 104.442 86.2247 107.03 86.1413 109.617C86.1058 110.715 85.9501 111.816 85.6196 112.874C85.5063 113.237 85.356 113.612 85.7985 113.804C86.2383 113.997 86.3831 113.569 86.547 113.295C87.6587 111.44 87.88 109.364 88.0316 107.257C87.9005 106.318 87.9906 105.358 87.9155 104.409C87.8089 103.043 87.6901 101.679 87.2859 100.349V100.351Z" fill="black"/>
<path d="M43.7975 99.4565C43.0258 102.077 41.9319 104.503 41.2749 107.075C41.1834 107.435 41.2107 108.109 41.4689 108.172C41.9428 108.285 42.1709 107.782 42.3334 107.332C43.0368 105.377 43.8412 103.46 44.2455 101.405C44.382 100.716 44.4927 100.097 43.7975 99.4579V99.4565Z" fill="#010101"/>
<path d="M44.6249 28.9921C45.1944 26.9899 46.2925 25.3578 47.9874 24.1327C49.2521 23.219 49.9405 21.9256 50.413 20.4765C50.6029 19.8961 50.9566 19.3976 51.3759 18.9346C52.1967 18.0291 53.2443 17.5347 54.371 17.17C54.8217 17.0239 55.1468 16.763 55.4199 16.371C55.7272 15.9299 56.0127 15.4505 56.4866 15.1514C60.4938 12.6111 64.8915 11.6496 69.5925 11.9118C69.9162 11.9296 70.2535 12.0224 70.5868 11.8244C70.4284 11.655 70.2631 11.6755 70.1156 11.6605C67.507 11.4037 64.9148 11.4461 62.3498 12.0716C60.1701 12.6042 58.1993 13.6149 56.2653 14.7075C55.8269 14.9547 55.4336 15.3194 55.211 15.751C54.8641 16.4188 54.2904 16.6715 53.6567 16.9255C51.6873 17.7109 50.3119 19.0425 49.6673 21.1294C49.3464 22.1674 48.7044 23.051 47.7744 23.7025C46.4673 24.6175 45.4717 25.8126 44.8612 27.2931C44.5662 28.0074 44.2739 28.7367 44.2111 29.5657C44.3135 29.5152 44.3722 29.507 44.39 29.4742C44.476 29.3172 44.5798 29.1628 44.6276 28.9935L44.6249 28.9921Z" fill="#FBFCFB"/>
<path d="M58.7398 19.8991C59.1277 19.0005 59.8543 18.603 60.8185 18.5183C61.6694 18.4432 62.5134 18.2821 63.24 17.7672C64.7902 16.6691 66.2461 15.4385 67.9219 14.503C67.7116 14.3814 67.549 14.5016 67.3906 14.5631C66.0549 15.0834 64.8148 15.8018 63.7426 16.7319C62.8617 17.4968 61.9234 17.8956 60.7748 18.0048C59.7587 18.1018 58.8873 18.5115 58.4134 19.555C58.1075 20.2297 57.5516 20.7159 56.7717 20.832C56.3292 20.8975 55.9632 21.0956 55.6368 21.3837C55.0249 21.9246 54.383 22.4381 53.8149 23.024C53.0746 23.7861 52.3904 24.5851 52.2073 25.7132C52.0994 26.377 51.7648 26.9807 51.3442 27.5324C50.5752 28.5404 49.9552 29.6466 49.3133 30.7352C48.9964 31.2719 48.8899 31.7991 48.9473 32.2307C49.7175 30.432 50.8047 28.86 51.982 27.3412C52.3029 26.9274 52.4955 26.4412 52.5611 25.9181C52.598 25.6217 52.6785 25.3431 52.8165 25.0836C53.6769 23.4775 55.0195 22.3575 56.5368 21.4179C56.6502 21.3482 56.7868 21.2799 56.9138 21.2758C57.8548 21.2499 58.3861 20.7145 58.7385 19.8978L58.7398 19.8991Z" fill="#FBFBFB"/>
<path d="M37.0807 47.6937C36.7843 47.9587 36.7556 48.2947 36.7215 48.6266C36.6518 49.3217 36.6068 50.021 36.5139 50.7135C36.2762 52.463 35.2738 53.8848 34.3683 55.3106C33.6826 56.3923 33.1582 57.4931 32.8891 58.7333C32.5477 60.3025 32.0738 61.8172 31.0194 63.0805C30.4103 63.8112 29.924 64.6225 29.4692 65.4542C28.7727 66.7298 28.7345 68.1052 28.8424 69.5502C29.0254 69.3767 28.994 69.2073 28.9871 69.0557C28.8847 66.988 29.7328 65.2726 31.018 63.7511C31.9932 62.597 32.7621 61.3583 33.0967 59.8709C33.2183 59.326 33.3999 58.7934 33.4955 58.2443C33.7359 56.8526 34.6332 55.7914 35.3694 54.6824C36.7884 52.5436 36.8977 50.1398 37.0807 47.6924V47.6937Z" fill="#FBFBFB"/>
<path d="M63.9696 20.9672C62.7418 21.3046 61.8609 22.0339 61.3227 23.1907C60.5852 24.7736 59.4735 26.0014 57.937 26.8687C57.1817 27.2948 56.66 27.9763 56.4155 28.8286C56.9495 28.0706 57.6229 27.4628 58.4246 27.023C59.9597 26.1817 61.0168 24.9184 61.7079 23.3491C62.2105 22.2073 63.1433 21.5845 64.2427 21.2909C66.1234 20.7883 67.5547 19.6643 68.814 18.2766C70.1087 16.8508 71.5646 15.6585 73.3183 14.8445C73.3415 14.7256 73.2404 14.727 73.1749 14.6929C71.7272 15.2255 70.5007 16.1037 69.4204 17.1799C67.8252 18.7683 66.2286 20.3458 63.9696 20.9672Z" fill="#FBFBFB"/>
<path d="M40.5887 51.9227C40.321 52.0293 40.2213 52.1768 40.1435 52.3325C39.0768 54.4549 38.4745 56.7385 38.4226 59.0766C38.3953 60.3181 37.9842 61.2141 37.259 62.0609C35.8317 63.7285 34.9973 65.6378 34.8702 67.8217C34.8129 68.8173 34.481 69.7597 34.4209 70.7512C34.8115 70.1285 35.0177 69.4305 35.0683 68.7244C35.2499 66.1896 35.9902 63.9156 37.8422 62.08C38.5687 61.3602 39.0058 60.4861 38.9075 59.4126C38.7886 58.111 39.1096 56.8586 39.3814 55.6049C39.6504 54.3607 40.0916 53.167 40.5873 51.9214L40.5887 51.9227Z" fill="#FAFAFA"/>
<path d="M90.0165 67.308C90.5573 65.8903 90.4781 64.392 90.4289 62.8364C90.0943 63.0959 90.1339 63.3759 90.1203 63.6436C90.052 65.0025 89.9154 66.3396 89.4647 67.648C88.9198 69.2269 89.0126 70.8289 89.7174 72.3449C90.2528 73.4963 90.5546 74.6367 90.108 75.8795C90.149 75.9219 90.1899 75.9628 90.2323 76.0052C90.683 74.7787 90.6352 73.5987 90.0793 72.39C89.3158 70.7251 89.3568 69.0288 90.0137 67.3093L90.0165 67.308Z" fill="#E0DFDE"/>
<path d="M64.8804 10.3203C63.882 9.94195 62.8686 9.66197 61.7992 9.65651C59.9759 9.64558 58.2127 9.98566 56.5027 10.6043C55.5672 10.9431 55.0195 11.4702 54.7846 12.2542C56.134 10.8092 57.9409 10.6221 59.6235 10.2506C61.3485 9.86957 63.1254 10.1277 64.8804 10.3203Z" fill="#F9F9F9"/>
<path d="M52.1896 13.7932C50.2242 13.6867 46.2594 18.5679 46.2676 20.9881C47.3957 17.9397 49.4403 15.6507 52.1896 13.7932Z" fill="#F9F9F9"/>
<path d="M42.5788 57.4292C42.3234 57.9905 42.3289 58.5601 42.3999 59.1528C42.5543 60.4421 42.8247 61.7464 42.1882 62.9974C41.8113 63.7377 41.422 64.4725 41.0669 65.2223C40.6517 66.0977 40.4414 67.0347 40.3103 67.9921C40.4196 67.8896 40.496 67.7735 40.5247 67.6465C40.8361 66.3012 41.3742 65.0638 42.1377 63.9043C42.5679 63.2501 42.7769 62.4866 42.8861 61.6931C43.0869 60.244 42.4354 58.8701 42.5788 57.4292Z" fill="#F6F6F6"/>
<path d="M112.163 68.3065C111.489 69.1355 111.508 69.1505 112.498 69.5985C112.539 69.6176 112.581 69.6326 112.621 69.6545C112.809 69.7528 112.909 69.705 112.936 69.4865C113.059 68.5304 113.414 67.629 113.673 66.5269C112.983 67.1251 112.614 67.752 112.162 68.3065H112.163Z" fill="#E4E3E0"/>
<path d="M81.4894 15.1309C83.5449 16.0391 85.136 17.6698 87.1355 18.6641C85.3846 17.2819 83.7949 15.6471 81.4894 15.1309Z" fill="#E7E6E5"/>
<path d="M84.3727 75.2401C85.5964 74.4028 86.364 72.4102 85.9105 71.2124C86.2042 72.8459 85.0146 73.8838 84.3727 75.2401Z" fill="#CFCECE"/>
<path d="M90.1107 75.8779C89.8607 76.3095 89.7078 76.7711 89.6285 77.2601C89.9154 76.8777 90.1407 76.472 90.2349 76.0036C90.1161 76.0377 90.0506 76.02 90.1107 75.8779Z" fill="#7C7C7C"/>
<path d="M90.233 76.0036C90.192 75.9612 90.151 75.9203 90.1087 75.8779C90.0472 76.02 90.1142 76.0377 90.233 76.0036Z" fill="#7C7C7C"/>
<path d="M73.3186 14.8436C73.6478 14.7712 73.9387 14.6319 74.1763 14.397C73.824 14.4543 73.4634 14.4612 73.1752 14.6933C73.3159 14.6551 73.3528 14.7166 73.3186 14.8449V14.8436Z" fill="#636463"/>
<path d="M73.3186 14.843C73.3528 14.7146 73.3159 14.6545 73.1752 14.6914C73.2408 14.7255 73.3419 14.7242 73.3186 14.843Z" fill="#636463"/>
<path d="M96.8739 106.455C96.2211 106.063 95.5286 105.73 95.0096 105.125C95.2268 105.982 95.6693 106.664 96.4232 107.102C96.6622 107.241 96.9395 107.353 97.1402 107.041C97.341 106.728 97.0802 106.579 96.8726 106.455H96.8739Z" fill="#050505"/>
<path d="M80.4657 55.2456C80.0491 55.46 79.6585 55.4231 79.3075 55.1814C78.6109 54.7047 77.8803 54.7402 77.1673 55.0434C74.5765 56.1456 72.7736 58.0946 71.4147 60.5024C71.2235 60.8411 71.0937 61.2017 71.1197 61.6032C71.132 61.7876 71.1224 61.9966 71.3109 62.0812C71.4748 62.155 71.6127 62.0048 71.7261 61.9037C72.0935 61.5732 72.536 61.3861 73.0045 61.3069C74.1872 61.1075 75.3604 60.8698 76.5718 60.8452C77.8953 60.8193 79.1969 60.9668 80.4984 61.117C81.7112 61.2345 82.6591 60.512 83.6984 60.0982C83.9251 60.008 84.0522 59.713 84.1232 59.4303C84.4086 58.3008 84.0467 57.2642 83.5919 56.2863C82.7752 54.5313 82.1838 54.3606 80.467 55.2442L80.4657 55.2456ZM81.998 58.9072C78.9619 58.2776 76.0119 58.5453 73.1738 59.8346C73.07 59.8824 72.973 59.9452 72.7777 59.7922C74.3129 58.4961 75.4082 56.7097 77.4896 56.1074C78.1029 55.9298 78.6424 55.9175 79.1873 56.2317C79.7609 56.5622 80.3728 56.6018 80.9573 56.3368C82.5594 55.6102 82.8079 56.2781 83.2546 57.7108C83.5796 58.757 83.092 59.1326 81.998 58.9058V58.9072Z" fill="black"/>
<path d="M72.1781 33.7386C74.3948 34.1279 76.2099 32.717 76.4325 30.2969C75.4464 31.8388 75.206 31.9331 73.3855 31.4906C72.749 31.3362 72.1126 31.1696 71.4898 30.9675C70.3753 30.6083 69.2212 30.4225 68.0713 30.5017C65.4285 30.6834 63.175 31.7391 61.4637 33.8096C60.8354 34.5704 60.3096 35.3994 60.188 36.5016C60.7671 36.2803 61.0881 35.887 61.435 35.5401C63.1122 33.867 65.1854 33.1746 67.4963 32.997C69.1229 32.8714 70.6225 33.4641 72.1768 33.7359L72.1781 33.7386Z" fill="black"/>
<path d="M82.2645 44.1691C81.7892 43.4466 81.4928 42.6408 81.3535 41.7708C81.1418 40.446 81.1691 39.1035 80.9834 37.7787C80.9547 37.5711 81.0899 37.2378 80.7922 37.1982C80.5299 37.1641 80.4931 37.4973 80.4275 37.6995C79.9591 39.1608 79.97 40.6591 80.224 42.1437C80.5395 43.9847 81.3139 45.6332 82.5622 47.0482C83.2779 47.8581 83.6234 48.7772 83.2943 49.8698C83.1276 50.4243 82.6578 50.7398 82.3218 51.1605C81.6444 51.9499 80.8209 52.193 80.011 51.8434C79.6094 51.6699 79.3035 51.3845 79.0535 51.0307C78.8582 50.9611 78.7394 50.8027 78.6138 50.6511C77.5785 50.0433 76.7044 50.397 75.8877 51.1045C75.2854 51.6262 75.1037 51.6098 74.6189 50.9706C74.3526 50.6196 74.2092 50.2386 74.2051 49.7783C74.1982 48.9357 74.6599 48.2446 74.9248 47.4606C73.4512 47.9537 73.0469 49.2552 73.219 50.5213C73.3897 51.7806 74.3485 52.7421 75.5558 52.9305C75.8549 52.977 76.1035 53.0138 76.0311 52.559C75.93 51.9226 76.3165 51.715 76.8697 51.6795C77.5143 51.6385 78.0456 51.8065 78.5031 52.3187C79.0399 52.9196 79.705 53.3908 80.5723 53.3293C83.6084 53.1135 85.53 49.2252 83.8092 46.7217C83.2424 45.8968 82.8094 45.0009 82.2617 44.1678L82.2645 44.1691Z" fill="black"/>
<path d="M70.4955 42.2805C70.6621 41.7997 70.6977 41.3149 70.7687 40.8218C70.8588 40.1977 70.5037 39.6636 70.4545 39.0682C71.1251 39.131 71.6728 39.3003 72.1003 39.7702C72.2451 39.9286 72.3598 40.2946 72.6562 40.0843C72.917 39.8986 72.9061 39.579 72.7805 39.2744C72.409 38.3689 71.7397 37.7543 70.8069 37.559C68.4223 37.0591 66.3996 37.854 64.661 39.4697C64.4001 39.7128 64.2048 40.0392 64.1775 40.4216C64.1611 40.6525 64.1706 40.8915 64.396 41.0294C64.6555 41.1878 64.803 40.9802 64.9778 40.8314C65.7754 40.1526 66.7164 39.7237 67.6793 39.3031C67.4075 40.1936 67.4567 41.0458 67.484 41.9103C67.5154 42.9183 68.4004 43.384 69.2854 43.4728C69.9246 43.537 70.1513 43.2802 70.4983 42.2818L70.4955 42.2805Z" fill="black"/>
<path d="M88.8634 38.0247C88.0753 37.4005 87.1357 37.1779 86.1796 37.2353C84.7114 37.3227 83.3784 37.7761 82.5754 39.1596C82.4893 39.3085 82.3063 39.4819 82.4443 39.6417C82.6041 39.8247 82.8198 39.6841 83.007 39.6062C83.4741 39.4123 83.9425 39.2224 84.6117 38.9479C83.7103 40.1853 83.7759 41.2615 84.385 42.3664C84.9108 43.3184 86.2384 43.4891 86.9199 42.6642C87.865 41.5183 87.5905 40.2577 87.2682 38.8728C87.7803 38.978 88.2611 39.0831 88.7446 39.1705C89.0177 39.2197 89.3236 39.6595 89.5039 39.3795C89.7047 39.0681 89.4069 38.6543 89.2267 38.3224C89.157 38.1954 88.9863 38.1244 88.8634 38.0274V38.0247Z" fill="black"/>
<path d="M50.2914 47.8266C50.1862 47.3363 50.1575 46.8433 50.2108 46.3407C50.3965 44.5925 50.0319 43.082 48.5036 41.9648C47.2225 41.0278 46.2596 41.0743 45.2394 42.2885C45.152 42.3923 45.0564 42.4906 44.958 42.5848C44.536 42.9891 44.5128 43.4698 44.6794 44.1759C44.9034 43.56 45.1711 43.1503 45.4798 42.7842C45.7516 42.4619 45.8772 41.7818 46.3416 41.9293C46.5628 41.9989 46.1271 42.664 46.0329 43.071C45.9714 43.3387 45.645 43.7184 45.8922 43.8454C46.3061 44.0571 46.2938 43.4944 46.4918 43.2909C46.586 43.194 46.6885 43.0943 46.7499 42.9768C47.0245 42.4619 47.3659 42.5329 47.7401 42.8484C48.1867 43.224 48.5705 43.6501 48.815 44.1882C47.6022 44.837 47.1597 46.4964 47.8344 47.8553C48.1294 47.3814 48.0215 46.8774 48.0242 46.3981C48.0283 45.8941 48.214 45.5281 48.6593 45.2863C48.9516 45.1279 49.1291 45.1484 49.1318 45.5335C49.1373 46.1918 49.1591 46.8501 49.1523 47.5084C49.1441 48.2555 49.4801 48.8209 50.0592 49.2429C50.5003 49.5639 50.9114 49.4942 51.3457 49.0285C50.6219 48.8687 50.4061 48.3825 50.2873 47.8266H50.2914Z" fill="#000101"/>
<path d="M80.15 62.6358C80.15 62.6358 80.147 62.6388 80.1455 62.6403C80.1485 62.6433 80.1515 62.6463 80.1545 62.6493C80.1545 62.6448 80.1515 62.6403 80.15 62.6373C80.15 62.6373 80.1485 62.6358 80.147 62.6343C80.147 62.6358 80.147 62.6388 80.1455 62.6403L80.15 62.6373V62.6358Z" fill="#797777"/>
<path d="M81.6439 62.6455C81.577 62.7111 81.5402 62.7862 81.5361 62.8832C81.4964 63.9662 81.2055 64.4169 80.1512 64.5098C78.8414 64.6245 77.5494 64.8389 76.2492 64.9987C75.9473 65.0356 75.6086 65.082 75.3614 64.7993C74.6335 64.9564 73.9601 64.5863 73.1379 64.5521C74.0885 65.6693 75.1975 66.2129 76.566 66.1801C77.6709 66.1542 78.769 65.9821 79.8794 66.0121C80.3779 66.0258 80.8013 65.7485 81.0922 65.3566C81.6918 64.5467 82.0619 63.6712 81.6439 62.6455Z" fill="black"/>
<path d="M76.2493 64.9982C77.5508 64.8398 78.8415 64.6253 80.1513 64.5093C81.2056 64.4164 81.4965 63.9657 81.5362 62.8826C81.5403 62.7857 81.5771 62.7105 81.644 62.645C81.39 62.4483 81.3231 62.462 81.349 62.8225C81.4242 63.8469 81.2234 64.1186 80.2182 64.3276C79.1747 64.5448 78.0862 64.4068 77.0496 64.7005C76.4951 64.8562 75.931 64.878 75.3615 64.7988C75.6073 65.0815 75.9474 65.0351 76.2493 64.9982Z" fill="black"/>
<path d="M69.475 36.0204C71.1686 36.1037 72.3527 37.0734 73.6051 37.8983C72.3022 36.3208 70.8244 35.2091 69.475 36.0204Z" fill="#111010"/>
<path d="M87.9484 43.2195C88.619 43.027 88.72 42.3809 89.1011 41.9917C88.6545 42.3168 88.0849 42.5448 87.9484 43.2195Z" fill="#3F3D3D"/>
<path d="M80.1455 62.6396C80.1455 62.6396 80.1537 62.6533 80.1578 62.6601C80.1564 62.656 80.1551 62.6519 80.1537 62.6478C80.151 62.6451 80.1482 62.6424 80.1455 62.6396Z" fill="#979493"/>
<path d="M80.1503 62.6359L80.1455 62.639C80.1471 62.639 80.1487 62.6359 80.1503 62.6343V62.6359Z" fill="#979493"/>
</g>
</g>
<defs>
<clipPath id="clip0_91_7811">
<rect width="199.109" height="117" fill="white" transform="translate(0.445435)"/>
</clipPath>
<clipPath id="clip1_91_7811">
<rect width="101" height="109.914" fill="white" transform="translate(15.0001 6)"/>
</clipPath>
</defs>
</svg>
