<svg width="181" height="117" viewBox="0 0 181 117" fill="none" xmlns="http://www.w3.org/2000/svg">
<g clip-path="url(#clip0_222_13789)">
<path d="M143.489 88.7891C142.754 89.3224 141.037 89.9296 140.834 90.9424L142.047 90.052C142.385 89.8938 141.967 90.5176 142.298 90.3046C142.773 90.0635 143.385 88.9511 144.02 89.2841C143.925 88.7062 144.385 89.0889 144.278 88.6463C144.24 88.6156 143.596 88.7445 143.489 88.7879V88.7891Z" fill="black"/>
<path d="M144.63 89.5827C144.114 89.9221 142.403 90.6033 142.365 91.199L143.759 90.6122L145.17 89.4131C144.646 89.1873 144.889 89.436 144.63 89.5815V89.5827Z" fill="black"/>
<path d="M180.512 107.341C181.253 91.3266 174.255 82.5731 159.722 76.7103C159.28 76.4245 158.867 75.7867 158.438 75.4435C158.563 74.9231 160.314 75.9576 160.669 75.9002C161.253 75.9002 162.715 75.1004 163.338 75.1233C163.408 75.1259 163.441 75.4856 163.732 75.4639L166.855 73.8502C166.932 74.1985 166.749 74.0684 166.602 74.1653C166.286 74.3745 165.295 74.8159 165.215 75.0863C165.175 77.2766 171.029 73.34 171.822 72.8846C181.045 65.9093 175.709 53.6988 172.888 44.7922C170.474 31.3163 167.993 10.4313 150.1 10.8179C136.721 0.399638 114.932 10.277 110.201 25.6754C108.036 32.0549 108.718 38.5913 107.499 45.1724C105.771 53.561 99.7848 64.339 108.06 70.8423C109.038 71.5694 111.296 72.9828 112.387 72.1256L110.346 69.2592H110.599C110.662 69.5934 111.042 69.7159 111.291 70.0348C111.632 70.4723 111.83 71.0081 112.192 71.4342C112.989 72.3692 115.438 74.0288 116.594 73.0211C116.394 72.9509 115.988 72.2825 116.403 72.4483C116.765 72.5924 117.354 73.104 117.826 73.3221C118.599 73.6793 119.617 74.0786 120.476 73.9663C120.857 73.9166 121.311 73.567 121.606 73.6142C121.801 73.6449 123.145 74.4638 123.526 74.6373C123.882 74.7993 124.286 74.9805 124.683 74.9996C125.048 75.1425 124.52 75.3109 124.453 75.3874C122.625 77.5139 118.834 78.1696 116.255 79.4414C108.019 83.5031 105.07 90.1671 103.031 98.7471C102.723 100.539 99.4787 113.696 101.858 113.466C102.601 113.423 102.661 112.365 102.783 111.766C104.909 97.8784 106.238 83.2237 122.207 78.9541C120.861 81.2439 119.001 85.076 119.173 87.728C120.892 88.7486 122.448 86.9448 123.827 86.122C124.053 85.988 125.155 85.3796 125.307 85.3617C125.328 85.3591 125.779 85.4472 125.589 85.5862L123.738 86.9881C124.546 86.8223 125.239 86.2444 125.843 85.7202C126.98 87.154 128.237 88.4424 129.853 89.357C130.4 89.7512 130.925 90.5676 131.631 90.4171C132.066 89.0343 129.072 86.608 128.278 85.4472C127.757 84.7838 126.605 82.6624 125.909 82.4456C124.842 82.3512 121.973 85.7635 121.188 85.8401C122.264 82.133 124.039 78.6097 126.415 75.5698L128.204 75.506C128.222 78.7577 128.836 82.2797 130.32 85.1895C130.843 86.2151 133.346 89.519 133.299 90.3737C128.194 96.368 127.992 105.213 126.943 112.708C126.867 113.409 126.466 115.82 126.979 116.211C127.673 116.739 128.528 116.138 128.683 115.339C130.19 106.55 129.122 96.0504 136.238 89.4731C140.877 85.0083 154.264 76.9718 153.079 69.7669C154.79 69.9034 156.07 75.0302 157.028 76.473C156.151 81.5922 152.47 86.4116 150.015 90.9401C148.323 90.2857 145.354 85.5377 143.582 85.7125C141.271 87.3938 138.621 88.8008 136.906 91.134C137.4 91.8956 137.863 91.0702 138.251 90.8176C139.604 89.9362 141.016 89.0215 142.554 88.5164L142.363 88.8991C142.756 88.9016 142.897 88.6197 142.744 88.2625L143.691 87.9985C144.212 88.6172 144.795 89.2039 145.488 89.5331C146.479 90.4082 148.441 92.7847 149.809 92.6839C152.992 90.6965 157.679 81.7006 158.438 77.9285C177.894 86.6999 178.841 95.1242 178.475 114.976C178.652 116.289 180.083 116.564 180.348 115.341C180.783 113.332 180.535 109.533 180.512 107.337V107.341ZM105.817 62.3694L105.759 61.3132L106.263 60.8399C106.423 61.5568 106.034 61.7711 105.817 62.3694ZM106.994 56.7323C106.44 56.8318 106.13 59.7505 106.121 60.2697C106.125 60.5695 106.499 60.3309 106.39 60.7098L106.002 60.6345L105.755 61.0912C105.951 59.503 106.153 57.1048 107.028 55.861C106.953 56.0179 107.014 56.6877 106.995 56.7298L106.994 56.7323ZM108.557 62.2418L108.43 61.8604C108.06 61.9829 108.292 62.4982 108.256 62.8172C108.235 63.0123 108.036 63.3988 108.074 63.5838C108.089 63.6604 108.253 63.6234 108.276 63.7076C108.292 63.7688 108.342 64.5622 108.051 64.2829C107.676 63.9219 108.225 61.0899 108.051 60.4559C108.662 60.6983 108.203 61.2532 108.179 61.7316C108.522 61.6754 108.297 61.0045 108.685 61.2825L108.559 62.2406L108.557 62.2418ZM110.088 63.6451C109.546 63.432 110.146 61.7903 109.963 61.2226C110.504 61.4815 109.957 63.0595 110.088 63.6451ZM160.053 61.4382C159.754 61.8221 160.053 63.6604 159.933 64.0073C159.897 64.0443 159.78 64.0226 159.716 64.029V64.2841L159.967 64.154L159.84 64.7931C159.372 64.487 159.432 64.001 159.696 63.5825L159.905 59.9444C160.041 59.9457 160.055 61.2876 160.053 61.4369V61.4382ZM162.778 60.1459C162.79 60.5095 162.533 62.2291 162.446 62.6845C162.408 62.8886 161.978 63.3427 162.521 63.1998C162.2 65.1975 161.934 67.5332 160.608 69.1303C161.116 67.5919 162.135 66.0075 162.049 64.3632C162.081 64.0928 162.543 63.7611 162.016 63.7688L162.01 63.5825L162.274 63.4473C161.97 62.9179 162.306 62.474 162.348 61.9472C162.466 60.4508 162.26 58.9277 162.426 57.4263L162.776 57.1405L162.523 59.0527L162.905 58.8639L162.507 59.887C162.445 60.0873 162.776 60.0681 162.779 60.1459H162.778ZM164.56 61.3489C164.801 61.0772 164.255 59.1803 164.814 59.5642C164.858 60.1561 164.694 60.7927 164.941 61.3489H164.558H164.56ZM165.858 32.9989C165.958 33.2272 166.158 33.3548 166.353 33.9569C166.374 34.0206 166.87 34.1367 166.408 34.3051C166.172 34.3906 166.219 34.1788 166.162 34.05C165.964 33.6073 165.809 33.1417 165.584 32.7106C166.088 32.2692 165.832 32.9389 165.858 32.9989ZM166.475 58.1598L166.347 54.3341L166.728 54.9706V53.9514L166.347 54.0777L166.093 48.5937C166.394 48.6664 166.255 48.7965 166.261 48.9483C166.32 50.4701 166.559 51.9537 166.809 53.4029C166.865 53.7294 167.031 54.7933 166.963 55.0076C166.879 55.2768 166.487 55.2959 166.731 55.736L166.86 55.4158L167.112 55.3546C166.906 55.9223 167.244 56.3943 167.292 56.8701C167.302 56.976 167.341 58.2771 167.114 58.0322L166.793 55.9924C166.365 56.2412 167.083 58.5897 166.475 58.1598ZM166.921 58.7083L166.602 58.7976V58.286L167.111 58.5399L166.983 58.1598L167.348 58.3715L167.365 60.072C167.279 60.1638 167.11 60.1817 167.148 59.91C167.181 59.6752 167.089 58.7364 166.92 58.7057L166.921 58.7083ZM167.369 61.7316L166.985 60.2021H167.494L167.369 61.7316ZM168.684 52.9577C168.399 52.0303 168.285 50.8388 168.133 49.8693C168.78 50.6143 168.638 52.3288 169.025 53.3123C168.694 53.385 168.753 53.1835 168.684 52.9577ZM168.826 53.9476L168.962 53.4411C168.957 53.9221 169.207 54.3647 169.271 54.7895C169.336 55.227 169.271 55.9299 169.336 56.3126C169.373 56.5295 169.734 56.5933 169.665 56.8828H169.281C169.551 57.2043 169.409 57.5296 169.456 57.8153C169.536 58.309 169.893 58.2031 169.028 58.6687L169.41 58.096H169.153C169.086 57.6202 169.322 56.5626 169.259 56.1774C169.246 56.1009 169.047 56.1353 169.026 56.032C168.974 55.7896 169.116 55.1173 169.153 54.8405L168.901 54.9706L168.828 53.945L168.826 53.9476ZM169.212 66.5803C169.178 66.7168 169.231 67.0281 168.963 66.963C168.892 66.9452 169.058 65.6044 169.086 65.4858C169.183 65.0559 169.907 64.0469 169.282 63.6463V64.922C168.823 64.9972 169.153 64.8607 169.153 64.7306V62.8809C169.674 62.7483 169.195 63.4588 169.535 63.5175L169.665 62.3082C169.276 62.016 169.495 62.6972 169.155 62.7534V61.4777L169.41 62.1168H169.792V61.1601L169.537 61.2239C169.405 60.8667 169.863 60.9713 169.888 60.7863C169.961 60.2416 169.345 59.1981 170.046 58.7989C170.064 61.4675 169.873 64.0035 169.213 66.5803H169.212ZM171.512 67.9797C171.034 67.8305 172.26 66.0407 171.705 65.1758H172.212C172.179 65.5152 171.684 67.967 171.512 67.9797ZM172.215 60.5835C172.664 60.683 172.374 62.0786 172.468 62.497C172.045 62.0926 172.198 61.1397 172.215 60.5835ZM172.533 50.5084C174.308 54.7474 175.282 59.9457 174.509 64.5367C174.181 64.39 174.419 63.4907 174.517 63.205L174.253 63.0697L174.639 63.0047C174.561 62.6488 174.375 62.3362 174.255 62.0479C174.22 61.965 174.44 62.0237 174.502 61.8898C174.718 61.4292 174.4 61.2634 174.391 61.0236C174.376 60.6205 174.435 60.0464 174.512 59.6408L174.253 59.4979L174.493 59.4163L174.51 58.6675L174.257 58.7963L174.137 58.3396L174.382 58.221C173.979 57.9263 173.912 57.4722 173.804 57.0129C173.669 56.4325 173.47 56.0371 174 55.7347L173.739 55.6493C173.752 54.0764 172.927 52.45 172.492 50.9243C172.469 50.8426 172.224 50.4829 172.533 50.5046V50.5084ZM171.578 57.8408L172.071 57.7949L172.34 59.563C171.794 59.341 172.08 58.9902 172.085 58.5437L171.577 58.6713L171.455 58.2172L171.959 58.2873L171.578 57.8421V57.8408ZM170.684 45.0218H171.063L171.328 46.0985C170.822 46.2669 171.004 46.5565 171.447 46.2975V46.6815L171.192 46.9353C170.74 46.6776 171.034 46.0487 171.064 45.6609L170.683 45.9135L170.944 45.342L170.683 45.0218H170.684ZM170.493 50.8898C170.832 51.4282 170.734 52.0838 170.938 52.6745C170.526 52.4346 170.108 51.2725 170.493 50.8898ZM169.79 47.1904C169.583 48.3143 170.479 49.2876 170.3 50.5059C170.044 50.4561 170.092 50.2354 170.046 50.0594C169.993 49.6206 169.079 47.1114 169.79 47.1904ZM169.331 45.4415C169.374 45.7132 169.808 46.0641 169.343 46.4238L168.772 43.4235L169.025 43.3622C169.074 44.06 169.221 44.754 169.331 45.4403V45.4415ZM168.393 31.9388C168.532 32.4363 168.722 33.2081 168.786 33.7081C168.804 33.8484 169 33.9365 168.643 34.05L168.133 31.4987C168.377 31.5433 168.345 31.764 168.393 31.9388ZM167.874 49.1703C167.623 48.4049 167.639 47.568 167.262 46.8384L167.431 46.2975C167.79 47.3729 167.922 48.4993 168.13 49.6129C167.874 49.567 167.927 49.3361 167.873 49.1703H167.874ZM167.552 29.0801L168.004 30.9884C167.283 30.2537 167.179 28.4346 166.858 27.4179L167.552 29.0813V29.0801ZM166.855 27.0339C166.284 26.5122 165.948 25.5057 165.837 24.739L166.855 27.0339ZM164.176 27.6717L165.582 31.8801L165.834 31.3711L165.962 32.3904L165.834 32.0064L165.326 32.1352L163.924 27.7317L164.177 27.6692L164.176 27.6717ZM163.793 27.9269C163.399 27.8707 163.673 27.2112 163.65 27.1768C163.15 27.0747 163.067 26.4981 162.867 25.9879C162.709 25.6588 162.31 25.4368 162.392 24.9942C163.014 24.887 163.029 25.7532 163.169 26.169C163.515 26.738 164.092 27.2061 163.793 27.9269ZM162.327 18.4896C162.538 19.0241 163.251 19.3813 163.029 20.0178C163.313 19.9234 163.557 19.8635 163.538 20.273C163.088 20.2564 162.963 20.1327 162.621 19.8826C162.516 19.7436 160.872 18.4501 161.307 18.3608L162.264 19.2525L162.329 18.4896H162.327ZM160.541 16.7024C160.756 16.9831 161.068 17.1642 161.316 17.3989C161.41 17.4882 161.44 17.6184 161.623 17.5979C161.659 18.3034 160.82 17.1999 160.607 17.0864C160.397 17.5061 161.461 17.788 160.737 17.848C160.803 17.5291 160.436 17.6375 160.382 17.5724C160.155 17.3045 160.289 16.8938 160.541 16.7037V16.7024ZM161.196 21.9211C161.913 22.2617 162.156 23.2248 162.391 23.9724C161.756 23.9851 161.783 23.4519 161.881 22.9531L161.117 23.207L161.498 22.5704H160.863L161.054 22.1877L161.372 22.3791L159.461 20.3355L159.97 20.1467L159.853 20.6378C160.388 20.8866 160.781 21.4772 161.198 21.9211H161.196ZM161.114 35.0705C160.64 34.5998 160.257 33.8918 159.969 33.2846C160.511 33.6864 160.984 34.411 161.114 35.0705ZM159.076 24.4826C159.922 25.4942 160.445 26.8183 160.859 28.0544C160.663 28.0225 160.618 27.8172 160.543 27.6705C160.02 26.6334 159.478 25.5631 159.076 24.4826ZM158.726 18.7613C158.933 19.0343 159.225 19.3724 159.585 19.3826L159.331 19.5714L159.714 20.0166C159.092 19.986 158.762 18.9629 158.363 18.4985C157.845 17.8964 157.187 18.0278 157.674 16.9563L157.926 17.154L157.68 17.6604C157.902 17.8722 158.53 18.2881 158.664 18.3812C158.678 18.3952 158.613 18.6095 158.727 18.7613H158.726ZM153.27 23.4634C153.671 23.707 153.434 24.105 153.589 24.4826C153.107 24.5719 152.805 24.2198 152.569 23.8473L153.334 24.2275L153.27 23.4634ZM153.296 20.6952L152.441 20.148C152.817 20.0497 154.452 21.2488 153.846 21.5486L153.296 20.6952ZM153.908 29.0762C154.236 29.2217 155.142 30.4527 155.375 30.7333C155.205 30.4131 153.494 29.3071 153.908 29.0762ZM154.866 18.3621C155.004 17.4257 154.269 17.765 154.231 17.7217C154.383 17.2152 153.468 17.0494 153.463 16.5749C154.315 16.9104 157.568 20.0753 157.544 20.9108C157.359 21.1417 157.26 20.7335 157.215 20.6697C156.704 20.0918 155.685 18.1222 154.865 18.3608L154.866 18.3621ZM157.287 16.9563L156.523 16.5698L156.649 16.3236C156.061 16.247 155.592 15.5939 155.12 15.2342L156.396 15.812L156.277 16.0519C156.737 16.1781 157.278 16.395 157.287 16.9563ZM155.822 20.1467C156.281 20.6633 156.856 20.9516 157.17 21.5754C157.435 21.8739 158.082 22.1278 157.609 22.4403C157.516 21.7872 155.407 20.4962 155.823 20.1467H155.822ZM158.04 14.6742L158.054 15.2979L157.417 14.979L157.671 14.8527C157.434 14.5045 157.125 14.7864 156.78 14.7877L157.23 14.2787L158.04 14.6742ZM154.739 13.2569C155.313 13.4087 155.924 13.5082 156.204 14.0236L156.331 13.7672L157.032 14.1473L156.771 14.3999C156.268 14.0478 155.883 14.3591 155.506 13.7161C155.389 13.6473 154.631 13.7327 154.739 13.2569ZM149.46 12.7798C149.63 12.7224 150.574 12.5642 150.656 12.6204L150.526 12.8742C151.053 12.7441 150.835 13.1523 150.987 13.2684C151.237 13.535 152.718 13.4585 152.697 14.0223L152.886 13.7684C153.083 14.4841 154.127 13.8514 154.208 14.6461C153.913 14.6499 153.946 14.8272 153.965 15.0938C154.024 15.3094 154.68 15.1321 154.481 15.6819C154.286 15.7278 154.386 15.5097 154.267 15.4255C153.875 15.15 153.584 15.3579 153.84 14.6065C153.712 14.2966 153.186 14.5976 152.82 14.4739C152.483 14.345 152.473 14.0899 152.222 13.9253C151.96 13.7531 150.551 13.2658 150.178 13.1625C150.094 13.1383 148.7 13.0388 149.459 12.7836L149.46 12.7798ZM146.512 14.5351L146.572 14.7877C147.142 14.9982 147.36 14.1588 147.416 14.1435C147.729 14.0542 149.873 14.3986 150.229 14.581C150.497 15.1844 153.291 15.6118 152.825 16.5761C153.214 16.145 153.681 16.3925 153.08 16.6399C153.446 16.9678 153.64 17.08 153.463 17.5967L153.781 17.3428C154.054 17.4857 153.853 17.7 153.872 17.7906C153.894 17.8901 154.177 17.7931 154.099 18.0419C153.88 18.57 153.44 17.4449 152.953 17.5954C152.909 17.3492 153.25 17.5329 153.323 17.4589C153.376 17.404 153.314 17.0902 153.333 16.9601L152.974 17.0698C152.861 16.7624 152.172 16.0927 152.183 16.7037L151.931 16.5111L152.312 15.9396C151.877 15.8516 152.223 16.3108 151.803 16.1935C151.959 15.5033 150.521 15.4038 150.058 15.002C149.923 14.9152 149.67 14.2608 149.484 14.8885L147.677 14.271L147.21 15.1729L146.063 14.9165L146.512 14.5377V14.5351ZM149.712 16.7522L148.743 16.1922C149.419 16.1871 151.571 17.2229 150.401 17.9768C150.718 17.3033 150.045 17.2089 149.712 16.7522ZM148.997 25.632C148.605 26.206 149.873 26.8234 150.145 27.1615C149.947 27.1781 149.901 27.3031 149.698 27.1755C149.636 27.0684 147.324 24.9584 147.785 24.8679C148.073 25.1472 148.177 25.4457 148.614 25.2506L148.549 25.6333H148.997V25.632ZM145.734 21.6864C145.873 21.9058 146.138 22.661 146.341 22.8C146.374 22.823 146.517 22.6967 146.55 22.7197C146.619 22.7669 146.756 23.198 146.955 23.272L146.702 23.3333L146.826 23.6586L147.466 23.7823C146.828 24.1178 146.29 23.7338 146.573 23.0794C146.565 23.0654 146.388 23.1738 146.318 23.133C145.903 22.5883 144.415 20.4758 144.279 19.6352C144.817 20.264 145.292 20.9899 145.735 21.6864H145.734ZM147.082 28.6923L145.042 26.3323L145.679 26.2711L145.425 26.5874C145.965 27.2584 146.837 27.8542 147.081 28.6935L147.082 28.6923ZM144.021 23.9724L144.147 23.5897L144.404 24.2964L144.148 24.4163C144.197 24.6561 144.926 25.0031 144.468 25.3743L143.513 23.906C143.489 23.4021 143.964 24.0183 144.021 23.9711V23.9724ZM139.048 12.4928C139.343 12.628 139.463 12.2555 139.488 12.2555C140.715 12.4839 141.908 12.415 143.13 12.6216C142.463 13.2212 141.735 12.5897 140.884 12.5068C140.433 12.4966 139.705 12.679 139.229 12.739C138.978 12.7709 139.044 12.7097 139.049 12.4941L139.048 12.4928ZM138.602 12.1101L138.558 12.5974C138.619 12.6688 138.929 12.5464 138.792 12.8742H137.645C137.7 12.2721 138.358 12.8844 138.602 12.1101ZM138.154 8.66584C138.172 8.86229 137.679 8.83295 137.534 8.84188C135.483 8.96307 133.526 8.94394 131.489 9.46057C130.966 9.71315 130.61 10.0831 129.991 9.81393L129.927 10.1928L129.61 9.94022L129.737 10.3216C129.43 10.1826 129.325 10.5742 129.269 10.5831C128.859 10.6457 128.141 9.56007 128.333 10.7043L127.825 10.3867C131.024 8.91077 134.646 8.56252 138.155 8.66584H138.154ZM132.498 17.2063C132.325 17.8097 132.41 17.4525 132.116 17.5214C131.981 17.5533 131.291 17.8097 131.393 17.9755L131.648 18.2307L131.01 18.1044L131.142 18.3582H130.755L130.884 18.7409C130.321 18.7703 128.728 19.1721 128.842 19.8903C128.797 19.9349 128.544 19.7653 128.412 19.7895C128.372 19.7972 127.746 20.1467 127.72 20.1773C127.568 20.3572 127.936 20.6786 127.312 20.4005L127.438 20.782H126.419C128.631 19.4527 132.906 16.3644 135.475 15.937C135.441 16.1616 135.217 16.1565 135.063 16.2253C134.236 16.594 133.323 16.8223 132.498 17.2063ZM133.152 20.2513C132.994 20.5268 132.102 20.6531 132.055 20.6901C131.861 20.8445 131.691 21.3841 131.138 21.2922C131.642 20.5409 132.496 20.5 133.115 19.8903C133.236 19.9081 133.195 20.176 133.152 20.25V20.2513ZM120.781 25.086C120.649 25.2608 120.103 25.1102 120.165 25.5031L119.657 25.248C119.583 25.1447 121.498 23.7147 121.825 24.1038C121.791 24.7352 120.922 24.6676 120.824 24.7658C120.773 24.8168 120.832 25.0197 120.781 25.0873V25.086ZM121.32 20.347C121.12 20.3776 120.993 20.0829 120.934 20.1454C121.009 20.708 120.5 20.6493 120.228 20.9082C119.57 21.5346 118.959 22.5666 117.999 22.823L121.508 19.3813C122.023 19.4004 121.38 19.8163 121.315 20.0166L122.102 19.3953L122.463 19.5076L122.345 19.1364L123.212 18.635L123.484 18.8723C123.546 18.9884 121.481 20.3227 121.322 20.347H121.32ZM117.484 20.3355L117.548 20.1416C119.671 17.9666 121.87 15.5658 124.632 14.1511L123.919 14.7902L123.994 15.1691L123.613 14.9152C123.799 15.2023 123.139 15.5837 123.102 15.5531C123.055 15.5135 123.207 15.2482 122.975 15.2979C122.937 16.1144 121.754 16.1488 121.444 16.7662L121.953 16.8287C121.665 17.3313 121.271 17.4423 120.806 17.0826C120.816 18.4335 119.341 18.3646 119.019 18.9948C119.651 19.0254 119.032 19.491 118.643 19.3877L118.575 19.7487L118.255 19.6339L118.381 20.1429L117.872 20.0166L117.746 20.6531L117.484 20.3342V20.3355ZM117.743 26.5249C116.95 27.4421 115.699 28.0302 114.556 28.4359C115.012 27.807 115.942 27.659 116.618 27.275C116.995 27.0607 117.293 26.5479 117.745 26.5249H117.743ZM124.377 23.2082C124.451 23.5973 124.251 23.3996 124.077 23.4761C123.586 23.6917 123.118 24.0017 122.592 24.0999C122.966 23.6139 123.78 23.3422 124.377 23.2082ZM124.627 24.4137C125.777 23.7223 126.885 23.1496 128.204 22.9531C126.816 23.8295 125.155 24.4392 123.611 24.9916C123.803 24.6382 124.279 24.6076 124.627 24.4137ZM127.567 16.5736C127.248 16.7547 126.776 16.4792 126.673 16.8287L126.927 16.9563C126.224 16.9512 125.808 17.8505 125.142 17.5941C125.105 17.3721 125.391 17.5023 125.516 17.3977C126.954 16.3057 128.372 15.5352 129.988 15.1729C130.06 15.5429 129.88 15.3758 129.708 15.46C129.085 15.7636 128.452 15.8235 128.094 15.9638C128.057 15.9791 127.937 16.4639 127.437 16.1935L127.565 16.5749L127.567 16.5736ZM128.093 20.8585C127.625 21.1749 127.034 21.3853 126.609 21.8038C126.442 21.2973 126.178 21.4989 126.419 21.93C125.99 22.0193 126.326 21.5346 125.91 21.8038C125.573 21.342 128.032 20.6927 128.331 20.5281C128.403 20.8508 128.251 20.7513 128.093 20.8585ZM134.71 15.2967L134.843 14.7902C135.68 14.9267 136.479 14.1766 137.387 14.2774C137.478 14.6997 136.821 14.4956 136.49 14.5912C136.229 14.6665 134.785 15.3553 134.71 15.2967ZM137.07 12.8742C134.943 13.2722 133.077 13.8271 131.139 14.7877L131.639 14.3871L131.523 13.896C132.213 14.5861 132.773 13.7161 133.273 13.5427C134.676 13.3794 136.077 12.5591 137.517 12.6216C137.465 12.8729 137.257 12.8398 137.07 12.8742ZM116.54 18.1133C116.657 17.9704 117.339 17.1515 117.395 17.1183C118.166 17.0622 117.812 16.8912 118.246 16.2483C120.757 14.3884 123.307 11.9723 126.358 10.9658C126.681 10.8523 127.096 10.3025 127.311 10.8332C126.737 11.0998 125.825 11.1687 125.461 11.6993C124.805 12.0285 124.608 11.9494 123.729 12.5502C123.46 12.7339 123.137 12.6688 123.229 13.0031L123.61 12.9393L122.912 13.3692L122.591 13.2595C122.537 13.3143 122.725 13.5286 122.694 13.623C122.667 13.7072 121.462 14.4471 121.262 14.6729C120.804 15.1921 121.597 15.0313 121.189 15.238C120.498 15.5875 120.454 14.7494 121.059 14.6601C121.197 14.0223 119.892 15.0262 120.157 15.2916L119.783 15.3005C120.089 15.9409 119.716 15.849 119.527 16.3172C119.078 16.3873 119.355 15.7597 118.765 16.0659L119.147 16.2547L118.264 16.9027C118.131 17.325 118.671 17.3045 118.636 17.4015C118.468 17.714 116.742 19.389 116.469 19.2512L116.66 18.6146C116.301 18.8545 116.02 19.6479 115.576 19.6339C115.512 19.5599 116.421 18.2587 116.54 18.112V18.1133ZM114.609 20.7756L115.449 20.2743C115.419 20.6812 114.808 21.0409 114.707 21.1965C114.609 21.3483 114.849 22.6495 114.039 21.7272L114.61 20.7756H114.609ZM111.585 27.3146C111.694 26.5492 112.014 25.2365 112.706 24.8666L112.767 25.1179C111.967 25.3284 111.947 27.1092 111.684 27.798C111.403 27.6105 111.554 27.5212 111.583 27.3133L111.585 27.3146ZM112.387 63.7739L112.645 63.9818L112.641 65.431C112.164 65.1631 112.282 63.3274 112.261 62.7534C112.492 62.7126 112.33 62.9779 112.42 63.0991C112.537 63.256 113.313 63.7688 112.388 63.7739H112.387ZM116.085 68.1111C116.585 68.0779 117.005 69.3638 117.232 69.7682C116.63 69.3778 116.297 68.7617 116.085 68.1111ZM150.621 73.1142C147.11 79.6111 139.553 83.5056 134.647 88.7766C134.54 88.8506 134.521 88.9539 134.328 88.9016C131.51 83.452 130.565 82.0029 130.245 75.6361C132.595 75.95 134.942 74.5314 137.26 74.2342L137.196 74.7406C137.605 74.0429 137.707 73.8566 138.403 73.974C138.434 73.9332 138.357 73.7278 138.438 73.627C142.621 71.4801 147.009 68.8854 150.396 65.431C150.308 66.2703 150.253 67.0727 150.279 67.9223C150.332 69.6865 151.275 71.5018 150.618 73.1142H150.621ZM154.388 65.6618C154.315 65.8685 154.453 66.0024 154.099 65.9399C154.143 65.2447 154.49 64.7447 154.723 64.0724C154.791 63.8785 154.608 63.7063 154.991 63.7739C154.866 64.4206 154.605 65.0419 154.386 65.6618H154.388ZM156.267 66.579C155.843 66.6033 156.787 64.5929 156.746 64.1872C156.878 63.7854 156.619 62.5008 157.032 62.3707C157.032 63.8377 156.871 65.223 156.267 66.579ZM155.475 53.9399C155.325 53.8698 155.404 53.4985 154.92 53.8136C154.844 53.8226 154.913 53.3518 154.676 53.6975C153.297 64.0596 139.884 72.6396 130.052 73.4675C121.103 74.0556 119.644 68.2246 116.107 61.7749C113.859 57.6763 111.832 55.2079 111.494 50.187C111.241 46.4314 112.421 43.2857 112.64 39.7266C112.657 37.1013 112.481 33.3292 113.314 30.8966C116.78 28.7994 121.195 28.2356 125.008 26.7099C131.13 24.452 135.239 21.0498 140.322 17.3415C139.211 25.1 146.55 31.3099 150.843 36.6064C151.03 37.0835 151.042 38.2813 151.202 38.9255C151.359 39.5544 151.75 40.7153 151.997 41.3199C152.347 42.172 153.969 45.0295 155.121 44.4504C156.23 43.3112 157.854 39.6475 159.913 39.2891C168.792 38.9472 162.705 57.4798 155.475 53.9399Z" fill="black"/>
<path d="M95.9732 60.6037C95.5573 60.341 94.5955 60.1968 94.4296 60.0412C93.7638 58.7694 93.6961 58.2629 91.9817 57.8343C90.9599 57.7284 90.9407 57.9351 90.4445 56.9477C89.0757 55.417 87.0258 55.2907 85.2143 56.1173C86.2183 53.3478 87.3753 49.9444 87.3689 47.0104C87.1355 44.8469 84.9567 43.4169 83.1669 45.0778C82.0979 46.0703 80.983 49.7811 80.5582 51.2711C80.2227 52.4498 79.1563 58.0167 78.7149 58.4849C73.8789 61.5694 75.1661 69.319 78.8259 72.8831C78.2621 75.2979 76.4608 84.8985 72.8061 83.2618C69.5149 81.8867 67.0925 77.2484 66.0745 74.0389C70.5406 66.9208 64.2439 58.5984 56.201 61.3449C51.5678 59.1189 51.2438 59.6189 46.2573 59.5411L46.0978 59.3766C46.0455 58.939 45.9996 55.6619 46.2637 55.6006C50.5881 55.6568 54.933 55.4297 59.2574 55.2179C62.9441 55.0011 61.7003 53.4435 62.134 50.572L62.1264 36.3447C65.7173 37.0578 69.4193 37.105 73.0549 37.0297C74.4619 37.054 75.9174 37.2224 77.3053 36.9838C77.0859 38.7685 76.5884 40.5607 75.8256 42.1999C75.6444 42.5877 74.1749 44.6352 75.5577 44.5956C79.9497 44.1938 83.4718 40.8848 85.3713 37.068L89.4865 36.9889C108.779 39.5517 105.566 24.4238 105.375 10.7641C104.651 -1.09687 96.1211 0.316551 86.8013 0.248942C71.6631 0.917382 54.0362 -5.04373 57.2776 17.3375L41.4596 17.0837V9.30223C43.9025 9.05092 44.7278 5.57605 43.1868 3.9394C39.1966 -0.118445 33.6041 6.95631 39.2961 9.62114L38.8955 17.0684C33.3005 16.9179 27.7387 16.5454 22.136 16.5747L12.3429 18.7726L11.6961 19.6567L11.4805 29.136C8.65116 32.4081 8.53762 38.5133 11.8135 41.506C12.1936 44.1109 10.5417 52.3005 12.7218 53.5405C17.781 54.6375 22.7956 56.1976 28.0665 55.7371C27.8714 57.208 27.9607 58.7247 28.0665 60.2006C24.7766 60.3448 21.4472 60.2797 18.179 60.7096C15.2029 60.864 11.5482 60.6548 8.67029 61.151C7.47118 61.3577 7.56558 61.9649 7.78244 63.0071C0.837805 62.6984 -1.79003 71.7248 2.42089 76.4715C0.641355 87.474 1.24729 99.1411 1.28811 110.258C1.48456 111.701 2.98472 112.084 3.17862 110.625C3.20924 110.39 2.95411 110.503 2.93752 110.385C2.86609 109.885 3.24623 108.663 3.06509 108.039C3.62637 108.109 3.82282 108.645 4.33946 108.55L4.2119 108.93C4.95433 108.521 5.82177 109.03 6.63563 108.674C6.78233 107.884 2.39665 108.831 3.19776 106L3.57535 105.998L3.44778 107.017C3.96825 106.781 3.81517 107.104 3.98228 107.244C4.08561 107.321 6.45704 108.094 6.25421 107.4C5.21838 107.514 4.65072 106.861 3.79093 106.507L3.70419 106.124C5.96847 106.999 8.36669 107.041 10.5914 105.996C10.7828 107.091 10.3057 110.604 11.1387 111.315C12.7702 112.075 12.3748 109.193 12.3709 108.247L12.6337 108.1L12.6274 107.912C12.3276 108.081 12.3722 107.336 12.3977 107.299C12.4513 107.221 12.8213 107.123 12.9718 106.971C13.218 106.724 13.4068 106.375 13.7168 106.113C13.8584 105.993 14.0344 106.241 14.227 105.615C14.6161 106.079 14.1109 106.624 13.7767 106.939C13.7282 106.985 13.5675 106.895 13.5458 106.916C13.519 106.942 13.1593 107.455 13.1414 107.486C12.9131 107.911 13.1325 108.529 12.6325 108.867C12.5967 108.962 13.0534 108.858 12.8889 109.184L12.5062 109.311L12.8213 109.567C14.1479 108.762 13.4846 108.503 15.319 108.1C15.4759 107.999 15.2182 107.628 15.5116 107.537L16.4581 107.401C16.7758 108.546 14.699 109.529 14.5485 110.146C14.4388 110.59 14.9261 110.135 14.9899 110.128C15.1519 110.112 15.356 110.306 15.5052 110.294C16.0997 109.924 17.3026 107.833 18.1177 107.659C17.9009 107.886 18.0591 108.573 17.9723 108.668C17.4735 108.608 16.9633 109.533 16.8383 109.954L16.3318 109.827C16.8013 110.278 16.3382 110.34 16.3318 110.846C16.4505 110.969 17.4085 110.15 17.4889 110.029C17.7363 109.655 17.3983 109.108 17.8601 109.189L17.9889 110.848C17.7504 110.723 17.5769 110.792 17.6075 111.102C17.8499 111.085 18.1037 111.372 18.3053 111.366C18.3754 111.363 18.3486 111.158 18.4341 111.132C18.6191 111.077 19.0809 111.089 19.0783 111.364C19.2327 111.384 19.3513 111.341 19.4687 111.242C20.7022 97.0108 19.3041 82.0755 20.1588 67.7308C33.6475 67.5076 47.4181 67.2384 60.8584 66.1299C61.5881 68.5179 60.9043 71.2044 60.9719 73.6575C60.8405 85.0605 61.2436 96.4559 60.7946 107.851C60.8086 108.517 60.7091 110.071 61.4847 110.262C64.4723 110.872 61.7896 93.4045 62.893 90.6938C76.8971 106.977 91.002 93.3573 91.0122 75.8886C91.1448 75.4689 92.3644 74.8566 92.8019 74.4879C94.8889 72.8206 95.8252 69.967 96.1148 67.468C97.5065 65.64 98.3306 62.1371 95.9744 60.6076L95.9732 60.6037ZM21.4319 29.2024L21.1142 28.9485L19.521 30.6068C19.6039 29.8797 20.456 29.3567 20.854 28.8158C21.0581 28.539 20.9318 28.1027 21.3043 28.1831L21.4319 29.2024ZM21.3069 38.6434L21.4319 39.5351C21.2992 39.4611 21.1245 39.4216 21.0517 39.6015C20.9127 39.9433 21.5658 39.6372 21.4319 39.9803L20.9242 40.6258L20.4126 40.4268L20.604 40.0466L20.7303 40.3043L21.0505 40.1066C20.507 39.4726 21.2877 39.3514 21.3056 38.6434H21.3069ZM20.5951 43.3544L20.9229 43.172L20.6678 42.8531L21.3043 42.9819L21.0505 43.3608L21.4319 43.6172L20.7941 43.4922C21.0568 43.8532 20.0453 44.4987 19.9011 44.3826L20.1575 43.6185L20.6665 43.746L20.5951 43.3557V43.3544ZM21.2788 27.072C20.5887 28.0466 20.6014 27.072 19.7238 28.8988C19.6498 29.0008 18.9342 29.8772 18.8831 29.8415L18.5068 29.1577C18.7403 28.6615 19.4559 28.7074 19.137 28.1831L19.5171 28.4382L19.3857 28.0007L21.2405 25.6331L21.2775 27.0733L21.2788 27.072ZM16.8383 39.664C16.1813 39.5938 16.7987 39.4114 16.9671 39.1524C16.453 39.4841 15.4185 38.9764 15.3062 39.5338L15.0575 39.345C15.4083 38.9674 15.5499 38.6741 15.5652 38.1319L15.8165 38.1357C15.6876 38.7863 17.7338 38.0541 18.1152 38.0043C18.1713 38.5911 17.2503 38.2531 17.096 38.6422C17.1355 38.956 17.6879 38.8628 17.6049 39.0861C17.5144 39.3144 16.4569 40.7393 16.2043 40.3643C16.4262 40.1296 16.439 39.8272 16.8408 39.9165V39.6627L16.8383 39.664ZM13.3034 26.9343C13.3481 26.8679 13.5866 27.0006 13.5254 26.7161C13.1912 26.6039 13.2511 26.4865 13.269 26.1421L13.778 26.3959L13.9043 25.8857C14.1326 26.4176 13.6606 27.1575 13.269 27.544C13.2894 27.3578 13.2014 27.0835 13.3034 26.933V26.9343ZM13.9068 24.4812L14.2729 24.5883L14.2895 24.3574L14.861 24.6087L14.6709 24.1635L15.3075 24.0985L15.1812 23.7171L15.4899 23.8523C15.5499 23.8587 15.6022 23.3382 15.8178 23.5895C15.8637 23.6431 15.2042 24.6508 15.1442 24.7044C14.9784 24.8524 14.1811 24.6738 14.9248 25.0552L14.2245 26.012C13.9221 25.8908 14.1824 25.5183 14.162 25.503C14.1007 25.4596 13.6708 25.6229 13.6798 25.1624C13.6836 24.9468 13.9579 24.7414 13.9056 24.4799L13.9068 24.4812ZM13.3915 27.8884C13.7499 27.4037 13.7448 28.0275 14.0982 27.9293C14.1479 27.9152 14.1543 27.7162 14.1811 27.7047C14.3036 27.655 15.2679 27.8782 15.0562 27.1116L14.7985 26.9062C15.1213 26.7786 15.1774 26.8386 15.4338 27.0325C15.6328 26.2952 16.0563 25.6356 16.6648 25.2006C17.0896 24.7963 18.3219 22.3419 18.7517 22.4401L17.4085 24.6062C17.0067 24.7899 17.022 25.0527 16.8408 25.3052C16.5729 25.6777 15.1429 27.794 15.0141 27.8846C14.6863 28.1155 13.8686 27.993 13.4616 28.3081C13.2716 28.178 13.2473 28.0811 13.3915 27.8872V27.8884ZM19.6473 23.4619C20.4216 23.5627 19.7799 24.161 19.3908 24.1023C19.7365 24.7006 19.1051 24.7567 18.8002 25.1688C18.6701 25.2453 18.1956 26.6357 17.9876 26.2696C17.8473 26.1 18.5732 25.1381 18.6739 24.869C18.7237 24.735 18.8219 24.4148 18.8729 24.263C18.8857 23.541 19.1255 23.3803 19.6409 22.9006C19.7429 22.8458 20.0848 22.995 20.2213 22.6991C20.5211 23.0894 19.6026 23.1213 19.535 23.2259L19.5197 23.8459L19.646 23.4632L19.6473 23.4619ZM16.254 36.2095C17.0054 36.1138 17.758 35.9965 18.4966 35.8357C18.8806 37.2032 16.4709 36.6037 15.819 36.7287V35.3255C16.6826 35.601 17.6853 35.337 18.4341 35.0678C18.7913 35.0142 18.6943 35.4569 18.3116 35.5959C18.0527 35.6903 17.8601 35.5576 17.6764 35.5934C17.4544 35.6367 17.2784 35.763 16.9952 35.8153C16.7949 35.8523 16.6189 35.726 16.5168 35.7299C16.4875 35.7299 16.3612 36.0985 16.0754 35.9633C16.0703 36.1789 16.004 36.2401 16.2553 36.2082L16.254 36.2095ZM18.3078 36.73L18.0999 37.7339L15.6927 37.8768L15.8267 36.9927L17.7338 36.9864L17.7937 37.2389C17.9915 36.8575 17.8001 36.8818 18.3065 36.7312L18.3078 36.73ZM18.6204 34.8101C17.6713 34.9581 16.7834 35.3165 15.819 35.0703C15.9568 33.361 15.629 31.2294 14.5447 29.8415C17.8601 29.1131 18.5668 32.1363 18.6204 34.8101ZM14.9873 40.673C15.2616 40.6768 15.532 40.4191 15.819 40.4293C15.8892 40.7955 15.7195 40.6334 15.5409 40.7176C15.0664 40.9396 14.81 41.02 14.2895 40.8108C14.352 40.1449 14.6429 40.6679 14.9873 40.673ZM16.9875 42.8697L18.2428 41.705C18.2466 42.1527 17.6968 42.5278 17.4212 42.8595C17.2044 43.1222 17.2401 43.5993 16.7133 43.4884C16.9135 43.1503 17.249 43.357 16.9875 42.8684V42.8697ZM17.3485 46.68C18.0833 46.8331 17.9341 46.0384 18.2428 46.2973C18.4839 46.6048 17.6585 47.115 17.4786 47.2541L17.7325 47.5717L17.3575 47.5679L17.2171 47.0079L17.4404 46.9084L17.3485 46.6813V46.68ZM18.1943 48.2108L19.4559 46.8076L19.4597 47.3293L19.1497 47.3332C19.086 47.3893 18.9074 48.6216 18.7224 48.818C18.6204 48.9264 18.2963 48.9443 18.1764 49.1038L18.0527 48.8448L17.4786 49.1025C17.4417 48.517 18.3193 48.6624 18.1943 48.2108ZM20.6652 19.1247L20.2851 18.9959C20.2774 19.348 20.1792 19.7332 19.7735 19.7651L20.2213 19.8927L20.2838 20.144C19.4801 20.1261 19.2722 20.6389 18.8755 21.1964C18.5706 21.6237 18.7683 21.6122 18.7364 21.6607C18.6905 21.7283 18.2542 21.7589 18.3691 22.1863L18.1165 21.9324C18.1382 22.2718 16.9021 23.7005 16.712 23.9722C16.786 23.3089 17.4404 22.7884 17.7848 22.3036C18.1598 21.9554 20.4726 17.548 20.6639 19.1247H20.6652ZM18.1139 20.2728C18.1573 20.4884 18.0093 20.6109 17.9098 20.769C17.7057 21.0943 16.7247 22.5154 16.5155 22.6991C16.3688 22.8279 16.2196 22.6991 16.0818 22.7616C15.8994 22.8471 15.8394 23.1443 15.5639 23.0767C15.6838 22.9746 15.9389 22.4784 15.9721 22.4567C16.7452 22.7552 17.3996 20.6861 18.1139 20.2715V20.2728ZM17.4774 20.019L16.3854 21.6684L15.3113 22.8254C15.6762 22.3725 16.9237 19.9794 17.4786 20.0202L17.4774 20.019ZM15.5639 20.6568C15.7195 21.278 15.259 21.3456 15.0753 21.6288C14.5064 22.5039 13.954 23.3101 13.4336 24.2069C13.3417 24.3638 13.5076 24.559 13.1402 24.4825C13.3455 24.1814 13.2103 23.837 13.2703 23.5512C13.5012 23.2693 14.0433 22.9045 13.2677 22.444C13.4514 22.5575 13.6122 22.7131 13.7793 22.8267L14.3546 22.444H13.9068L14.0395 21.9337L14.7232 21.9465C14.8483 21.5548 14.7373 21.4222 15.1787 21.2308L14.7373 21.1696L14.6748 20.9145C15.0154 20.7499 15.1008 20.5445 15.5652 20.6568H15.5639ZM13.2741 20.9438C13.1491 20.7206 13.0802 20.3404 13.394 20.2728C13.6555 21.8317 13.8418 20.0508 14.5434 20.1465L13.269 21.9299L13.1389 21.2933C13.991 21.2716 13.3302 21.0446 13.2741 20.9425V20.9438ZM12.6988 30.3543L13.0113 30.6043L11.4831 32.2652C11.5061 31.9195 12.5202 30.3925 12.6988 30.3543ZM12.1196 33.412L11.7382 33.2219C12.5074 32.9119 12.7575 31.1299 13.5229 31.2447C13.7002 31.5636 12.3684 32.7015 12.7562 33.1518C12.1158 33.0854 12.1873 33.8036 11.8709 34.2284C11.7816 34.3241 11.6234 34.1736 11.5482 34.296C11.3976 34.5384 11.5099 35.078 11.2305 35.1979L10.9805 34.5052C11.515 34.2947 11.5788 33.3406 12.1222 33.412H12.1196ZM11.3568 37.6216L11.1693 36.471L13.6492 33.1569C13.8647 33.5855 12.533 34.6609 12.635 34.8101C12.6554 34.8395 12.9692 34.74 12.8838 35.0053C12.1873 35.3637 11.9551 36.0488 11.3492 36.5527L11.5456 36.9838C11.8148 36.8805 11.7599 36.1393 12.1209 36.4123L11.3555 37.6216H11.3568ZM12.1222 39.2787C11.5265 38.396 12.0941 38.8016 12.1847 38.6536C12.1962 37.8678 12.5189 38.026 12.7613 37.7888C13.1937 37.3652 12.8633 36.929 12.6899 37.2377C12.6465 37.3155 12.8149 37.4622 12.6924 37.4941C12.5687 37.526 12.2753 37.5451 12.3748 37.304C12.6006 37.0272 13.991 35.0729 14.287 34.9428L14.1671 35.5232L13.01 36.7925C13.0254 37.4201 14.051 36.0539 14.0344 35.8357C14.9911 35.8128 13.1619 37.2224 13.0866 37.6318L12.1209 39.2774L12.1222 39.2787ZM12.3748 39.5364C12.8378 39.6831 12.8021 39.1231 13.0942 39.0414C13.9706 38.7991 12.9692 40.6028 12.3748 39.5364ZM13.3991 43.6682C13.3506 43.3723 13.5841 42.7102 13.3966 42.3428L14.6709 42.5979C14.6225 42.7357 14.2589 43.0176 14.1581 43.047C13.9693 43.1018 13.5037 42.4296 13.7793 43.6172L14.6084 42.9806C15.2373 43.1222 14.4605 43.4705 14.4107 43.5445C14.0739 44.0522 13.9323 44.8916 13.3953 45.2755C13.1478 44.7997 13.6543 43.9961 13.6543 43.8098C13.6543 43.7295 13.4132 43.7677 13.3966 43.6695L13.3991 43.6682ZM13.5152 51.8362L13.3876 45.9925L13.9158 45.7348L15.1838 44.0024L15.4363 44.0649C15.495 44.8788 14.4337 44.9439 14.4158 45.7858C14.6403 46.009 15.3509 45.0867 15.5014 45.0217C16.3918 44.7704 13.7359 47.3166 13.8226 47.3472L13.6504 48.7198L13.778 48.2108C14.065 48.2861 13.917 48.7045 14.2857 48.5935C14.1939 48.0297 14.6569 47.9493 14.8699 47.6661C14.9286 47.3383 14.9771 46.9811 15.4363 47.0614C15.4912 47.0079 15.2552 46.7387 15.3662 46.5512C15.4567 46.3981 16.1686 45.8764 16.2655 45.5319C16.3765 45.9338 16.2298 46.1978 16.7107 46.3598C16.2081 46.555 16.3127 46.9594 16.0078 47.3166C15.6596 47.36 15.9096 47.1763 15.9453 46.9977C16.0512 46.4708 15.6353 47.249 15.5907 47.3217C15.2782 47.8358 15.4312 47.7669 15.2718 48.1789C15.2169 48.318 14.3699 48.7466 14.227 48.9838C14.3342 49.7263 13.2384 50.3041 14.0293 50.8897C14.0688 50.5873 14.4337 50.4368 14.6722 50.1868C15.0613 49.7773 14.7883 49.7671 15.5613 49.3602L16.5806 47.957L16.6495 48.8512C16.2987 49.2632 16.3344 48.434 15.981 48.8895C15.7795 49.1484 16.0525 49.1025 15.5613 49.3602L16.0716 49.5502C15.9032 49.8475 15.606 49.5834 15.4338 49.6727C15.3891 49.7492 13.6338 51.3655 14.5383 51.1448C14.5345 50.8489 15.5078 49.9495 15.6876 49.8704C15.3445 50.6856 14.4286 51.0542 14.4094 52.0365L13.5127 51.8375L13.5152 51.8362ZM16.0563 52.275L14.5447 52.164C14.7398 51.9957 16.9658 49.3691 17.2222 49.4877L17.4225 50.3858L15.8203 51.0198L16.0027 51.266L16.5831 50.8897C16.7005 51.3833 16.0614 51.3859 15.9453 51.849L16.203 51.9714L16.055 52.275H16.0563ZM16.3306 52.3554C16.8013 51.8911 17.4646 51.9561 17.8601 51.3349L17.6062 51.0823L18.1803 50.507L18.244 50.8897C18.2644 50.9177 18.7989 50.5414 18.8206 50.5095C19.1612 49.8972 18.1216 50.3195 18.9456 49.614C18.9648 49.9049 18.9023 50.1383 19.2633 50.2518L19.5809 49.6178L19.9011 49.9317C19.4929 50.1128 19.0426 50.8986 18.7505 51.0848C18.6063 51.1754 18.2874 50.979 18.0731 51.132C17.9136 51.2456 17.9532 51.8183 17.4799 51.7839H18.1165C17.619 52.3669 17.1317 52.9256 16.3306 52.3554ZM18.9329 53.0493C18.7811 53.0825 18.4124 52.7202 18.1152 52.9282C18.1879 52.5531 18.6816 52.5123 18.8372 52.3758C19.5898 51.7176 19.6689 51.4752 20.1486 50.6919C20.4968 50.123 21.09 50.4381 20.4394 50.9522L20.6639 51.3987L20.2098 51.3821C20.1078 51.6946 19.0847 53.0162 18.9303 53.0493H18.9329ZM21.3056 53.5685L20.0299 53.4397L20.8923 53.1552C21.1793 52.8644 20.8221 52.025 21.4319 52.039L21.3056 53.5698V53.5685ZM20.7481 45.6468C20.4433 46.5486 19.8003 46.1864 20.4114 45.7233L21.4319 44.6403C21.562 45.6825 21.1308 45.3801 20.7494 45.648L20.7481 45.6468ZM20.9778 35.6992C20.6461 36.0768 20.3871 36.5157 20.0312 36.8563C20.1703 36.559 20.4815 35.7286 20.6588 35.5334C20.8157 35.3612 21.5709 35.4594 20.6703 34.879L21.1793 34.0498L21.4255 34.3573L21.053 34.7514C21.0594 34.8497 21.3579 34.8905 21.4115 34.9696C21.6526 35.3319 21.1079 35.55 20.979 35.698L20.9778 35.6992ZM21.0505 32.3915C21.8439 32.7002 21.1296 33.8457 20.5402 33.7934C20.5517 33.1543 21.3936 33.0535 21.0505 32.3915ZM20.9229 31.2434L20.729 31.1146L20.0299 32.3902L19.9304 31.7039L20.0886 31.4896C20.692 31.5559 20.3693 30.8071 20.6869 30.6298C20.7851 30.575 21.2035 30.9691 21.178 30.0966C21.9205 29.9805 21.09 31.3225 20.9229 31.2434ZM90.8323 59.3128C96.1186 59.5679 89.7518 69.5192 88.1675 66.1566C89.2416 63.9574 90.5415 61.7914 90.8323 59.3128ZM85.8904 57.4975C90.3744 55.94 89.3577 60.0565 88.2797 62.6933C88.1381 63.0185 86.8472 65.4359 86.7158 65.5303C86.2578 65.7102 84.5038 65.9168 84.3227 65.242C88.6994 64.1552 90.0656 60.1024 85.1136 58.5767C84.2142 58.5423 85.6787 57.6532 85.8917 57.4975H85.8904ZM83.4068 47.8689C83.6989 47.2132 84.4171 45.4771 85.3024 46.4632C86.3816 48.1215 84.5765 52.9932 84.1326 54.9717C83.9948 55.4233 83.1797 57.9325 82.8442 58.0103L80.6233 57.7769C81.6119 54.5572 82.0342 50.9547 83.4068 47.8689ZM62.9173 72.6012C62.9453 72.5757 63.6253 72.4252 63.6546 72.4481L63.7171 72.8296L64.929 72.0654C65.0004 72.8793 62.1583 74.0848 62.916 72.6012H62.9173ZM62.8905 72.3206V71.6815C63.2949 71.9098 65.1484 70.8804 65.3129 71.0449C65.3818 71.1138 65.1905 71.758 65.0642 71.869C64.9813 71.943 63.1775 72.3065 62.8905 72.3193V72.3206ZM64.1661 73.2135C63.9493 73.5886 63.166 74.2532 62.7642 73.7838L64.1661 73.2135ZM64.4213 76.0174C64.11 75.3681 63.5998 76.2241 63.1469 76.0837C63.7158 75.7278 64.2082 75.1296 64.9315 75.1257L65.0463 76.1335L63.6342 76.6667C63.4058 77.1017 63.1813 76.8045 62.7655 76.7828L64.4225 76.0174H64.4213ZM62.8369 78.8213C62.8994 78.7396 63.0869 78.7307 63.1265 78.6708C63.1839 78.5853 62.916 78.2396 63.2719 78.1886L63.4633 78.4424L63.7834 78.1235L63.5296 77.9347C63.9212 77.9105 64.2988 77.8084 64.5488 77.4857C64.0016 77.4232 63.4186 77.802 62.9543 78.0597L62.9122 77.5699L64.7415 76.5302C64.8359 76.4945 64.7338 76.9525 65.0578 76.7853L65.3129 76.2751L65.8245 77.677L64.2542 78.3404L62.7629 79.4629C62.856 79.3086 62.7808 78.894 62.8356 78.8213H62.8369ZM58.9321 12.4199C59.1095 4.61804 60.9234 2.60252 68.8172 2.28105C74.1876 2.06292 79.6895 2.25299 85.0332 2.28743C89.1956 2.31549 97.2412 1.62537 100.692 3.8399C104.075 6.00977 103.411 12.124 103.446 15.618C103.483 19.4347 103.75 23.8485 103.463 27.6129C102.721 37.4507 91.6564 34.8025 84.7436 35.1686C84.0025 35.3637 83.5649 36.9609 83.1988 37.5821C81.8415 39.891 79.8732 41.7445 77.3079 42.5967C77.8921 41.0161 79.7903 36.6241 78.5835 35.263C75.8192 35.1647 64.6585 35.1443 62.1825 34.3152C62.046 30.5558 62.1634 26.7812 62.1225 23.0218C62.1034 21.6671 62.319 19.5635 62.097 18.3274C61.8712 17.0709 60.0483 17.4549 59.0674 17.4677C58.913 15.8131 58.8964 14.0999 58.9347 12.4212L58.9321 12.4199ZM40.4084 4.60656C42.0936 4.35526 42.7429 6.91293 41.2045 7.57882C39.018 8.52536 37.9618 4.97012 40.4084 4.60656ZM23.4729 54.0788L23.0902 18.3593L60.4668 19.126C60.3328 28.4689 60.7372 44.2805 60.1619 53.3262C50.9428 54.1375 32.9433 53.9716 23.4729 54.0788ZM39.2285 57.2666C39.4173 57.2973 39.6214 57.2717 39.6737 57.5205C36.8991 57.523 33.9511 57.7782 31.2506 57.083C31.0222 57.0396 29.4034 56.8521 29.7249 56.5013L30.8526 56.7283L30.8755 56.5038C31.2786 56.9439 31.6639 56.6097 32.1078 56.6645C32.8247 56.7526 33.3656 57.1952 34.3848 57.2513C34.9869 57.2832 36.2753 57.0294 36.5496 57.046C36.6185 57.0498 36.9744 57.4899 37.4375 57.3955L37.44 57.0128L37.6339 57.3942L37.8814 57.3853C37.801 57.0421 38.9517 57.2233 39.2272 57.2679L39.2285 57.2666ZM40.9506 56.8852C41.4583 57.125 41.7849 56.838 42.1829 56.8049C42.5247 56.7768 44.4829 56.9873 43.8208 56.2487C43.5274 56.6811 43.1957 56.3903 42.8347 56.403C42.2926 56.4222 41.7249 56.4298 41.207 56.6301L41.0794 56.1198C42.1 56.2423 43.3106 56.1938 44.2673 55.7371L44.1933 56.7717C42.762 57.1429 41.2988 57.4618 39.8038 57.3942C39.7668 57.0434 39.8102 57.1914 39.9977 57.1455C40.2771 57.0778 40.6483 56.8916 40.7593 56.8801C40.7937 56.8763 40.869 57.3113 41.2057 57.1391L40.9519 56.8865L40.9506 56.8852ZM41.0782 55.7371C41.7211 55.8851 43.4126 55.3532 43.7557 55.8634C43.0975 55.8634 42.438 55.8647 41.7785 55.8634C41.6509 55.8634 41.147 56.0828 41.0782 55.7371ZM44.266 57.9057L44.2494 59.4187C41.0029 60.6114 37.3163 60.554 33.9358 60.0731L37.889 59.8179L37.1249 59.4378L38.0817 59.5641L38.0166 59.8192L39.2923 59.6917C38.9478 59.2605 36.5828 59.2171 35.8493 59.1839C36.0317 59.6572 36.6861 59.3051 36.9961 59.6291L35.4666 59.4352L35.7204 59.1827L34.9563 59.0551L35.2102 59.3077H34.8288V58.9263C37.9936 59.0283 41.2223 58.8178 44.2686 57.9057H44.266ZM30.2453 58.8497C30.6548 59.2095 30.9967 59.1457 31.5108 59.1814C31.109 60.0004 30.2964 58.9747 29.7262 59.1801V57.9057L32.4037 58.5448L31.8208 58.7859L31.6958 58.5372L30.3117 58.6813C30.1216 58.1647 29.7236 58.3918 30.2453 58.851V58.8497ZM29.7249 60.4558L30.489 60.5897L30.2976 61.2212L30.2339 60.8385C29.3039 61.0706 30.4367 61.3347 30.5872 61.4992C30.6102 61.5235 30.4597 61.7684 30.748 61.9202C31.0146 62.0605 31.5886 61.8564 31.8093 61.8973C31.9904 61.9304 32.1512 62.1958 32.3578 62.2187C32.5606 62.2404 32.7456 61.9993 32.9752 61.9955C33.9792 62.1065 35.7026 62.7264 36.8647 62.6244L36.7359 61.9878H36.4833L36.6096 62.4981C36.3736 62.4139 36.2128 62.2123 36.357 61.9891L35.3365 61.8603L35.0813 62.2417C35.3811 61.7391 35.0265 61.9457 34.8262 61.6064C37.875 61.9598 41.1254 61.5681 44.0759 60.8385C44.3438 60.8244 44.2392 60.8385 44.2673 61.0273C45.372 63.5824 36.6657 62.9382 35.2752 62.8808C34.5366 62.8144 31.0873 62.322 30.6204 62.0478C30.392 61.9138 30.1216 61.3462 29.6062 61.3385L29.7249 60.4583V60.4558ZM9.34894 64.5672C12.2804 65.5813 13.4986 68.0433 13.3953 71.0436L12.5036 71.1738C12.5636 71.5156 13.2958 71.0679 13.3953 71.1738L13.2652 71.6164C11.7752 72.0501 10.2228 72.1892 8.67667 72.0667C8.61671 72.4316 8.75321 72.2785 8.97134 72.3384C10.1335 72.6586 12.1847 72.3333 13.2665 71.8103C13.4757 73.6294 10.5404 72.7849 9.38465 73.3475L9.31194 73.0885H9.06064L8.98665 73.3487L8.43685 73.1995C8.89863 70.2004 8.41261 67.0164 6.12665 64.8593C6.11389 64.4753 9.01982 64.5021 9.34766 64.5697L9.34894 64.5672ZM15.31 69.5141L15.5626 69.5741L15.0549 70.1507L14.9299 68.6263L15.5626 68.4923L15.1812 68.7513L15.31 69.5141ZM15.3011 76.8109C15.8726 76.196 16.3497 74.6588 17.3498 74.8719L16.8408 74.9982C17.0743 75.701 16.6801 75.5212 16.5066 75.6781C16.1686 75.9855 15.8688 76.5073 15.4363 76.6591L15.6915 77.0379C14.9771 77.0634 14.773 77.8748 14.2959 78.2677L14.5434 78.6963L14.0331 78.5687C13.8354 78.3034 15.097 77.0736 15.3011 76.8109ZM16.3306 69.8956L16.9799 68.6301L17.6062 68.7488L16.3306 69.8956ZM17.3396 83.0424C17.2401 82.9493 16.9033 83.3792 16.9684 82.9735C18.0119 82.6648 17.4047 82.1188 17.9864 81.6328L18.0973 82.5666L17.4748 83.2899C17.2554 83.3447 17.3996 83.0998 17.3383 83.0424H17.3396ZM16.5831 84.438C16.8051 84.8449 15.5499 84.9444 15.3088 84.947C15.3241 84.7403 15.6162 84.7556 15.7667 84.577C16.1035 84.1765 15.9938 83.7899 16.8395 83.8014C16.6724 84.091 16.4798 84.3576 16.166 84.2288L16.5844 84.4392L16.5831 84.438ZM15.819 94.4518C15.7055 94.8064 15.0957 94.7363 15.0524 94.772C15.0013 94.8128 15.0715 95.6522 14.597 95.9086L13.5241 96.9393C13.3494 96.66 14.3482 95.7759 14.5447 95.4685C14.7883 95.184 15.1302 95.4073 14.7921 94.7146L15.06 94.5717C14.6556 93.6341 15.9428 94.064 16.2668 93.4951C16.416 93.5627 16.0831 94.1023 16.0563 94.1214C15.9721 94.1827 15.694 93.9849 15.5205 93.999C15.4402 94.0053 15.3968 94.3281 15.1838 94.263L15.819 94.4505V94.4518ZM13.1491 94.189L12.6299 94.6419L13.0126 94.7694L12.5011 94.8651L12.3761 95.0246C12.6197 94.2592 12.0163 93.416 13.0738 93.2463C13.1874 93.0511 13.1032 92.7526 13.3315 92.6021C13.7219 93.3267 13.5535 92.6366 13.602 92.4695C13.6466 92.3138 13.8584 92.0408 14.0229 92.0179L14.2857 92.2156L13.7767 92.6646L14.0306 92.8534C13.4833 92.884 13.3711 93.5678 12.8838 93.4938L13.1465 94.1865L13.1491 94.189ZM13.5241 85.7136L13.269 85.2034C13.7397 85.6677 14.5753 84.0935 14.7985 84.3117L12.5036 87.1168C12.3301 86.3884 12.7996 85.669 13.5229 85.7136H13.5241ZM13.7142 78.7001C14.0752 78.9552 13.727 79.3239 13.4808 79.477C13.2499 79.852 13.1198 80.3521 12.7587 80.611C12.5661 79.6977 13.3647 79.4106 13.7142 78.7001ZM15.0549 85.8412L15.4363 85.9713L14.4796 87.1156C14.352 86.9816 14.0102 86.7609 14.2245 86.6091L14.5421 86.863C14.4515 86.266 15.1684 86.3731 15.0549 85.8425V85.8412ZM15.0524 80.4312L14.6072 81.2488L14.2895 81.1213L14.9478 80.1148L15.9453 80.102L15.0511 80.4312H15.0524ZM12.6286 89.5406C12.4118 89.5074 12.473 88.719 12.5011 88.6119C12.5125 88.566 13.0368 88.1476 13.0764 87.8861C13.7703 88.5532 12.7945 88.8785 12.6286 89.5406ZM12.8863 78.57C12.7409 78.0559 13.2499 77.9347 13.2665 77.5507L12.7575 77.6145C12.9271 77.3313 13.3098 77.4984 13.4935 77.3926C13.5586 77.3556 14.2462 76.3835 14.3929 76.1934C14.5089 76.0416 14.5191 75.8273 14.7972 75.8911L12.8863 78.5687V78.57ZM12.1171 74.2328C11.7357 73.8386 11.3798 74.2111 10.8976 74.2328C9.99952 74.2749 9.06192 74.2136 8.16513 74.2328L8.2927 73.4674C9.85409 73.7646 11.3555 73.5605 12.8838 73.2135C13.0279 73.8475 12.1388 73.6868 12.1158 74.234L12.1171 74.2328ZM6.1241 68.3648L6.34989 69.4542L6.06031 69.6443L5.7414 69.3866L5.61511 69.768V69.1302L6.1241 69.2565C6.16619 69.2233 5.47607 68.287 6.1241 68.3635V68.3648ZM5.1023 76.0174L5.485 76.2725C5.16608 76.3134 4.63286 76.2878 4.62266 75.8529L5.55005 74.2353L5.86769 74.6129C5.53347 74.5517 5.65976 74.8872 5.59598 74.9739C4.8982 74.78 5.5373 75.6692 5.1023 76.0174ZM4.55377 73.6307C4.30502 73.9751 4.3739 74.4777 3.8292 74.6818C3.83558 75.238 4.40069 74.4139 4.46448 74.4892L4.02055 75.3809C3.91595 75.2278 3.65827 75.1742 3.56769 75.0377C3.1799 74.4484 3.66337 74.5249 3.88661 74.2302C4.53081 73.5222 5.27324 71.6241 6.1241 71.4276L6.19681 71.8141L5.74778 71.9468C5.85493 72.4826 4.93647 73.1026 4.55377 73.6307ZM2.1581 71.6177C2.03947 69.319 2.91839 67.1351 4.72088 65.6872C4.60352 65.8364 4.71068 66.2791 4.69282 66.3033C4.35349 66.4539 4.27951 66.459 4.46703 66.8327C4.43386 66.8621 4.01162 66.9156 3.73991 67.2486C3.71312 67.2818 3.81007 67.3813 3.78583 67.4412C3.44523 68.2206 2.4413 69.7374 2.42471 70.7885L3.06381 70.8536L2.93752 70.2783L3.31767 70.4058C3.41207 69.0192 4.91606 68.0523 5.68017 66.9616L5.99781 67.2792C5.36508 67.6262 5.13292 68.3214 4.46065 68.5842C4.35605 68.6914 4.00397 69.333 4.33691 69.384C4.51805 69.0434 5.05893 68.315 5.48627 68.4273C4.74002 68.8393 4.16853 70.7656 3.31894 70.5334L3.5728 70.7222L3.18883 71.4251C2.84568 71.4952 3.00258 71.3447 2.87119 71.1712L2.36093 71.6751L2.4885 72.1917L2.93497 71.6815L2.4885 72.443C2.22699 72.23 2.17213 71.9392 2.15683 71.6164L2.1581 71.6177ZM2.55228 73.086L3.06126 73.2122C3.0957 72.7773 2.58544 73.0911 2.92349 72.5247L3.44523 72.4456L3.32149 72.0782C3.77945 72.0195 3.77945 71.6496 3.97335 71.3766C4.14684 71.1317 4.48233 71.2031 4.33819 70.661C4.96963 70.5347 3.98611 71.2197 4.97474 71.1712C4.78339 70.749 4.84079 70.3625 5.35743 70.2808L5.21838 70.7158L5.485 70.9799C4.59204 71.9698 3.71184 73.0222 3.12632 74.234L2.55228 73.0872V73.086ZM3.44651 87.0518C3.5779 87.4026 4.14811 87.3069 4.19914 87.3834L4.21062 87.8835C3.44651 87.7636 3.19648 87.2074 3.32022 86.4816L3.82793 86.738C3.8764 87.0059 3.31767 86.7048 3.44778 87.053L3.44651 87.0518ZM10.7279 103.768C10.705 103.991 10.7101 104.06 10.5149 104.2C8.45853 105.276 5.5526 105.295 3.5728 104.014V103.448L3.8292 103.957L4.33946 103.83L4.20935 104.084C4.64179 103.862 4.79487 104.158 5.14567 104.235C5.50923 104.314 6.3703 104.603 6.63436 104.214C5.74268 104.107 5.17119 103.958 4.30757 103.542C4.0231 103.399 3.36997 102.812 3.36742 103.33C3.36742 103.523 3.66847 103.911 3.19138 103.83V102.428C3.44268 102.397 3.20796 102.685 3.40696 102.815C4.36498 103.333 6.18915 104.177 7.14589 103.321C5.91489 103.136 4.30885 103.011 3.42482 102.067L3.19138 102.172V100.131C5.38932 101.648 8.16641 101.681 10.5889 100.641C10.4052 101.607 10.8198 102.872 10.7279 103.769V103.768ZM5.86769 95.7912L5.7414 96.3002C6.11134 96.4099 5.96081 96.0132 6.20191 95.9354C7.88194 95.7619 8.73535 95.9864 10.5889 95.1521V98.9791C8.4445 99.6909 6.6318 99.9856 4.50785 99.0008C3.3368 98.4574 3.18245 98.3425 3.31894 96.9381C3.48223 97.0299 4.15832 97.7621 4.23486 97.7953C4.74129 97.6295 5.19032 98.1869 5.7414 98.0861L5.61384 98.4663L5.92127 98.2239C6.16492 98.3476 7.59364 98.6028 7.39974 98.0861L5.61511 97.6983L5.74268 97.4483C5.36636 97.3833 4.9084 97.5555 4.83569 97.0771L4.46703 97.1906L4.59332 96.8092C4.36497 96.7238 4.25654 97.035 4.14684 97.035C3.9708 97.0337 3.72843 96.341 3.31894 96.6829L3.19138 94.6419L5.11633 95.5986L5.10485 95.915L5.86897 95.7887L5.86769 95.7912ZM10.585 91.2691C10.5901 91.8903 10.8363 92.5575 10.6437 93.2451C8.51849 94.7274 2.55483 94.8447 3.19265 91.0713C3.45544 91.1964 3.24751 91.6594 3.384 91.9681C3.48733 92.2029 4.44534 92.2245 4.21317 92.9848L4.652 92.8496L4.79359 93.12L5.23242 92.9861L4.97729 93.3662L6.50807 93.6214L6.50551 93.2451C6.22487 93.203 3.819 92.4248 4.21317 92.0919C4.32798 91.9949 4.54994 92.2705 4.68134 92.3024C5.02066 92.384 5.37019 92.3495 5.77074 92.6366L7.27346 92.7922C5.61256 91.8202 2.86609 92.0294 3.19138 89.3479L3.44523 89.2867L3.83303 89.9207L4.08051 89.9143L4.14556 89.6656C5.46841 90.6721 7.37806 90.4463 8.93563 90.1172C10.6629 89.5112 10.9767 89.3199 10.5863 91.2678L10.585 91.2691ZM10.696 87.5429C9.94977 88.5621 4.16087 89.2535 4.33819 87.4995L4.60352 87.8669L5.35743 88.0085L4.72088 87.3732C5.00025 87.3771 5.69803 87.6921 5.93402 87.6016C6.00674 87.5735 5.98377 87.3694 6.06924 87.3669C6.27207 87.3605 6.716 87.7547 6.63436 87.2444C6.12282 87.4064 3.40058 86.4382 3.31639 86.1333C3.42355 85.5006 3.19648 84.5987 3.51029 84.0553L3.57535 84.6918L3.76414 84.438L4.21062 84.7569L3.88533 84.9393L3.95549 85.3296L3.57407 85.2034C3.08805 85.8067 5.80391 86.479 6.19426 86.4063L6.7632 86.0976C6.59481 86.0159 6.14578 86.0836 6.05393 86.0466C5.88938 85.9802 5.92127 85.757 5.78605 85.7187C5.67889 85.6881 5.28599 85.7621 4.95688 85.6715C4.814 85.632 3.88916 85.3233 4.08433 85.0771C5.12399 84.8806 5.9774 85.623 7.01833 85.012C6.6318 84.79 6.3282 84.7671 5.99781 85.0758C6.07945 84.6268 5.87024 84.7212 5.54112 84.5719L5.48372 84.8168H5.23242C5.36381 84.3997 3.62765 84.1497 3.47585 83.8958C3.40569 83.8218 3.40824 83.5488 3.31639 83.4187C5.45183 84.6408 8.80679 84.7326 10.969 83.4187L10.6947 87.5442L10.696 87.5429ZM9.72015 79.1683C8.80679 79.3124 7.94827 79.2206 7.01833 79.2104C7.4074 79.8201 10.5008 79.5191 11.0991 79.0815L10.9142 81.7655C10.6986 82.0844 8.06053 82.6508 7.58599 82.6572C6.63946 82.6699 5.43652 82.1188 4.48234 82.0002L4.47851 81.6915C4.20552 81.5435 3.69654 81.7629 3.50391 81.3764L3.57407 80.2296C4.25654 80.1901 4.10219 80.7641 4.23741 80.9669C4.2744 81.0218 5.12654 81.4479 5.22604 81.8127L6.25038 81.7604C5.70441 81.5601 4.83059 81.4083 4.72216 80.7386C4.9977 80.7156 5.3536 81.194 5.39187 81.2119C5.62532 81.319 5.9876 81.1927 6.20319 81.4912L6.43663 81.2705L7.6536 81.3739L7.11017 80.9503C6.30651 80.9274 5.59853 80.6722 4.84207 80.4197L4.84717 79.9732C4.37518 80.2475 4.08561 79.9719 4.08051 79.4629C3.54473 79.3379 4.03841 80.0293 3.95422 80.0995H3.5728C3.36742 79.153 4.53974 78.533 4.34329 79.3316L6.58078 79.963C6.82698 79.3035 6.76064 80.0115 7.14461 79.9719C6.94561 79.2894 6.06797 79.3124 5.48627 79.0764L5.61384 78.8264L5.10358 78.9527C5.08827 78.8723 5.12399 78.7588 5.10358 78.6988C4.84079 79.019 3.55621 77.8875 3.70164 77.6783C4.03076 77.8735 4.33053 78.1197 4.65582 78.3225C5.01556 78.547 4.94795 78.2702 5.10358 78.6988C7.18288 78.9935 9.24689 79.1899 11.2254 78.3174C11.2803 78.9718 10.2355 79.0879 9.71887 79.1695L9.72015 79.1683ZM8.9318 76.5302C9.41399 76.5251 10.3758 76.5825 10.7687 76.2853C10.9512 76.1475 10.6845 75.7916 11.0991 75.8911C10.9397 76.9231 8.59375 77.2267 7.78499 77.2943C7.6013 76.9576 8.13197 76.7318 8.38072 76.6693C8.4445 76.6527 8.88077 77.1336 9.31322 76.9104L8.9318 76.5302ZM11.3313 75.5492C10.5889 75.7597 9.07212 75.8554 8.42409 75.511C8.53125 75.909 7.48904 75.8796 7.40102 75.7623L8.10263 74.4879L7.78371 75.252C8.26208 75.224 8.99941 75.6717 9.31449 75.127L8.5491 74.8732C9.66912 74.7826 10.7624 74.7162 11.8645 74.3616L11.3555 74.9357C11.4856 75.0989 11.7982 74.9752 11.9462 74.877C12.1362 74.7494 12.0584 74.0006 12.5036 74.1065C12.1681 74.9778 12.3059 75.2724 11.3313 75.5492ZM13.1542 105.462C12.9603 105.826 12.9335 106.272 12.3748 106.252C12.5725 105.708 12.0597 104.953 12.8838 104.848V105.232L13.2027 104.85C13.6874 105.268 13.2346 105.31 13.1529 105.462H13.1542ZM13.3953 99.8733L13.0139 99.747L13.1236 100.242C12.6924 100.317 12.8863 100.532 12.7664 100.831C12.6822 101.042 12.6746 101.362 12.3761 101.278C12.3722 100.561 12.1911 99.4332 13.1427 99.3643L13.0139 98.9842H13.5229C13.4706 99.3656 13.1083 99.4536 13.3953 99.8746V99.8733ZM15.6366 97.0784C15.5435 97.2455 15.68 97.6511 15.2424 97.831L15.1799 97.1957L14.6697 97.3233C15.3713 98.4484 14.6531 98.4931 14.0841 99.0965C13.8813 99.312 13.9617 99.6896 13.5229 99.7458C13.5114 99.1079 14.2092 98.8796 14.4273 98.5339C14.5651 98.3158 14.4298 97.956 14.7972 97.706C14.0918 97.6307 14.0905 98.923 13.3315 98.8541L13.2677 98.6002C14.1352 98.1308 14.6607 97.0018 15.37 96.2951C15.592 96.0732 15.9657 96.1854 16.0691 95.4647L16.4543 95.5374L16.2004 96.1739C16.3369 96.3283 16.8918 95.4685 16.9646 95.9826C16.4632 96.4125 15.9759 96.4712 15.6353 97.0797L15.6366 97.0784ZM17.6674 106.009L17.5029 106.189C17.7937 106.373 16.9633 107.132 16.8395 107.017L17.8613 105.36L17.9864 106.125L17.6662 106.009H17.6674ZM17.8588 97.9599C17.2924 98.0772 17.9111 97.3182 17.5386 97.1957C17.2439 97.1192 17.3307 97.7302 16.5844 97.7034C16.7209 97.4483 16.9174 97.1677 17.221 97.322L17.0934 96.9406C18.0489 96.6357 17.1521 97.1562 18.1152 97.0682L17.8588 97.9599ZM18.1152 80.4835C18.031 80.5804 17.4263 80.2487 17.9902 80.1684L17.7351 79.8482C17.5488 80.1658 17.4633 80.8751 16.9684 80.7399C17.0615 80.2194 17.5565 80.5294 17.2222 79.8482C17.5029 79.9566 17.8282 79.5522 17.9149 79.3252C18.0233 79.0394 17.7797 78.2396 18.2428 78.3174L18.1152 80.4847V80.4835ZM57.4779 64.793C44.9638 65.066 32.4752 65.9768 19.9623 66.2C18.4201 65.5316 16.9697 64.6029 15.31 64.1539L15.4988 63.9102C16.0589 64.3159 16.6877 63.9459 17.2886 63.9013C18.8028 63.789 20.3221 63.6755 21.8312 63.5786L22.3899 63.0071L22.4537 63.391C23.9832 63.1959 25.6938 63.2214 27.2067 62.9178C27.481 62.8884 28.8383 63.1512 28.3268 62.5682C28.1316 62.3463 27.7731 62.7417 28.0653 62.1141L27.2999 62.2391L27.43 61.9865C23.7842 62.0669 20.2238 62.7328 16.5857 62.8795L17.2222 63.2596C16.6278 63.4127 15.2463 63.2596 15.2437 64.0276L11.228 62.5593C12.5457 61.9572 14.0905 62.2978 15.5065 62.2442C16.3331 62.2136 17.272 62.0095 18.1152 61.9853C17.7338 62.5108 15.4465 62.442 14.6952 62.5874C14.5051 62.6078 13.9272 62.3922 14.3546 62.8782C18.9469 62.3182 23.5035 61.8386 28.1137 61.7212L29.2133 63.3872L28.6406 63.1321L28.7044 63.3872C27.7897 63.1767 26.7845 63.4586 25.838 63.5224C24.8136 63.5913 23.6094 63.3681 22.7139 63.8477C22.4766 64.4766 21.9243 63.9459 21.4319 64.2814C21.4 63.6309 22.3491 64.2649 22.4511 63.7725L20.044 63.9141L19.8348 64.4077L19.7723 64.0276L19.3436 64.025L19.137 64.2814L19.0834 64.0391L17.0947 64.284C17.3587 64.9231 17.9468 64.5595 18.3907 64.608C21.9651 65.0379 25.9566 64.2534 29.4698 63.7712L29.406 63.516C33.4268 65.0736 42.2479 65.6655 45.673 62.9471C45.8708 62.6677 45.7942 62.22 46.1782 62.2391L45.9384 62.1026L46.0532 61.2186C48.0177 61.4342 50.0881 60.7428 51.9888 61.3423C53.6267 61.859 55.479 62.9382 57.0633 63.6666C57.8338 64.0199 58.8148 64.2763 59.4462 64.7904C58.7752 64.5417 58.1566 64.7764 57.4779 64.7904V64.793ZM62.2794 64.7037C61.736 63.6691 59.7843 63.1436 58.9373 62.3705C63.4288 62.6882 66.5325 65.8939 65.54 70.5028L62.893 71.4263L62.9211 70.6903C63.1431 70.4722 63.7158 70.652 63.7656 70.6329C63.8855 70.0844 65.0948 70.3204 65.0604 69.6404L64.6228 69.9759L62.7655 70.277C63.0653 69.8866 62.768 69.5039 62.777 69.1799C62.8152 67.7512 62.9849 66.0444 62.2807 64.7037H62.2794ZM62.7616 85.0107C63.0321 84.637 62.7935 83.1189 62.9492 82.9034C64.0998 82.9021 64.5042 81.1226 65.8258 81.0575C65.1726 80.6722 64.5284 81.4427 63.9289 81.6507L64.0398 81.8854C63.5793 81.7578 63.4186 82.1813 63.0831 82.2719C62.8114 82.3459 62.9568 82.2655 62.9415 82.1341C62.8369 81.2578 62.8918 81.2284 63.6699 80.8177C64.4085 80.4911 64.6802 80.7348 64.8307 79.8737C65.0042 79.7002 66.2888 79.6071 66.5261 79.2129C66.7378 79.4885 67.6933 80.9095 67.5555 81.1238C65.7939 82.0219 63.7413 83.1177 63.0155 85.0758L62.7604 85.0107H62.7616ZM65.5694 90.5611C64.5794 90.5075 65.0884 89.9347 65.2096 89.302L65.5706 89.2854L65.4405 88.904H65.8258C65.142 87.8019 66.4253 86.6321 66.7174 85.5873L65.6982 86.4178L65.952 86.6704C65.8194 86.8783 65.5974 86.7265 65.4405 86.9127C64.9979 87.4383 64.9711 88.0697 64.7925 88.677C64.7568 88.7969 64.4072 88.779 64.5501 89.4156L64.8027 89.6694C64.0947 89.5048 64.2478 89.2191 63.9659 88.7803C62.0524 86.7966 67.0261 82.6686 68.872 82.2796L70.288 83.8001C67.8285 84.7518 65.5068 87.9345 65.5681 90.5624L65.5694 90.5611ZM71.2524 95.1483C69.8517 94.3663 69.7343 94.6075 70.029 92.9351C70.0252 92.8509 69.8249 92.856 69.7854 92.7603C69.7101 92.5741 69.6412 90.7703 69.6476 90.5075C69.6502 90.4322 69.8721 90.4552 69.9027 90.3468C69.9665 90.1133 69.8492 89.797 70.0341 89.5431C69.2305 89.4283 69.0889 93.4645 69.5239 94.0053L68.3758 93.3037L68.6296 93.24L68.3745 92.8611C68.9434 92.8024 68.6079 92.5001 68.6615 92.2628C68.7457 91.889 69.0315 91.5625 68.8848 91.0713C68.7929 91.116 68.562 91.338 68.6335 91.0127C68.6934 90.7435 69.2534 89.2472 69.2126 89.1591L68.8873 88.904C68.4549 90.3799 67.6448 91.4221 68.1194 93.1124C67.4267 92.921 67.2877 92.5588 67.229 91.898C67.1894 91.4438 67.0861 90.4271 67.4803 90.1784L67.3884 91.1836L67.6078 92.2182L67.863 89.413L67.3527 89.8569C67.6053 87.96 70.1834 84.3691 72.329 84.9482C70.7536 87.3579 69.6489 90.4386 70.5559 93.3101L70.2892 93.5563C71.0891 93.7132 70.7817 94.7018 71.4348 94.8983C71.459 95.0718 71.4833 95.2147 71.2524 95.1458V95.1483ZM78.058 95.7198C77.2798 95.6076 76.0883 94.4888 75.5207 93.9416C75.6113 93.6163 76.3932 94.4633 76.6624 94.5934C76.7542 94.6559 76.7938 94.8792 76.8601 94.9021C77.9444 94.948 76.1636 94.0321 75.8996 93.8178C75.1303 93.1532 74.6124 92.3087 73.8636 91.7092C74.0141 92.4707 74.5129 93.1328 75.0844 93.6226L74.8905 93.9416L75.3918 94.3242L74.8816 94.388L74.9046 94.8779L75.5845 95.2797C75.9991 94.5577 76.2491 95.2912 76.4251 95.781C76.7019 95.6573 77.2288 95.4953 77.3066 95.9813C76.3205 95.9341 74.5907 96.1739 73.8598 95.346C71.982 93.1864 71.5241 90.1465 72.69 87.5403C73 86.7673 73.6353 85.6486 74.4976 85.4598C74.7897 88.1603 76.4302 90.9106 78.8348 92.222L78.8233 92.4669L78.5784 92.5358C78.7136 92.8062 78.8756 93.0078 79.2175 92.9835L78.8348 92.7271L79.0262 92.4771C80.7662 93.3701 80.4944 93.3535 82.4717 93.4964C81.5137 94.3089 79.3591 95.9073 78.0567 95.7185L78.058 95.7198ZM86.5525 87.7534C86.1813 88.2764 82.5151 88.3032 81.7714 88.1386C81.7242 88.7407 82.6388 88.4665 82.7881 88.5851C82.8799 88.6578 82.8888 88.8492 82.9399 88.8874C83.0406 88.9627 83.8366 88.5634 83.8762 89.0316L83.9374 88.7765C84.7117 88.6017 85.5805 88.7981 86.2336 88.2649C86.4326 88.543 85.3394 90.3136 85.06 90.6478C83.0942 90.9655 81.552 90.3519 79.729 89.797C79.9434 90.1235 80.6514 90.695 81.0034 90.4335C81.0315 90.4718 80.9537 90.6899 81.0315 90.7818C81.0519 90.806 81.5162 91.0407 81.5813 91.0688C81.9461 91.2206 81.4716 90.7563 81.8352 90.8124C82.2982 90.8838 82.6605 91.1861 83.1733 91.0713L83.0496 91.3188L83.3647 91.454L83.6198 91.0713L83.681 91.3252H84.0663L83.9374 91.0726L84.7028 90.9451C84.8023 91.3839 84.5459 91.301 84.3188 91.5165C84.2423 91.5905 84.2283 91.7717 84.1658 91.815C84.0688 91.8827 82.9348 91.8763 82.7319 91.8431C78.5963 91.2091 76.6356 88.5354 75.8192 84.6293L77.2938 82.7324L77.5566 82.6521C79.0326 85.484 82.8149 87.5901 85.9772 86.7341C86.1698 87.3056 84.1772 87.09 83.8711 87.1449C83.7971 87.15 83.8226 87.3541 83.7308 87.3681C83.3353 87.4306 82.1081 87.1525 81.7688 86.8604C81.6655 87.6233 82.6541 87.3005 82.9807 87.7534C83.1121 87.5773 82.9552 87.4294 83.2983 87.497V87.8797C83.6096 87.9345 83.5101 87.8414 83.607 87.6347C83.9515 87.7853 84.2716 87.9077 84.3826 87.497L85.0026 87.8593L85.8407 87.3847L85.9772 87.6245L85.9963 87.2661L86.7426 86.9893C86.7681 87.0186 86.6048 87.673 86.55 87.7521L86.5525 87.7534ZM85.1799 82.2426L86.1086 82.1431C85.7399 82.7924 86.8115 82.0436 86.939 82.0551C87.0589 82.0653 87.1763 82.3178 87.2528 82.2668C87.2209 81.7757 88.0897 82.0232 88.4047 81.7604C88.2019 82.2834 88.2236 82.5258 87.6712 82.7567C86.4198 83.0207 84.3992 82.9952 83.1759 82.5245C82.9105 82.7681 84.0739 83.1917 84.1964 83.2248C85.5205 83.5935 86.7719 83.4812 88.022 83.0348L87.7746 83.8678C86.2374 84.1178 84.5599 84.2351 83.1083 83.5437L82.8659 83.7925L82.4105 83.5463C82.1081 83.8193 83.9502 84.4188 84.1198 84.4622C84.6263 84.591 86.6061 84.6727 86.9837 84.5413C87.0028 84.5349 87.0283 84.3423 87.2311 84.2224C87.8613 83.8499 88.0055 84.239 87.5615 84.5502C86.7566 85.1166 85.3789 84.9342 84.4515 84.9495L85.0881 85.0771C85.2934 85.234 85.0727 85.3131 84.8967 85.3348C82.9016 85.5746 78.5631 82.9978 78.4457 80.8062C78.3896 79.7653 79.1167 78.7881 79.3502 77.8046C80.284 78.4054 81.006 79.2729 81.9882 79.8201C83.8915 80.8789 86.6099 81.2348 88.6599 80.6123C88.5068 81.4734 88.2287 81.4504 87.4697 81.5869C86.9186 81.6851 86.1303 81.8408 85.5231 81.8344C85.0906 81.8305 84.5127 81.504 84.1977 81.8254L85.1825 82.2426H85.1799ZM85.9529 78.2779C86.3038 78.2983 87.9774 78.2051 88.2134 78.1261C88.4609 78.0444 88.5961 77.5979 88.8474 77.9347C89.1178 78.334 89.1765 78.718 88.6637 78.894C86.2157 79.9349 78.8846 77.9589 80.2278 74.4088C80.2776 74.2736 80.1628 74.1869 80.423 74.2392C82.8391 75.9077 85.7004 76.8785 88.6586 76.4027C87.7172 77.0788 85.2309 76.6591 84.0675 76.4027C84.6059 77.2459 86.6686 77.1106 87.5832 77.1744C87.8307 77.1655 87.7414 76.9257 87.8524 76.9091C88.8869 77.2216 88.5667 76.2802 89.2964 76.2751C89.2645 76.6119 89.1816 77.4385 88.8168 77.5405C87.6738 77.862 85.7858 77.7421 84.6046 77.5852C84.3125 77.5469 84.1249 77.7663 83.8124 77.4232C83.3481 77.8888 85.7756 78.2677 85.9517 78.2779H85.9529ZM93.714 70.1494C90.8068 77.5176 81.9296 75.3222 78.4496 69.5805C76.6203 66.5623 76.4762 59.9863 81.0698 59.5654C82.4921 59.4352 86.3127 60.1011 86.5653 61.8552C86.7349 63.039 83.8264 63.4421 82.9756 63.3949C82.3301 63.3591 80.46 62.6881 80.1028 62.9356C78.8859 64.0786 83.6045 65.1935 83.5535 67.9196C83.6172 68.5612 83.2639 70.7324 83.6797 70.9824C85.2092 71.8983 84.8687 67.7716 85.1097 67.4973C85.8751 67.0751 86.2502 67.6938 86.8587 67.9056C87.3689 68.0841 88.1139 68.2449 88.6573 68.3661C88.4647 69.3215 87.9608 68.4911 87.6993 68.398C87.4671 68.315 86.1137 68.0331 85.9785 68.1109L86.0448 68.4987C86.24 68.7156 87.1393 68.7373 87.4863 68.8342C87.9659 68.9694 88.2274 69.0817 88.7568 69.2093C89.0987 69.2922 89.3309 69.6902 89.8041 69.3215C89.526 68.9299 88.6726 69.2029 88.6573 68.6199C88.7275 68.5561 89.9368 69.1276 90.1537 69.222C90.2914 69.282 90.2978 69.4555 90.4152 69.5027C90.9586 69.7221 92.3389 69.731 92.9052 69.5907C93.1514 69.5295 94.0291 68.9006 94.1426 69.0026L93.6336 69.5767C94.4233 69.7042 93.825 69.8662 93.7127 70.1481L93.714 70.1494ZM91.2099 67.7257C93.219 66.0023 93.7969 64.3529 94.5228 61.9177C94.5521 61.8207 94.4768 61.6396 94.7154 61.734C97.8611 63.6079 94.2842 68.8419 91.2099 67.727V67.7257Z" fill="black"/>
<path d="M17.0947 38.6417C16.7324 38.7157 15.9964 38.5103 15.5639 38.6417C15.458 39.1086 16.1724 38.8815 16.4033 38.7795L16.4581 39.0206L16.7758 38.768L16.9671 39.1507C17.087 38.9657 17.1406 38.8777 17.0947 38.6404V38.6417Z" fill="black"/>
<path d="M57.4116 76.5962C56.9562 74.7427 58.1081 72.5702 55.4318 72.4414C45.969 72.583 36.1988 73.069 26.7399 73.6099C25.4629 73.7617 25.1275 74.823 24.9986 75.9507C25.3226 82.5599 24.5827 89.553 24.9986 96.1162C25.0509 96.9415 25.1593 98.42 25.977 98.8371C35.1387 98.9634 44.8311 98.4111 54.0235 97.8319C55.7379 97.6903 57.2292 97.8396 57.409 95.7322C57.932 89.6027 56.983 82.7729 57.4116 76.5962ZM55.6193 95.9185L27.0409 97.2655C26.6225 90.3719 27.1481 83.0714 26.782 76.0757C26.7896 75.9022 26.7986 75.2938 27.0014 75.2466L55.618 74.1036V95.9172L55.6193 95.9185Z" fill="black"/>
<path d="M164.456 94.6036C162.302 95.4417 155.791 119.961 160.533 116.703C162.174 107.021 161.637 98.5722 169.199 91.0739C169.323 90.8341 169.147 90.4374 169.151 90.1797C167.276 91.028 165.633 92.93 164.455 94.6049L164.456 94.6036Z" fill="black"/>
<path d="M111.258 92.6859C109.629 96.8075 106.685 111.312 108.198 115.287C109.984 115.506 109.436 111.546 109.709 110.4C109.986 107.944 110.26 105.46 110.618 103.016C110.565 101.936 113.837 90.5148 111.259 92.6872L111.258 92.6859Z" fill="black"/>
<path d="M131.732 112.42C129.343 112.489 130.158 116.273 132.415 115.246C133.856 114.591 133.342 112.374 131.732 112.42ZM132.128 113.552L132.153 114.412C130.945 114.537 130.964 113.176 132.128 113.552Z" fill="black"/>
<path d="M134.391 96.3663C132.646 96.379 132.049 99.29 133.911 99.4635C135.853 99.6447 136.409 96.3522 134.391 96.3663ZM134.165 97.3434C134.278 97.3204 134.389 97.2975 134.503 97.3306L134.692 97.6164C133.894 99.5464 132.864 97.6049 134.165 97.3434Z" fill="black"/>
<path d="M6.44045 109.956C5.78094 109.844 4.52315 109.674 4.02565 109.372C3.89553 109.293 3.2424 108.609 3.31511 109.122C3.44778 110.087 4.83058 110.205 5.55515 110.341C6.00163 110.351 6.2912 110.011 6.76064 110.205C6.82059 109.818 6.66879 109.994 6.43917 109.955L6.44045 109.956Z" fill="black"/>
<path d="M15.3088 108.549L14.7347 108.675C14.5357 108.98 15.2386 108.48 15.0536 108.865C14.9248 109.134 14.1913 108.759 14.1632 109.375C14.4209 109.711 14.3661 109.469 14.5396 109.373C14.8865 109.182 15.3292 109.044 15.31 108.549H15.3088Z" fill="black"/>
<path d="M136.379 54.8543L136.623 56.1184C131.438 57.4171 125.733 58.4682 120.693 56.0406C120.217 55.8123 119.282 54.8989 118.824 55.3518C118.164 56.3608 119.316 57.1976 119.967 57.787C122.465 67.8225 134.18 64.3668 138.024 57.2002C140.574 58.546 138.239 53.7343 136.378 54.8556L136.379 54.8543ZM133.422 59.7426C130.375 62.0847 123.787 63.4968 122.334 58.7335C122.304 58.5205 122.332 58.5294 122.528 58.5396C126.502 59.7171 130.576 59.3471 134.582 58.5435C134.766 58.7297 133.591 59.6201 133.424 59.7438L133.422 59.7426Z" fill="black"/>
<path d="M123.692 52.5302C124.696 52.6259 127.839 52.6833 128.186 51.4345C128.504 50.2902 126.098 50.7469 125.582 50.7277C124.754 50.6984 121.537 50.1652 121.439 49.16C121.366 48.4073 123.312 46.2668 123.759 45.4874C124.387 44.3202 126.26 39.8273 124.578 39.1602C124.368 39.2239 123.392 42.6363 123.083 43.2792C122.314 44.8763 119.629 47.7325 119.667 49.2722C119.718 51.2865 121.929 52.3606 123.692 52.529V52.5302Z" fill="black"/>
<path d="M134.939 31.154C133.661 31.2216 130.872 32.4054 132.286 33.9961C135.523 33.2422 137.906 33.0381 141.05 34.9184C141.69 35.3152 142.885 36.7031 143.577 36.6776C144.373 36.6482 143.851 35.1251 143.568 34.6977C141.937 32.2383 137.775 30.8619 134.939 31.154Z" fill="black"/>
<path d="M160.774 45.6826C160.684 45.3241 160.289 44.3865 159.841 44.5102C160.606 41.9564 161.964 43.5663 162.394 45.2756C163.872 45.3432 162.611 41.1425 161.503 41.1272C159.615 40.6272 158.051 43.7933 157.581 45.2488C157.222 46.4939 156.299 49.1689 158.429 46.962C158.549 46.8166 158.874 45.9696 159.074 46.1699C159.833 48.3869 157.734 49.6537 158.184 50.6359C160.244 50.3731 161.218 47.4634 160.774 45.6838V45.6826Z" fill="black"/>
<path d="M138.457 39.5517C136.421 38.5477 132.89 38.6523 132.794 41.52C132.702 44.2627 137.476 43.9616 135.858 40.9396C137.104 40.8273 138.145 41.5289 139.141 42.1757C139.998 42.7319 140.248 43.5764 141.45 42.5762C141.861 41.8632 139.068 39.8527 138.456 39.5517H138.457Z" fill="black"/>
<path d="M117.872 39.9193C120.248 39.6884 119.616 41.9756 120.88 42.2167C121.811 42.2729 121.237 40.589 121.042 40.1285C120.117 37.9471 117.305 36.9126 115.635 38.895L115.456 38.8898C115.45 38.8286 115.445 38.7317 115.401 38.696C114.78 38.2061 113.484 36.8833 113.798 38.8261C113.924 39.608 114.927 39.9423 115.128 40.302C115.382 40.7523 115.128 41.7601 115.909 42.2002C117.278 42.9719 118.709 41.5088 118.124 40.265C118.057 40.1247 117.769 40.2548 117.874 39.918L117.872 39.9193Z" fill="black"/>
<path d="M115.959 33.0957C118.451 32.1237 119.529 32.8112 121.641 33.5333C122.278 33.5001 122.313 32.5701 122.064 32.0892C120.861 29.7612 115.881 30.4309 114.216 32.1823C113.841 32.5778 113.012 33.9797 113.987 34.0563C114.232 34.0754 115.551 33.2513 115.959 33.0957Z" fill="black"/>
<path d="M127.757 65.9397C126.984 66.0928 124.137 64.9013 123.87 65.3644C124.456 67.9335 130.218 68.1338 130.755 65.432C129.69 65.0276 128.82 65.9308 127.757 65.9397Z" fill="black"/>
<path d="M145.42 70.2089C144.191 70.7919 141.608 73.1391 140.451 72.8291C140.437 72.8431 140.504 73.0511 140.366 73.2194C140.018 73.4095 137.677 75.3332 137.201 74.9977L137.263 75.2528C136.61 75.0028 136.858 75.2477 136.66 75.3791C134.882 76.5527 133.35 77.0949 131.54 78.0197C131.362 78.1103 131.198 77.9598 131.268 78.3157C132.359 78.206 133.777 77.572 134.875 77.0081C135.287 76.7709 135.675 76.207 136.18 76.022C136.517 75.8983 136.094 76.5157 136.432 76.2746C136.575 76.1726 136.599 75.9328 136.638 75.9098C138.63 76.1088 144.041 71.3136 145.935 70.0252C145.68 69.9589 145.59 70.1081 145.42 70.2102V70.2089Z" fill="black"/>
<path d="M134.199 75.3804C133.449 75.3103 132.302 75.9379 131.476 76.156C131.429 76.1688 131.134 76.6319 130.629 76.4022C130.5 76.7849 131.098 76.6905 131.321 76.6497C131.916 76.5451 132.48 75.8805 132.924 76.1471C133.385 75.656 133.429 75.6649 134.199 75.3817V75.3804Z" fill="black"/>
<path d="M135.645 75.219C135.985 75.0876 136.325 75.3657 136.623 74.807C136.472 74.5952 136.206 74.9103 136.023 74.9486C135.42 75.0749 134.81 75.1565 134.199 75.3823C134.366 75.3976 134.541 75.3695 134.71 75.3836C134.553 75.8122 133.374 75.9308 132.924 76.1477C132.402 76.7039 131.166 76.8289 130.689 77.2932C130.101 78.3673 135.281 75.2305 135.643 75.2203L135.645 75.219Z" fill="black"/>
<path d="M139.173 75.8896L138.281 76.2098C138.613 76.9816 142.462 73.8856 143 73.4697L138.919 75.6383L139.173 75.8909V75.8896Z" fill="black"/>
<path d="M136.712 76.7837L135.986 77.5491C136.789 77.4419 137.367 76.6727 138.155 76.6549L138.025 76.2734C137.525 76.4201 137.334 76.7505 136.712 76.7824V76.7837Z" fill="black"/>
<path d="M53.9035 45.5244C53.7313 44.9746 53.0131 44.9363 52.4927 44.8942C46.5175 44.4145 40.2936 44.7551 34.2802 44.6646C32.9051 45.3292 33.3324 46.9595 34.2573 47.8231C37.5217 50.7265 53.6191 51.8771 53.9035 45.5244Z" fill="black"/>
<path d="M38.0077 37.6773C43.0503 34.3977 40.1393 26.2743 33.7763 27.1953C25.2065 29.4915 30.239 42.2199 38.0077 37.6773ZM32.3183 29.7568C34.321 27.9225 37.787 28.7861 38.745 31.3438C40.124 35.0253 36.3098 38.4045 32.8719 36.3239C30.6472 34.9768 30.4074 31.507 32.3183 29.7568Z" fill="black"/>
<path d="M51.5091 38.4804C59.5189 40.0035 60.2907 27.2202 52.2809 27.5787C46.2356 27.8504 45.1271 37.2672 51.5091 38.4804ZM52.4021 29.2383C57.2598 28.7663 58.0979 36.7595 52.9277 36.9356C47.7804 37.1103 47.5967 29.7052 52.4021 29.2383Z" fill="black"/>
<path d="M73.3495 23.6562C75.9442 25.8516 78.8323 28.7435 81.7089 30.4733C81.8785 30.4669 82.7 29.9107 82.908 29.7653C105.802 13.0556 87.9353 2.08499 81.3861 12.3642C74.1978 2.26614 62.2437 14.5787 73.3495 23.655V23.6562Z" fill="black"/>
<path d="M85.3432 68.875C85.2858 69.1582 85.4759 69.1646 85.6557 69.2628C86.0346 69.3904 87.6164 70.245 87.7657 69.6417C86.9288 69.4771 86.2489 68.9413 85.3432 68.875Z" fill="black"/>
<path d="M90.0618 69.6416C90.1575 69.9848 92.1934 70.8841 92.2291 70.407L90.0618 69.6416Z" fill="black"/>
<path d="M46.501 61.4788C46.279 61.5209 46.1412 61.6089 46.182 61.8589C46.7216 61.2339 47.2421 61.8666 47.5189 61.864C47.6006 61.864 47.5623 61.6191 47.6592 61.6051C47.8378 61.5796 48.5994 61.628 48.7971 61.7288L48.8571 61.4762C48.1032 61.5005 47.2472 61.3385 46.4997 61.4788H46.501Z" fill="black"/>
<path d="M79.6436 88.6039C81.2854 89.59 83.9731 90.5684 85.7246 89.2864C83.6542 89.7252 81.2649 89.2532 79.4114 88.1357C79.1767 88.2365 79.6092 88.5822 79.6436 88.6039Z" fill="black"/>
<path d="M79.803 94.639C77.6778 94.0841 75.7478 92.1081 75.0079 90.0505C74.9199 89.9752 74.7336 89.9701 74.7795 90.2151C74.8331 90.5046 75.1329 91.5239 75.2694 91.7356C75.8115 92.1757 75.6827 91.913 75.8039 92.5814C76.3818 92.5852 76.6394 93.4654 77.0515 93.8149L76.6701 93.8787C76.7887 94.2627 77.2632 94.0637 77.3704 93.7499C77.5987 94.2295 78.3322 94.3622 78.0733 94.8967C78.7022 94.1632 79.1129 95.2615 79.4127 95.2628C79.664 95.2628 79.6257 94.4949 80.1118 94.8967C80.1743 94.514 80.0212 94.69 79.8043 94.6377L79.803 94.639Z" fill="black"/>
<path d="M78.2059 92.7883C78.0452 92.6697 78.012 92.3903 77.8105 92.2844C77.6064 92.176 77.2505 92.3304 77.304 91.9668L77.0502 92.0293C77.5783 93.7004 78.9573 93.0498 78.5822 94.0053C79.2073 93.6723 79.1486 94.3982 79.7915 94.3905C79.6959 93.504 79.9752 94.2553 80.1653 94.2732C80.5353 94.3063 81.2075 94.2987 81.5149 94.0703L81.1322 94.0066V93.7527L81.5149 93.6264C81.034 93.4032 80.6871 94.0002 80.4357 94.0066C80.0645 94.0142 78.5975 93.0792 78.2059 92.7909V92.7883Z" fill="black"/>
<path d="M9.50328 71.6824L9.4395 71.4273L10.2074 71.6799L10.1437 71.4248C10.3439 71.5944 11.2637 71.8023 11.2254 71.2985C10.807 71.5625 10.5429 71.2462 10.275 71.2283C9.94848 71.2066 9.55176 71.4439 9.18692 71.1709L9.31576 71.6812H9.50456L9.50328 71.6824Z" fill="black"/>
<path d="M5.32938 90.6543C4.9199 90.4859 4.50914 89.9488 3.95551 90.0522C4.6367 91.0829 5.67763 91.0893 6.70325 91.5727L7.01579 91.3227C7.13442 91.1199 5.48756 90.718 5.32938 90.653V90.6543Z" fill="black"/>
<path d="M4.87524 96.0446C4.65327 95.9311 4.41345 96.0638 4.29354 96.0357C4.02948 95.653 3.58938 95.6224 3.69909 95.0254C2.39027 95.778 5.96337 97.7897 7.27218 97.1927C7.54517 96.6761 5.69803 96.7883 5.41866 96.5715C5.03469 96.4069 5.05 96.1339 4.87396 96.0446H4.87524Z" fill="black"/>
<path d="M4.32033 98.0352C4.23997 97.9714 4.08179 97.9816 3.99759 97.9178C3.91212 97.8528 3.70674 97.3106 3.69781 97.7699C3.73098 98.5097 4.49637 98.6501 5.10358 98.724L4.96709 98.3541C4.51551 98.6105 4.56781 98.2317 4.32033 98.0352Z" fill="black"/>
<path d="M6.63565 101.915L5.17758 101.796L5.10232 101.405C4.88546 101.353 5.02195 101.591 4.96199 101.636C4.7209 101.82 3.81774 100.988 3.50775 100.897C2.95412 101.5 4.03205 101.743 4.23998 102.127C4.74896 102.061 5.12528 102.463 5.55262 102.678L5.61258 102.426C6.2083 102.613 6.59738 102.611 7.14335 102.296L6.50553 102.169L6.63437 101.917L6.63565 101.915Z" fill="black"/>
<path d="M88.7862 78.4434L86.6188 78.761C87.1265 79.0799 88.3754 78.849 88.7862 78.4434Z" fill="black"/>
<path d="M64.2746 86.6495C63.9136 87.3626 63.5156 88.1471 64.2312 88.7747C64.8231 88.6472 64.3741 88.3257 64.3167 88.0438C64.1802 87.3741 64.5654 87.4519 64.7376 87.11C64.6139 86.3433 65.5961 86.0652 65.3129 85.4593C65.7824 85.5205 66.086 84.6505 66.4623 84.3125C65.5017 84.5102 64.6955 85.8178 64.2746 86.6508V86.6495Z" fill="black"/>
<path d="M51.7694 90.0813C44.9242 90.5686 38.0549 90.7638 31.197 91.0776C29.8473 91.5904 30.1037 92.6467 31.5695 92.7373C38.0077 92.426 44.6525 92.3813 51.0971 92.0854C52.0985 92.0229 53.0833 92.0573 52.9493 90.7485C52.8856 90.1222 52.3077 90.0814 51.7694 90.0801V90.0813Z" fill="black"/>
<path d="M31.3182 87.1905C37.4017 87.2836 43.7239 86.8205 49.8151 86.4799C50.4427 86.4417 52.2159 86.5284 52.6483 86.1853C53.3474 85.6316 52.7516 84.467 51.8536 84.6838C45.3643 85.2298 38.8292 85.1086 32.3349 85.4671C31.2837 85.5245 29.7223 85.5372 30.4431 87.0004C30.7275 87.0897 31.0197 87.1777 31.3182 87.1905Z" fill="black"/>
<path d="M32.84 81.8863C39.1047 81.737 45.6284 81.5534 51.8561 81.2497C52.6304 81.1617 53.2542 80.7114 52.8141 79.909C45.9486 79.2393 38.4069 80.3262 31.4457 80.3568C30.702 80.404 30.0119 80.9653 30.392 81.7294C31.2263 82.218 32.0185 81.8927 32.84 81.8863Z" fill="black"/>
<path d="M38.324 32.402C36.9068 30.1658 34.0404 32.3408 35.3773 34.3933C36.4399 35.5949 39.2884 34.105 38.324 32.402Z" fill="black"/>
<path d="M54.3997 34.9348C56.7138 34.5712 56.1652 31.2022 53.9265 31.6551C52.0538 32.0339 52.0232 35.3098 54.3997 34.9348Z" fill="black"/>
</g>
<defs>
<clipPath id="clip0_222_13789">
<rect width="180.21" height="117" fill="white" transform="translate(0.395142)"/>
</clipPath>
</defs>
</svg>
