<svg width="177" height="117" viewBox="0 0 177 117" fill="none" xmlns="http://www.w3.org/2000/svg">
<g clip-path="url(#clip0_363_758)">
<path d="M76.6933 87.9726C74.8992 83.9924 72.9013 80.0951 70.8258 76.2514C68.9574 72.7927 67.0649 69.3132 63.9394 66.7352C63.5837 66.4417 63.3541 65.8615 63.2816 65.3831C62.8809 62.7067 62.1661 60.1614 60.6396 57.8804C60.4238 57.5575 60.3702 57.0636 60.3875 56.6544C60.5187 53.4098 59.923 50.3068 58.7229 47.2988C58.5848 46.9534 58.5675 46.4907 58.6659 46.1298C59.9144 41.5901 60.7225 36.997 60.6828 32.2622C60.6741 31.1674 60.8675 29.9898 61.2889 28.9865C62.2023 26.816 62.5183 24.5885 62.5667 22.2625C62.6254 19.4876 62.1989 16.8181 61.1749 14.2452C58.9267 8.60041 54.482 5.1797 49.1567 2.85721C44.2285 0.709119 38.9412 0.296424 33.6521 0.838626C28.0056 1.41709 22.6457 2.76569 18.5999 7.32433C15.9666 10.2909 13.5854 13.3783 12.558 17.2256C11.5599 20.9588 10.8969 24.7819 10.1043 28.5704C9.4792 31.5525 8.98535 34.5674 8.23939 37.5184C7.42263 40.7475 6.37621 43.9195 5.43858 47.1192C4.06408 51.8091 4.78069 56.2382 7.21024 60.4066C7.89576 61.5825 8.80749 62.6255 9.65015 63.7773C8.9698 64.3471 8.21521 64.9653 7.47443 65.6007C4.29202 68.3273 1.68634 71.4285 0.748706 75.6677C-0.156116 79.7567 0.218591 83.8301 1.16658 87.812C2.25617 92.3862 4.22813 96.672 6.30542 100.873C7.15153 102.586 7.6143 104.285 7.64711 106.147C7.67992 108.072 7.67992 109.997 7.72308 111.923C7.73517 112.429 7.85259 112.931 7.92339 113.435C8.08916 113.52 8.25493 113.605 8.42242 113.689C8.72633 113.337 9.03197 112.985 9.37387 112.589C9.71231 112.921 10.0836 112.632 10.4721 112.211C10.8658 111.785 11.3147 111.41 11.7395 111.013C11.8241 111.115 11.9105 111.216 11.9951 111.318C10.9573 112.166 9.91952 113.014 8.88174 113.862C10.593 113.921 11.4235 112.275 13.0657 111.776C12.9103 112.108 12.8706 112.24 12.7928 112.348C12.653 112.537 12.5097 112.726 12.3646 112.914C12.2196 113.102 12.0745 113.289 11.9312 113.475C12.1211 113.465 12.3163 113.468 12.5097 113.468C12.8326 113.468 13.152 113.461 13.4456 113.37C14.1035 113.166 14.5731 113.251 15.0722 113.746C17.0372 115.703 19.5065 116.58 22.1985 116.88C26.2771 117.334 30.2055 116.454 34.108 115.425C35.6396 115.021 37.166 114.596 38.6942 114.181C38.7046 114.225 38.715 114.266 38.7253 114.309C38.2418 114.615 37.7583 114.922 37.2731 115.228C37.3111 115.324 37.3474 115.419 37.3853 115.516C37.6806 115.447 37.9932 115.418 38.2694 115.302C39.4644 114.805 40.642 114.268 41.8404 113.782C42.0666 113.691 42.3636 113.769 42.6278 113.769C42.6278 113.85 42.6278 113.931 42.6295 114.012C42.1495 114.24 41.6694 114.468 41.1894 114.694L41.3103 115.052C41.7799 114.948 42.2652 114.888 42.7193 114.734C44.5151 114.128 46.2972 113.475 48.0982 112.885C48.4401 112.772 48.851 112.869 49.2309 112.869C49.2447 112.964 49.2585 113.059 49.2706 113.154C48.3313 113.777 46.9153 113.662 46.3231 114.824C46.3645 114.908 46.4059 114.993 46.4474 115.078C48.7612 114.187 51.0751 113.294 53.4528 112.379C53.4684 112.408 53.5772 112.624 53.7015 112.869C52.6447 113.358 51.6449 113.82 50.6451 114.282C50.6779 114.356 50.7107 114.43 50.7436 114.506C53.0142 113.876 55.2504 113.154 57.1239 111.828C57.4261 112.097 57.6506 112.297 57.901 112.52C57.4209 112.864 56.9582 113.197 56.4937 113.53C56.5506 113.643 56.6076 113.755 56.6646 113.867C58.3378 113.201 60.0093 112.536 61.6791 111.871C62.0176 112.834 62.2559 112.945 63.0433 112.42C63.5354 112.092 63.9619 111.652 64.3694 111.217C64.5835 110.989 64.6906 110.66 64.8477 110.377C64.9185 110.407 64.991 110.434 65.0618 110.464C65.0549 110.571 65.0584 110.679 65.0411 110.785C64.9565 111.318 65.4262 112.206 65.8959 112.268C66.6004 112.361 66.9595 111.931 67.0856 111.294C67.2237 110.59 67.3774 109.883 67.4344 109.17C67.4966 108.373 67.8402 108.215 68.5689 108.419C69.6188 108.713 70.6824 108.963 71.7548 109.162C75.1668 109.797 79.0037 106.941 79.52 104.22C79.8843 102.294 80.0121 100.271 79.8843 98.3142C79.6443 94.6465 78.1887 91.269 76.7054 87.9761L76.6933 87.9726ZM3.76535 74.3796C3.76535 74.6679 3.8068 74.9649 3.75845 75.2447C3.59613 76.184 3.36302 77.113 3.2456 78.0575C3.21279 78.3235 3.48735 78.6274 3.68765 79.0608C3.48389 79.23 3.17653 79.4839 2.82945 79.7705C2.53245 78.4547 3.00213 75.2222 3.76535 74.3796ZM3.49253 87.1472C2.92097 86.3926 3.31985 85.5914 3.32158 84.8075C3.44763 84.7971 3.57368 84.7885 3.69974 84.7781C3.77053 85.5569 3.8396 86.3356 3.9104 87.1161C3.77053 87.1265 3.63067 87.1368 3.49253 87.1455V87.1472ZM6.05158 93.0907C5.97388 93.2202 5.70105 93.3204 5.54392 93.2876C5.40923 93.2599 5.27972 93.0406 5.2141 92.8801C5.0846 92.5641 4.94646 92.2342 4.91883 91.9027C4.89811 91.6558 5.04661 91.395 5.1623 90.9962C5.55255 91.7179 5.79084 92.122 5.98769 92.5433C6.06367 92.7074 6.12756 92.9629 6.05158 93.0907ZM5.73213 72.0277C5.66997 71.9258 5.60608 71.8257 5.54392 71.7238C5.95488 71.3836 6.36413 71.0435 6.88733 70.61C7.00648 71.002 7.07555 71.2265 7.14807 71.4665C6.62832 71.672 6.17936 71.8499 5.73213 72.0277ZM73.428 85.2823C73.9011 86.27 74.2931 87.0902 74.7161 87.9726C73.851 87.6514 72.9808 86.0956 73.428 85.2823ZM52.7656 7.58853C53.6238 8.61422 54.3197 9.44652 55.0484 10.3185C53.976 10.7865 53.0574 10.5896 52.3374 9.70035C51.7105 8.92504 52.7794 8.49507 52.7656 7.5868V7.58853ZM51.4204 7.61443C51.3531 7.77674 51.101 8.02367 51.0388 7.99604C50.7971 7.88726 50.4621 7.72149 50.4051 7.51082C50.2169 6.81321 50.134 6.08797 50.0062 5.34719C51.0578 5.56131 51.7762 6.75623 51.4204 7.61443ZM50.1323 9.51904L50.2376 9.75388C49.9216 10.2149 49.6039 10.676 49.2499 11.1905C49.0513 11.0714 48.8458 10.9488 48.5437 10.7692C49.1169 10.3168 49.6246 9.91792 50.1306 9.51904H50.1323ZM46.7651 5.33683C45.0815 6.07934 43.3979 6.82185 41.7143 7.56435C41.6763 7.47801 41.6384 7.3934 41.6004 7.30706C43.1458 6.24165 44.655 5.09854 46.6563 5.04328L46.7651 5.33683ZM44.9883 11.6689C44.3839 12.066 43.7795 12.4632 43.1752 12.8603C43.1113 12.7688 43.0457 12.6773 42.9818 12.5858C43.5827 12.1921 44.1836 11.7984 44.7845 11.4047C44.8519 11.4927 44.9209 11.5808 44.9883 11.6689ZM42.1046 5.19869C41.3655 5.35755 40.6178 5.51987 39.8684 5.68046C41.7333 4.67721 41.7834 4.67203 42.1046 5.19869ZM40.0687 2.20795C40.0998 2.33227 40.1326 2.4566 40.1637 2.58093C38.9722 2.84167 37.7808 3.10241 36.5893 3.36142C36.572 3.29926 36.5565 3.23709 36.5392 3.17666C37.7152 2.85375 38.8911 2.53085 40.0687 2.20795ZM37.6858 13.7099C37.7445 13.7893 37.805 13.8687 37.8637 13.9482C37.4095 14.2797 36.9554 14.6113 36.5012 14.9428C36.4408 14.8703 36.3804 14.796 36.3182 14.7235C36.4857 14.0518 37.1419 13.9482 37.6841 13.7099H37.6858ZM35.6845 10.3876C35.7397 10.4878 35.7967 10.5879 35.852 10.6898C35.1457 11.0679 34.4395 11.4461 33.7332 11.8243C33.6814 11.7293 33.6279 11.636 33.5761 11.5411C34.2789 11.156 34.9817 10.7727 35.6845 10.3876ZM30.2746 21.7186C30.461 21.7549 30.7114 21.5407 30.9117 21.4095C31.0999 21.2852 31.2623 21.1194 31.4349 20.9709C31.5075 21.0624 31.58 21.1557 31.6542 21.2472C31.0102 21.7169 30.3661 22.1865 29.6236 22.7287C29.5234 22.0208 29.444 21.5563 30.2746 21.7186ZM27.6499 24.7594C27.6499 24.7594 27.6602 24.775 27.6637 24.7819C27.0438 25.3448 26.4239 25.9077 25.804 26.4706L25.652 26.31C26.3186 25.7937 26.9834 25.2774 27.6499 24.7611V24.7594ZM24.666 30.3541C24.9596 30.475 25.2549 30.5959 25.5484 30.715C25.5052 30.8497 25.4621 30.9844 25.4189 31.1208C25.1098 31.031 24.799 30.9412 24.4899 30.8514C24.5486 30.6856 24.6073 30.5199 24.666 30.3541ZM22.865 9.83504C22.5663 10.2926 22.3021 10.6967 22.0137 11.1387C21.601 10.3393 21.9205 9.83159 22.865 9.83504ZM20.8672 15.6698L21.1763 15.9909C20.5857 16.5815 19.9969 17.172 19.4063 17.7609C19.3217 17.6797 19.2371 17.5985 19.1525 17.5157C19.7241 16.8992 20.2956 16.2845 20.8672 15.668V15.6698ZM22.606 29.9518C23.0584 30.4681 23.4936 31.0241 23.8165 31.6267C24.6885 33.2637 26.6743 33.2257 27.8415 31.8478C28.8672 30.639 29.3576 29.1972 29.6961 27.7191C30.0742 26.0648 30.9653 25.0461 32.5038 24.2915C36.0108 22.5716 39.5144 20.8086 42.8574 18.7969C45.6168 17.1358 47.9376 14.8599 50.0425 12.401C50.45 11.9244 50.8748 11.4599 51.3963 10.8745C51.7503 11.1215 52.144 11.2872 52.3805 11.5791C54.0451 13.6253 55.8496 15.5886 57.2603 17.8006C58.179 19.239 58.5347 21.0452 59.0976 22.7011C59.531 23.9737 59.3066 25.2602 59.0303 26.5328C58.552 28.7379 58.4932 30.9516 58.5571 33.2119C58.7229 39.0829 57.4779 44.6845 54.8826 49.9718C54.7686 50.2032 54.6426 50.4311 54.5062 50.6504C53.9594 51.5334 53.2065 51.8304 52.2476 51.5414C51.1701 51.2151 50.134 51.3912 49.319 52.1026C48.0274 53.2302 46.7185 54.382 45.6496 55.7098C44.8346 56.7217 44.0644 56.9928 42.7936 56.865C37.8896 56.3729 33.697 54.3215 30.2711 50.925C28.5478 49.2155 27.3632 46.9586 25.9438 44.9435C25.7798 44.7104 25.6745 44.4358 25.5242 44.1906C25.1668 43.6053 24.9009 43.2824 23.9805 43.5707C22.2917 44.0991 20.7083 43.5552 19.4443 42.2273C17.7469 40.4453 16.5865 38.3283 16.2878 35.9315C16.0063 33.6799 16.1842 31.3867 18.1303 29.6824C19.4823 28.4978 21.3835 28.5652 22.606 29.957V29.9518ZM23.6611 63.7859C22.9168 62.8897 22.1519 62.0108 21.3714 61.0956C25.3757 59.8679 26.2754 56.7459 26.4498 53.2009C26.5016 52.1562 26.36 51.1011 26.2926 49.7802C26.7623 50.3431 27.0662 50.735 27.3978 51.0994C29.8515 53.7949 32.6419 56.0984 35.719 58.0375C37.8049 59.3533 40.0964 60.0768 42.5984 59.8834C43.2926 59.8299 43.6276 60.0803 43.9004 60.7002C44.08 61.1077 44.5289 61.3909 44.8242 61.7569C45.0729 62.066 45.3526 62.3889 45.4752 62.7533C45.6289 63.2074 45.5184 63.7686 45.7239 64.183C46.4716 65.694 45.6358 66.8647 45.0073 68.0959C44.3649 69.353 43.3012 70.0955 42.0096 70.5358C39.675 71.3318 37.2973 71.1263 34.9316 70.7292C30.24 69.9435 26.6363 67.3724 23.6611 63.7859ZM29.2782 72.411C28.7809 73.3919 28.4079 73.5352 27.6205 72.9515C28.1351 72.784 28.6479 72.6165 29.2782 72.411ZM20.7221 50.053C20.6479 50.7886 20.5736 51.5242 20.4994 52.2598C20.3543 52.2408 20.2093 52.2218 20.0642 52.2045C20.173 51.4741 20.2818 50.742 20.3906 50.0115C20.5011 50.0253 20.6116 50.0392 20.7221 50.0547V50.053ZM17.7331 78.0765C17.1149 78.3908 16.4967 78.7068 15.8786 79.0211C15.8371 78.9486 15.7957 78.8778 15.7542 78.8052C16.4225 78.4167 17.0908 78.0282 17.6105 77.7277C17.9749 78.1318 18.2529 78.4392 18.5879 78.8104C18.353 79.0073 17.9282 79.3647 17.5034 79.7204L17.3014 79.5685C17.4965 79.142 17.6917 78.7137 17.8885 78.2872L17.7331 78.0783V78.0765ZM14.8598 69.1026C14.7976 68.9817 14.7337 68.8608 14.6716 68.7382C15.5453 68.2772 16.419 67.8179 17.2928 67.3568C17.3515 67.4811 17.4102 67.6055 17.4706 67.7298C16.6004 68.1874 15.7301 68.645 14.8598 69.1026ZM17.8678 12.4701C17.942 12.5322 18.018 12.5961 18.0923 12.6583C17.6917 13.1504 17.2911 13.6425 16.8904 14.1347C16.8058 14.0639 16.7212 13.9931 16.6383 13.924C17.0476 13.4405 17.4586 12.9553 17.8678 12.4718V12.4701ZM17.7901 19.6862C18.0905 20.1576 17.5673 20.9381 16.4898 21.4078C16.9215 20.8362 17.3532 20.2647 17.7901 19.6862ZM16.1117 14.8841C16.4294 15.9167 15.6921 17.1738 14.5714 17.4725C15.0514 16.6678 15.5298 15.8632 16.1117 14.8841ZM15.0307 47.955C15.1637 47.9757 15.2966 47.9947 15.4313 48.0154C15.7542 48.4246 15.4244 48.7994 15.2466 49.212C15.0584 49.6524 14.9358 50.1238 14.8183 50.59C14.7061 51.0407 14.6388 51.5035 14.5507 51.9628L14.1656 51.8747C14.454 50.5693 14.7424 49.2621 15.0307 47.9567V47.955ZM15.0273 28.6481C15.1378 28.6861 15.2466 28.7223 15.3571 28.7603L14.6612 30.8342C14.5524 30.8048 14.4454 30.7754 14.3366 30.7478C13.6338 29.7238 14.9444 29.4009 15.0273 28.6498V28.6481ZM14.877 19.7156C14.3176 21.4648 13.7581 23.2157 13.1986 24.9649C12.9793 22.9653 13.9101 21.318 14.877 19.7156ZM16.5814 62.7188C14.9513 63.6443 13.4887 64.4731 12.0262 65.302C13.1106 63.7565 14.7993 63.3231 16.5814 62.7188ZM12.1229 78.1059C11.6653 78.4892 11.206 78.8743 10.7484 79.2577C10.6741 79.1696 10.5999 79.0815 10.5273 78.9917C10.9936 78.617 11.4581 78.2406 11.9243 77.8659C11.9916 77.9453 12.0572 78.0247 12.1246 78.1059H12.1229ZM12.3905 45.5289C11.983 47.1831 11.5772 48.8373 11.1403 50.6107C10.8157 49.4987 11.4926 46.3923 12.3905 45.5289ZM10.3961 47.6718C10.4894 47.6856 10.5809 47.7011 10.6741 47.7149C10.479 49.0912 10.2856 50.4691 10.0905 51.8454C9.96442 51.8229 9.83664 51.7987 9.71058 51.7763C9.94024 50.4087 10.1682 49.0411 10.3978 47.6718H10.3961ZM9.72267 40.7026C9.84527 40.7388 9.96787 40.7734 10.0905 40.8096C9.59144 42.4984 9.09068 44.1889 8.59164 45.8777C8.49495 45.85 8.39825 45.8207 8.30155 45.7931C8.77468 44.0957 9.24954 42.4 9.72267 40.7026ZM7.54178 49.8751C7.64711 52.1182 7.75417 54.4165 7.85259 56.5577C7.10663 55.5717 6.84934 51.0873 7.54178 49.8751ZM8.50703 46.3698C8.32054 47.2556 8.17722 47.9377 8.01663 48.6992C7.59358 47.955 7.7369 47.1468 8.50703 46.3698ZM9.53273 60.4187C9.0855 59.614 8.63654 58.8094 8.18931 58.0047C8.30673 57.9408 8.42242 57.8752 8.53984 57.8113C8.9698 58.6263 9.39977 59.4396 9.83146 60.2547L9.53273 60.4187ZM44.0696 113.746C44.0334 113.76 43.9712 113.703 43.9004 113.629C43.8659 113.591 43.8296 113.549 43.7933 113.51C43.7571 113.47 43.7225 113.43 43.6897 113.401C43.7433 113.351 43.8037 113.28 43.8624 113.214C43.8814 113.192 43.9021 113.171 43.9211 113.15C43.9591 113.109 43.9954 113.075 44.0282 113.05C44.061 113.026 44.0903 113.014 44.1128 113.021C44.6636 113.188 44.9796 113.087 45.3129 112.551C45.4562 112.322 46.0917 112.398 46.5044 112.335C46.5424 112.461 46.5803 112.588 46.6183 112.714C45.7722 113.064 44.9296 113.427 44.0714 113.746H44.0696ZM62.3681 104.605C61.1041 104.6 59.8367 104.562 58.5761 104.461C57.0635 104.342 55.6562 104.613 54.3473 105.373C49.6004 108.129 44.522 110.155 39.3331 111.847C34.828 113.316 30.2176 114.487 25.469 114.912C20.6444 115.342 16.6573 113.725 13.9273 109.656C11.9139 106.654 10.1267 103.501 8.29119 100.386C8.15477 100.157 8.30846 99.5453 8.53293 99.3468C9.88844 98.1605 11.218 96.9103 12.7203 95.9364C15.0014 94.46 17.5708 93.5794 20.1955 92.8801C20.9829 92.6711 21.3835 92.8939 21.7098 93.6657C22.6716 95.9399 23.7232 98.176 24.7351 100.429C24.8025 100.58 24.8232 100.752 24.8663 100.913C24.7852 100.871 24.704 100.83 24.6229 100.789C23.8303 101.353 23.0239 101.899 22.2572 102.498C22.1018 102.619 21.9827 103.007 22.0621 103.147C22.1588 103.315 22.5007 103.441 22.7148 103.415C23.1033 103.367 23.5022 103.241 23.8527 103.061C28.1144 100.892 32.6506 99.5384 37.3007 98.5438C42.1633 97.506 47.0431 96.5477 51.9091 95.5237C54.1591 95.0506 56.397 94.5257 58.6297 93.9765C59.1391 93.8505 59.2634 94.0163 59.4084 94.4497C60.4445 97.5285 61.4892 100.604 63.1434 103.429C63.5647 104.149 63.2746 104.61 62.3681 104.606V104.605ZM78.054 103.458C77.5256 105.86 74.6937 107.696 72.0034 107.402C69.3321 107.112 67.3636 105.617 65.7387 103.631C63.5181 100.916 62.0918 97.7564 61.1801 94.41C59.9489 89.891 58.9284 85.3151 57.7991 80.7668C57.6903 80.3282 57.4848 79.9035 57.2603 79.508C56.9478 78.9589 56.6128 78.415 56.2226 77.9194C54.798 76.1167 54.6944 73.9461 54.4699 71.8067C54.444 71.5528 54.4872 71.2489 54.3628 71.0555C54.1435 70.7154 53.755 70.1507 53.553 70.1973C52.9953 70.3217 52.4979 70.7136 51.9747 71.0003C52.1491 71.1954 52.3149 71.5477 52.5014 71.558C53.6307 71.6236 53.1161 72.4525 53.1938 72.9826C53.2871 73.6198 52.8433 73.7476 52.3374 73.7856C51.2564 73.8684 50.6071 73.5041 50.115 72.5198C49.9734 72.2366 49.8387 71.95 49.7092 71.6616C48.9633 69.9798 49.3086 68.8971 51.0285 68.1943C52.213 67.7108 53.5029 67.4829 54.7479 67.1496C54.9396 67.0978 55.1692 67.1427 55.3402 67.0598C55.6631 66.901 55.9549 66.6817 56.2605 66.4865C55.8997 66.2603 55.5509 65.8666 55.1727 65.8373C52.5843 65.6404 50.3429 66.6212 48.1897 68.0907C47.5819 67.2325 47.682 66.471 48.2846 65.7509C49.723 64.0311 51.676 63.2489 53.7861 62.7585C54.0089 62.7067 54.2886 62.7533 54.4561 62.6341C54.7237 62.4425 54.9189 62.1506 55.1451 61.902C54.8049 61.6948 54.406 61.2493 54.1315 61.3149C51.9108 61.8588 49.5866 62.2318 48.0274 64.1951C47.9566 64.2832 47.8668 64.3626 47.7735 64.4265C47.7079 64.4731 47.6198 64.487 47.5456 64.5146C46.8342 63.6253 46.9343 62.5547 47.7856 61.7794C49.8146 59.9318 52.2959 59.2307 54.9413 58.9078C55.3298 58.8612 55.689 58.5866 56.0637 58.4174C55.7028 58.1515 55.3695 57.8251 54.9689 57.6438C54.7065 57.5247 54.3456 57.5868 54.0348 57.6231C53.3907 57.6973 52.8537 57.7578 52.4064 57.0377C52.232 56.758 51.3462 56.6354 50.9698 56.8201C50.1098 57.2415 49.3207 57.8441 48.5886 58.4727C48.0723 58.9147 47.6872 59.5139 47.259 60.0544C46.9809 60.4049 46.7617 60.9695 46.1987 60.6242C45.6324 60.2754 44.9434 59.9059 45.1713 59.0252C45.2715 58.6384 45.363 58.205 45.5995 57.9063C46.6304 56.6008 47.5663 55.1676 48.8113 54.0988C50.8506 52.3461 51.859 52.6448 53.3112 53.6619C54.8135 54.7152 56.3659 55.7219 57.7456 56.922C59.7849 58.6971 60.7208 61.1215 61.1576 63.7306C61.6653 66.7645 62.1695 69.8019 62.5632 72.8531C62.9397 75.773 64.0983 78.3304 65.92 80.5821C68.9591 84.3361 72.0777 88.0261 75.1375 91.7628C77.9469 95.1939 79.0158 99.0774 78.0522 103.456L78.054 103.458Z" fill="black"/>
<path d="M175.207 86.8007C175.03 83.6994 174.854 80.5982 174.716 77.4969C174.689 76.8649 174.645 76.1241 174.925 75.6044C176.386 72.8916 177.16 70.1115 176.576 66.9878C175.759 62.6122 173.58 59.6284 168.761 59.3297C168.521 59.3141 168.161 58.986 168.098 58.7408C167.681 57.135 166.625 56.4114 165.029 56.351C163.045 56.275 161.063 56.1783 159.079 56.13C154.075 56.0074 149.07 55.9021 144.066 55.8054C143.484 55.7933 143.056 55.7052 142.99 55.0076C142.832 53.3637 142.916 51.7855 144.025 50.43C144.553 49.7841 144.995 49.0468 145.608 48.496C147.843 46.4809 148.787 43.8406 149.435 41.0243C149.499 40.7463 149.863 40.3681 150.125 40.3336C152.059 40.0867 153.201 38.8451 154.021 37.2565C155.589 34.2174 155.976 30.9538 155.546 27.6057C155.349 26.0757 154.755 24.6529 153.463 23.6583C152.526 22.9365 152.356 21.9609 152.496 20.8765C152.548 20.4776 152.633 20.0822 152.703 19.6867C153.175 17.0016 153.356 14.3182 152.595 11.6504C152.075 9.82695 151.661 9.57657 149.735 9.75442C149.473 9.7786 149.074 9.61456 148.927 9.40389C146.931 6.54783 144.456 4.24606 141.326 2.67816C138.102 1.06365 134.628 0.436832 131.084 0.165731C126.73 -0.16926 122.411 -0.0708351 118.198 1.33647C115.706 2.16877 113.777 3.6417 112.467 5.90375C111.974 6.75159 111.831 7.6685 112.161 8.64066C112.275 8.97738 112.299 9.36763 112.266 9.72507C111.893 13.8486 111.41 17.9634 111.144 22.0938C110.897 25.9342 110.752 29.7917 110.788 33.6389C110.823 37.3135 111.03 40.9967 111.384 44.6557C111.764 48.5823 113.876 51.4211 117.415 53.2135C119.061 54.0458 120.781 54.5241 122.606 54.6899C122.898 54.7158 123.183 54.8246 123.471 54.8954C123.273 55.1354 123.112 55.2131 122.951 55.2131C121.917 55.2079 120.883 55.1803 119.848 55.1699C117.303 55.144 114.749 55.0646 112.769 57.1263C112.582 57.3214 112.192 57.3819 111.892 57.3992C108.315 57.5925 105.917 59.5403 104.263 62.5483C102.957 64.9244 103.353 67.4523 103.707 69.9751C103.807 70.6969 104.002 71.5309 103.752 72.1543C102.291 75.8081 100.721 79.4205 99.1636 83.0363C98.8113 83.8548 98.3641 84.6301 97.8444 85.6541C97.6061 85.0342 97.4558 84.7009 97.3453 84.3539C96.7461 82.4631 96.178 80.5619 95.5547 78.678C95.3216 77.9718 95.5046 77.4589 95.8914 76.8476C96.7461 75.4956 97.6458 74.1314 98.2208 72.6533C99.7196 68.7992 101.066 64.8829 102.441 60.9804C102.646 60.3951 102.769 59.7406 102.755 59.1225C102.726 57.8585 101.952 56.9865 100.918 56.4028C99.9337 55.8468 99.022 56.2629 98.2035 56.8898C97.8271 57.1781 97.4817 57.5045 97 57.9172C97 56.3562 96.962 54.9903 97.0086 53.6279C97.0777 51.6456 97.2452 49.6667 96.6201 47.7258C96.2385 46.543 95.4787 45.7781 94.4219 45.9266C93.5965 46.0423 93.2287 45.6641 92.8022 45.1081C91.4588 43.352 89.9876 43.2466 88.3455 44.6868C88.0536 44.9423 87.5995 45.1547 87.2231 45.1495C85.1251 45.1184 84.0579 45.8333 83.2636 47.7759C83.103 48.1679 82.6886 48.572 82.2949 48.7325C81.0344 49.2437 80.0035 50.0017 79.4958 51.264C79.0279 52.4278 78.5616 53.6348 78.3821 54.866C77.9728 57.6772 77.6672 60.509 77.4531 63.3427C77.2182 66.4681 77.0559 69.6039 77.8312 72.7017C78.4874 75.3212 79.2575 77.8595 81.4108 79.721C81.6594 79.9368 81.7717 80.3616 81.8528 80.7121C82.9252 85.4175 83.735 90.192 85.593 94.6851C86.3925 96.6208 87.1108 98.6065 88.102 100.442C89.8028 103.593 92.4569 105.351 96.1556 104.914C100.224 104.434 102.881 101.817 105.116 98.648C106.062 97.3063 107.019 95.9715 107.972 94.6332C108.146 98.2577 108.141 101.789 108.15 105.318C108.151 106.094 108.139 106.878 108.252 107.641C108.283 107.848 108.509 108.024 108.716 108.206C108.751 108.235 108.785 108.266 108.818 108.295C108.851 108.325 108.882 108.356 108.911 108.387C108.965 108.33 109.023 108.273 109.084 108.218C109.265 108.052 109.457 107.89 109.524 107.686C109.666 107.258 109.704 106.783 109.711 106.325C109.775 101.578 109.869 96.8331 109.861 92.0863C109.854 88.2045 109.673 84.3245 109.654 80.4427C109.633 76.2467 109.597 72.0455 109.787 67.8564C109.921 64.9036 110.66 62.0441 112.606 59.6698C113.933 58.0519 115.511 56.9157 117.757 57.0193C119.394 57.0935 121.038 57.0832 122.677 57.0486C123.378 57.0348 123.632 57.2386 123.625 57.9673C123.606 59.8891 124.202 60.6006 126.098 60.9856C127.31 61.2308 128.532 61.419 129.755 61.6124C134.101 62.3031 138.166 61.5848 141.897 59.1846C142.134 59.0327 142.409 58.8444 142.669 58.8393C144.728 58.8065 146.789 58.784 148.848 58.8237C149.894 58.8444 150.921 58.8911 151.876 58.4179C151.873 58.3402 151.869 58.2643 151.864 58.1866H143.225C143.322 57.9275 143.489 57.7238 143.655 57.7255C150.352 57.779 157.048 57.8516 163.979 57.9224C163.081 58.6493 162.425 59.1863 161.76 59.7113C161.681 59.7734 161.524 59.8356 161.455 59.7976C160.878 59.4903 160.685 59.9703 160.431 60.288C157.892 63.4532 156.865 67.0517 156.948 71.1148C157.079 77.585 156.97 84.0603 156.996 90.5322C157.02 96.4014 157.088 102.269 157.148 108.138C157.152 108.466 157.279 108.793 157.376 109.243C158.281 108.554 158.733 107.864 158.607 106.917C158.353 105.015 158.941 103.302 159.719 101.615C160.426 100.083 161.063 98.5202 161.788 96.9989C162.318 95.8869 162.941 94.8197 163.613 93.5661C164.11 95.899 163.105 97.4997 161.957 99.0641C161.729 99.3749 161.379 99.9292 161.491 100.095C161.888 100.682 161.515 101.072 161.332 101.526C160.923 102.538 160.438 103.528 160.12 104.567C159.92 105.222 159.968 105.952 159.904 106.65C160.009 106.664 160.115 106.679 160.22 106.693C160.795 103.447 162.335 100.584 163.596 97.6102C163.675 98.6635 164.119 99.8083 162.883 100.471C162.824 100.502 162.8 100.62 162.779 100.701C162.496 101.804 162.197 102.906 161.942 104.016C161.814 104.574 161.771 105.151 161.688 105.719C162.116 104.885 162.344 104.011 162.563 103.134C162.896 101.804 163.28 101.025 163.715 100.794C163.919 103.422 163.042 106.166 164.604 108.772C165.955 107.318 165.195 105.522 165.732 104.008C168.446 105.937 171.043 105.284 173.751 103.865C173.751 104.992 173.727 106.049 173.76 107.104C173.78 107.803 173.76 108.611 174.521 108.938C174.998 109.141 175.492 108.366 175.547 107.206C175.687 104.222 175.915 101.231 175.851 98.2508C175.77 94.4312 175.429 90.6185 175.212 86.8024L175.207 86.8007ZM104.064 76.3296C104.349 75.3764 104.7 74.444 105.062 73.401C105.915 74.0209 106.735 74.6184 107.69 75.3108C107.302 75.3972 107.083 75.4455 106.917 75.4835C107.24 75.9428 107.545 76.3814 107.853 76.8183C107.758 76.9547 107.661 77.0911 107.566 77.2275C107.117 77.1015 106.67 76.9754 106.19 76.8407C106.214 77.4848 106.615 77.8923 107.188 78.1358C107.813 78.4017 107.955 78.8248 107.771 79.3532C106.582 78.6037 105.38 77.8716 104.216 77.0825C104.061 76.9771 103.997 76.5541 104.064 76.3313V76.3296ZM87.8982 52.5711C87.9535 51.0309 88.1797 49.4837 88.4905 47.9728C88.6321 47.2838 89.1104 46.6363 89.5456 46.0526C89.7044 45.8402 90.3105 45.69 90.4884 45.8195C90.813 46.0561 91.2188 46.5689 91.1601 46.8849C90.3813 51.036 90.5074 55.2373 90.3571 59.4246C90.3485 59.6543 90.0809 60.0169 89.8702 60.0704C89.2727 60.2241 88.6407 60.2483 87.8723 60.3433C87.8723 57.7255 87.805 55.1457 87.8982 52.5711ZM82.9977 61.015C83.4328 57.5718 83.7644 54.1079 84.3791 50.6959C84.6018 49.4612 85.498 48.344 86.1179 47.1888C86.1853 47.0645 86.4909 46.9609 86.6256 47.011C86.7637 47.0628 86.857 47.3045 86.914 47.4806C86.9554 47.6067 86.9261 47.7673 86.8967 47.9072C86.0938 51.7734 86.4253 55.6897 86.3666 59.5887C86.3459 60.9252 86.3683 60.9304 85.1009 61.2654C84.4913 61.4259 83.8766 61.571 83.2636 61.7178C83.217 61.7281 83.1565 61.6867 83.0374 61.6487C83.0236 61.4536 82.9718 61.2291 82.9994 61.015H82.9977ZM80.2124 74.1245C78.9001 71.3237 78.705 68.2967 78.9657 65.2507C79.2368 62.0718 79.5234 58.8928 79.9258 55.7294C80.0881 54.4602 80.5284 53.2187 80.9342 51.9944C81.1794 51.2553 81.6836 50.6786 82.5056 50.5629C82.1706 54.0769 81.82 57.4458 81.5386 60.8216C81.4004 62.4724 81.4591 62.4776 80.4162 63.8866C80.8479 63.8866 81.2036 63.9557 81.523 63.8762C84.1443 63.2218 86.7568 62.5276 89.3763 61.8697C90.4331 61.6038 91.5054 61.4052 92.5674 61.16C92.9024 61.0823 93.227 60.9545 93.726 60.7957C93.4342 60.6213 93.3479 60.5453 93.2477 60.5142C91.875 60.0877 91.8214 60.086 91.9268 58.6321C92.134 55.738 92.3809 52.8474 92.6693 49.9603C92.7297 49.3473 92.9835 48.7325 93.2546 48.1696C93.6052 47.4409 94.339 47.3891 94.712 48.1075C95.0194 48.698 95.2024 49.406 95.2421 50.0725C95.3181 51.333 95.2387 52.6005 95.2456 53.8662C95.2577 55.9055 95.3336 57.9465 95.2818 59.9841C95.2646 60.7076 94.9969 61.438 94.7655 62.1391C94.5134 62.8989 94.1336 63.6155 93.8763 64.3735C93.6224 65.1264 93.1545 65.5702 92.3895 65.7757C90.7422 66.2177 89.3211 67.0517 88.1607 68.3192C87.0694 69.5089 86.4547 70.8989 86.3614 72.5117C86.3459 72.7742 86.389 73.0401 86.4063 73.3026C86.484 73.3181 86.5617 73.3319 86.6411 73.3475C86.7499 73.1075 86.8656 72.8709 86.9692 72.6274C88.2419 69.647 90.2967 67.549 93.5654 66.8739C94.377 66.7064 94.8053 66.3023 94.9935 65.4977C95.6272 62.7918 97.2866 60.6316 98.8752 58.449C99.1032 58.1347 99.7472 57.7894 99.9993 57.9016C100.388 58.076 100.802 58.6131 100.845 59.0344C100.913 59.6906 100.787 60.4175 100.557 61.0478C99.0548 65.1488 97.5992 69.2723 95.9363 73.3095C94.3857 77.0704 91.2792 78.7643 87.3353 79.0613C86.6809 79.1114 86.0022 79.127 85.3616 79.013C82.5884 78.5209 81.2813 76.3797 80.2228 74.1228L80.2124 74.1245ZM83.5226 80.7777C87.0918 81.6446 90.4176 81.5738 93.2909 79.0164C93.3513 79.1356 93.41 79.2547 93.4705 79.3739C92.8264 79.809 92.1858 80.2494 91.5382 80.6793C90.8613 81.1283 90.1793 81.5703 89.5007 82.0141C89.5646 82.1229 89.6284 82.2334 89.6923 82.3422C91.0547 81.591 92.4172 80.8399 93.9868 79.9748C92.9127 81.1369 91.9855 82.1401 91.0599 83.1417C91.1152 83.2021 91.1687 83.2608 91.224 83.3213C92.4983 82.8309 93.1787 81.6342 94.0334 80.6431C94.1215 80.7 94.2078 80.7553 94.2959 80.8123C93.9125 81.4702 93.6501 82.2507 93.1251 82.7618C91.3258 84.5179 89.0655 85.4486 86.6342 85.9235C85.6362 86.1186 84.8885 85.5125 84.5949 84.5162C84.2496 83.3368 83.9163 82.1522 83.5226 80.7795V80.7777ZM86.073 90.4666C85.7657 89.3183 85.4272 88.1804 85.1026 87.0372L85.3012 86.8507C88.0036 87.9041 90.4366 87.0217 92.8247 85.8026C92.8644 85.882 92.9041 85.9632 92.9438 86.0426C92.7055 86.2084 92.4793 86.3949 92.2255 86.5348C91.9527 86.6867 91.6539 86.7972 91.2758 86.9647C92.8454 87.9835 94.4392 86.3569 94.6878 83.7409C95.8724 85.3295 94.94 86.9526 91.5745 89.1525C91.7967 89.2964 92.4736 89.1686 93.6052 88.7692C93.6725 88.8331 93.7399 88.8987 93.8072 88.9626C93.3703 89.2078 92.9335 89.453 92.4983 89.6999C92.576 89.7759 92.6537 89.8519 92.7331 89.9296C93.5102 89.9934 93.8901 89.6757 94.301 88.7346C94.6499 87.9369 95.0591 87.1633 95.5443 86.4208C95.976 87.222 95.8931 87.9127 95.344 88.5637C94.194 89.9261 92.6848 90.6911 91.0513 91.3144C89.7908 91.7962 88.5492 91.8411 87.2593 91.5648C86.6377 91.4318 86.2423 91.0986 86.073 90.4683V90.4666ZM88.3161 96.5914C87.9259 95.6141 87.5684 94.6229 87.1695 93.5627C91.0686 93.6145 94.624 93.0395 97.1226 89.6844C97.1882 89.769 97.2521 89.8553 97.3177 89.9399C96.57 90.8879 95.8223 91.8359 95.0746 92.7822C95.8465 92.9065 96.0589 92.7114 97.1882 90.843C97.3609 91.4249 97.2072 91.962 96.684 92.4593C96.2385 92.8823 95.7688 93.2795 95.3112 93.687C95.3716 93.7733 95.4338 93.8597 95.4942 93.9443C95.9622 93.6922 96.4319 93.4383 97.1329 93.0602C96.5717 94.357 96.3438 95.6261 95.2404 96.3186C93.7416 97.2596 92.0925 97.8709 90.2863 97.8951C89.1605 97.9106 88.7288 97.6223 88.3178 96.5897L88.3161 96.5914ZM99.3725 99.033C99.3794 100.397 98.2225 102.143 96.8204 102.511C94.0507 103.239 92.7694 102.803 90.1447 100.057C92.5449 99.9966 94.2527 99.4216 96.5182 98.0298L95.5271 99.1936C96.6063 98.9432 97.0915 98.1248 97.5025 97.251C97.9013 96.4032 98.2691 95.5415 98.6853 94.6091C99.0237 96.0509 96.924 100.093 95.3267 101.419C97.7408 100.28 98.5989 98.0194 99.3639 95.4621C99.6989 96.9281 99.2206 98.0799 98.6542 99.0779C98.0982 100.057 97.1744 100.827 96.4958 101.592C97.3177 101.691 98.15 101.014 99.3674 99.033H99.3725ZM101.165 100.281C102.018 97.5946 101.957 95.1133 100.64 92.7217C100.745 92.6768 100.851 92.6302 100.956 92.5853C101.436 93.4193 102.078 94.205 102.351 95.1029C102.622 95.9957 102.522 97.0024 102.645 97.9642C103.216 96.7434 103.349 95.4103 102.697 94.2482C102.078 93.1482 101.111 92.24 100.258 91.2816C100.167 91.178 99.8198 91.3023 99.4692 91.3317C99.262 90.9518 98.9685 90.4165 98.6318 89.8035C100.937 90.9518 102.895 93.2553 103.387 95.324C103.867 97.3494 103.171 99.002 101.165 100.283V100.281ZM107.402 92.3833C106.83 93.2622 106.148 94.0703 105.541 94.8664C104.574 93.2069 103.841 91.5648 102.747 90.2162C102.03 89.3338 100.83 88.7951 99.7697 88.2563C98.8338 87.7797 98.7734 87.8074 99.3639 86.9354C99.6367 86.533 99.913 86.1151 100.091 85.6662C100.393 84.8995 100.839 84.7994 101.571 85.0981C103.467 85.8682 104.779 87.298 105.951 88.8797C106.513 89.636 107.026 90.4407 107.455 91.2782C107.606 91.57 107.582 92.1087 107.404 92.3833H107.402ZM107.804 87.9921C107.404 87.4499 107.015 86.8974 106.602 86.3673C105.475 84.922 104.009 83.9256 102.317 83.2729C101.572 82.9863 101.305 82.6495 101.726 81.8742C102.151 81.0937 102.472 80.258 102.843 79.4481C103.059 78.9785 103.334 78.842 103.862 79.0976C105.389 79.8367 106.608 80.8762 107.367 82.4078C107.523 82.7221 107.599 83.0778 107.782 83.6217C106.877 83.152 106.181 82.7911 105.485 82.4302C105.421 82.489 105.359 82.5459 105.295 82.6046C106.145 83.5595 106.993 84.5144 107.842 85.4693C107.78 85.5367 107.718 85.604 107.656 85.6714C106.882 85.3088 106.808 83.8151 105.345 84.3349C106.347 84.915 106.454 86.1652 107.592 86.6004C107.863 86.704 107.882 87.4637 108.017 87.9213C107.946 87.9455 107.873 87.9697 107.803 87.9921H107.804ZM107.794 68.5333C107.635 69.3552 107.571 69.9959 106.521 69.8353C106.435 69.8214 106.331 69.913 106.01 70.058C106.67 70.3119 107.139 70.4932 107.607 70.6727C107.606 70.7384 107.604 70.8023 107.602 70.8679C107.307 70.9611 107.01 71.0544 106.487 71.2201C106.951 71.4774 107.243 71.6397 107.611 71.8435C107.585 72.0783 107.552 72.3701 107.497 72.8657C105.147 70.2082 104.7 67.3228 105.497 64.2043C106.088 61.8956 108.59 59.5921 110.61 59.3901C108.833 62.2444 108.398 65.4217 107.796 68.535L107.794 68.5333ZM143.32 43.0083C143.567 41.6839 143.776 40.5512 143.987 39.4167C144.574 40.5943 144.241 42.4385 143.32 43.0083ZM145.335 35.2258C146.276 35.105 147.173 34.9893 148.067 34.8736C148.095 35.0083 148.124 35.1447 148.152 35.2794C147.594 35.3951 147.036 35.5125 146.366 35.6524C147.216 36.2049 148.452 35.452 148.899 36.6936C147.117 37.2461 146.071 36.8386 145.335 35.2258ZM147.021 37.291C147.894 37.7935 148.927 37.013 149.613 38.0007C148.62 38.4186 147.477 38.1562 147.021 37.291ZM153.538 27.3812C153.926 30.4151 153.926 33.4127 152.507 36.236C152.331 36.5883 152.084 36.9301 151.79 37.1892C151.616 37.3428 151.156 37.4534 151.058 37.3532C150.851 37.1443 150.706 36.7816 150.709 36.4846C150.713 36.1945 150.904 35.8906 151.06 35.6195C151.816 34.2986 152.593 32.9897 153.344 31.6653C153.465 31.4511 153.493 31.1852 153.563 30.9418C153.498 30.9141 153.432 30.8865 153.365 30.8589C152.424 32.356 151.483 33.8548 150.543 35.3519C150.138 34.4281 149.996 33.6838 150.611 32.8688C151.505 31.6825 152.246 30.3788 153.028 29.1114C153.187 28.8541 153.241 28.5312 153.344 28.2394C153.259 28.1979 153.173 28.1582 153.089 28.1168C152.006 29.7123 150.923 31.3061 149.841 32.9016C150.065 30.3598 151.735 28.5485 153.066 26.3296C153.278 26.7906 153.498 27.0755 153.536 27.3846L153.538 27.3812ZM149.642 13.8572C149.583 13.2977 149.525 12.74 149.457 12.1184C149.923 12.3071 149.985 12.8868 149.642 13.8572ZM146.848 25.9152C147.753 24.5355 149.727 23.8828 151.262 24.4353C151.51 24.5251 151.693 24.7945 151.894 25.0138C151.916 25.038 151.939 25.0604 151.961 25.0829C151.977 25.0829 151.99 25.0811 152.004 25.0811C152.018 25.107 152.025 25.1295 152.035 25.1537C152.158 25.2659 152.28 25.3781 152.403 25.4886C152.543 25.6164 152.681 25.7425 152.817 25.8668C151.769 27.3777 150.785 28.7988 149.657 30.4237C150.06 28.6901 150.725 27.3553 151.756 26.2156C151.797 26.1707 151.835 26.1258 151.869 26.0827C152.097 25.7926 152.189 25.5094 152.034 25.1537C152.015 25.1364 151.997 25.1208 151.978 25.1036C151.971 25.0967 151.964 25.0898 151.958 25.0829C151.904 25.0829 151.849 25.0863 151.797 25.0915C151.07 25.1588 150.55 25.5456 150.112 26.0481C149.953 26.2312 149.804 26.428 149.659 26.6318C148.316 28.5312 147.767 30.6499 147.875 32.9707C147.938 34.3193 147.882 34.3331 146.529 34.4523C146.017 34.4972 145.508 34.5576 144.759 34.637C144.759 33.6977 144.659 32.7324 144.779 31.7965C145.05 29.7019 145.672 27.6989 146.843 25.9152H146.848ZM145.083 19.2067C144.28 16.9049 144.441 14.6135 145.429 12.3446C145.313 14.636 145.197 16.9291 145.083 19.2067ZM142.692 6.69288C142.778 6.66007 142.864 6.62726 142.949 6.59445C143.583 7.46819 144.216 8.34193 144.85 9.21395C144.785 9.2623 144.719 9.30892 144.653 9.35727C143.982 8.73391 143.287 8.13127 142.661 7.46647C142.536 7.33523 142.674 6.95707 142.692 6.69288ZM139.573 4.2616C140.226 4.66048 140.88 5.05937 141.533 5.45825C141.455 5.57049 141.376 5.68445 141.298 5.79669C140.656 5.39263 140.014 4.99029 139.369 4.58623C139.437 4.47745 139.506 4.37039 139.573 4.2616ZM138.75 4.24779C134.422 2.84393 130.09 2.66608 125.702 2.88538C127.061 1.61966 137.159 2.61255 138.75 4.24779ZM130.983 4.8746C130.347 5.01792 129.713 5.15952 129.078 5.30284C129.052 5.14398 129.026 4.98684 129.002 4.82798C129.651 4.771 130.299 4.71574 130.948 4.65876C130.96 4.73128 130.972 4.80208 130.984 4.8746H130.983ZM124.246 6.55301C123.248 7.27134 122.088 7.33178 120.926 7.38186C120.895 7.25235 120.864 7.12112 120.834 6.99161C121.953 6.76022 123.072 6.53056 124.191 6.29918C124.21 6.38379 124.228 6.4684 124.246 6.55301ZM121.751 4.44982C121.795 4.59141 121.836 4.73301 121.879 4.8746L120.284 5.27866C120.246 5.16815 120.208 5.05764 120.168 4.94713C120.696 4.78136 121.223 4.61559 121.751 4.44982ZM119.47 3.80228C118.515 3.98705 117.69 4.14591 116.865 4.3065C117.728 3.45348 118.762 3.26008 119.47 3.80228ZM140.583 57.3525C138.839 58.064 137.128 58.9446 135.313 59.378C132.639 60.0186 129.89 59.7717 127.196 59.2589C126.631 59.1518 126.089 58.7909 125.605 58.449C125.483 58.3627 125.431 58.1727 125.386 57.9742C125.36 57.855 125.334 57.7324 125.298 57.6271C125.397 57.6115 125.498 57.5874 125.599 57.5649C125.766 57.5287 125.932 57.4958 126.092 57.5148C127.574 57.6875 129.047 58.0104 130.53 58.057C132.412 58.1175 134.301 57.9638 136.187 57.9034C136.47 57.8947 136.816 57.7825 137.023 57.9034C137.572 58.2263 137.921 58.0242 138.304 57.6392C138.432 57.5097 138.684 57.4993 138.884 57.444C139.038 57.4026 139.24 57.4285 139.344 57.3387C140.02 56.7447 140.678 56.1283 141.359 55.5032C141.858 56.6635 141.802 56.8552 140.587 57.3508L140.583 57.3525ZM127.305 56.0454H133.612C133.618 56.1507 133.623 56.256 133.626 56.3614C131.518 56.6325 129.411 56.5479 127.305 56.294C127.305 56.2111 127.305 56.13 127.305 56.0471V56.0454ZM140.882 53.5174C140.583 54.6501 138.209 55.6931 136.355 55.5757C137.9 54.8729 139.33 54.2219 140.882 53.5174ZM138.454 52.6868C138.53 51.6093 138.71 51.5109 139.95 51.8131C139.39 52.1394 138.998 52.3691 138.454 52.6868ZM141.861 38.5481C141.664 40.66 141.269 42.7666 140.796 44.837C140.105 47.8692 138.225 50.0501 135.391 51.2674C130.187 53.5036 124.853 53.7954 119.496 51.8355C116.735 50.8254 114.464 49.1332 113.746 46.1096C113.23 43.9356 112.786 41.6926 112.727 39.4702C112.499 30.6655 112.651 21.8625 113.477 13.0836C113.554 12.2548 113.625 11.4225 113.653 10.5902C113.67 10.0652 113.769 9.82695 114.401 9.88911C117.975 10.2379 121.551 10.6126 125.136 10.8181C127.255 10.939 129.391 10.749 131.518 10.7249C135.284 10.68 139.05 10.6523 142.818 10.623C142.927 10.623 143.037 10.6696 143.241 10.7162C142.939 11.7506 142.636 12.7003 142.386 13.6638C141.797 15.9259 141.913 18.2224 142.034 20.5294C142.35 26.5385 142.417 32.5528 141.858 38.5481H141.861ZM142.279 47.0075C142.17 46.9505 142.061 46.8953 141.953 46.8383L142.744 45.1064C142.894 45.1789 143.042 45.2497 143.192 45.3222C142.889 45.8834 142.583 46.4446 142.279 47.0075ZM161.954 64.8829C163.356 62.1615 166.379 60.6109 169.372 61.2429C170.287 61.4363 171.126 61.9906 172 62.3791L171.964 62.6761C171.774 62.7918 171.53 63.0508 171.406 63.0025C170.517 62.6606 170.156 63.3806 169.735 63.8417C168.158 65.565 167.374 67.6354 167.31 69.9596C167.291 70.6348 167.068 70.7522 166.4 70.8316C164.963 71.0008 163.551 71.3824 162.13 71.6777C162.137 71.7606 162.144 71.8435 162.151 71.9246C162.463 71.9246 162.777 71.954 163.086 71.9195C164.254 71.7882 165.418 71.6121 166.588 71.5137C166.854 71.4912 167.139 71.7071 167.415 71.8124C167.174 72.0265 166.956 72.3874 166.687 72.4306C165.224 72.6672 163.751 72.826 162.223 73.1213C162.705 73.1886 163.19 73.3337 163.668 73.3095C164.844 73.2508 166.013 73.0971 167.189 73.0263C167.447 73.0108 167.714 73.1783 167.977 73.2629C167.963 73.3855 167.947 73.5064 167.933 73.629C166.761 73.8189 165.592 74.0261 164.416 74.1936C163.741 74.2903 163.057 74.3421 162.373 74.3749C162.216 74.3818 161.968 74.2627 161.905 74.1332C161.6 73.4977 161.232 72.8623 161.089 72.1837C160.555 69.6643 160.759 67.2123 161.957 64.8829H161.954ZM168.509 74.6512C168.376 74.7703 168.256 74.9741 168.11 74.9948C166.499 75.2245 164.886 75.4541 163.268 75.6096C163.011 75.6337 162.717 75.2849 162.441 75.1071C162.486 75.0294 162.532 74.9534 162.577 74.8757C164.394 74.6771 166.21 74.4682 168.028 74.2989C168.175 74.2851 168.348 74.5286 168.509 74.6529V74.6512ZM161.698 77.3398C161.969 77.5746 162.151 77.7317 162.492 78.0305C161.645 78.7626 160.871 79.4291 160.097 80.0957C159.989 79.9886 159.88 79.8815 159.771 79.7745C160.396 78.9836 161.023 78.1928 161.696 77.3398H161.698ZM159.124 69.8474C159.186 70.5312 159.248 71.215 159.308 71.8987L158.894 71.9298C158.865 71.246 158.833 70.5622 158.804 69.8784C158.911 69.8681 159.017 69.8577 159.124 69.8474ZM159.704 74.6063C160.305 75.7132 159.821 77.0099 158.745 77.3018C159.053 76.4401 159.374 75.5353 159.704 74.6063ZM159.146 84.3521C160.201 82.9258 161.353 81.5703 162.491 80.2062C162.613 80.0577 162.954 79.9092 163.067 79.9765C163.242 80.0784 163.354 80.3547 163.409 80.5792C163.622 81.4218 163.218 81.9761 162.406 82.4993C162.653 81.7534 162.852 81.1542 163.05 80.555C162.964 80.5222 162.876 80.4894 162.789 80.4566C160.954 81.888 160.142 84.0327 159.073 85.9995C158.963 85.9667 158.854 85.9338 158.744 85.901C158.87 85.3778 158.854 84.7493 159.148 84.3521H159.146ZM160.206 93.0567C161.056 92.2296 161.412 90.8862 161.962 89.7621C162.468 88.7277 162.935 87.6744 163.565 86.7005C163.891 88.897 162.508 90.3457 161.508 91.9361C161.422 92.3902 161.41 92.8737 161.237 93.2933C160.545 94.9872 159.802 96.6622 159.077 98.3423C159.046 98.4149 158.991 98.477 158.827 98.7291C158.873 96.6052 158.523 94.6937 160.205 93.0584L160.206 93.0567ZM158.918 93.6991C158.79 92.3004 158.728 90.9984 159.673 89.7776C160.895 88.1976 161.9 86.4501 163.004 84.7769C163.107 84.6215 163.251 84.492 163.375 84.3504C163.459 84.4005 163.544 84.4488 163.629 84.4989L158.918 93.6991ZM163.121 83.5889C162.22 84.6267 161.228 85.5954 160.424 86.7022C159.849 87.4931 159.519 88.4618 159.042 89.4305C158.55 88.3461 159.175 86.7661 160.004 86.2101C160.69 85.7508 161.225 85.0584 161.803 84.4471C162.309 83.9135 162.783 83.3472 163.27 82.7963C163.356 82.8498 163.442 82.9051 163.53 82.9586C163.396 83.1693 163.285 83.4024 163.121 83.5889ZM162.506 94.4537C161.781 96.006 161.04 97.5532 160.35 99.1228C159.813 100.342 159.341 101.589 158.764 102.809C158.657 101.364 158.536 99.9482 159.295 98.5789C160.049 97.2148 160.659 95.7712 161.348 94.3691C161.798 93.4556 162.285 92.5611 162.743 91.6529C163.017 91.1089 163.27 90.5529 163.582 89.9002C164.088 91.7427 163.156 93.0602 162.505 94.4537H162.506ZM163.421 76.1103C164.024 76.0723 164.426 76.0706 164.824 76.0153C166.183 75.8254 167.536 75.6026 168.897 75.43C169.17 75.3954 169.462 75.5232 169.911 75.6078C168.8 76.4867 164.497 76.8338 163.423 76.1103H163.421ZM164.919 77.0704H168.089C168.089 77.1222 168.089 77.1723 168.089 77.2241H164.919C164.919 77.1723 164.919 77.1222 164.917 77.0704H164.919ZM165.38 83.1486C165.238 81.7603 165.143 80.3668 165.026 78.8472C167.797 79.6363 170.278 79.3221 172.568 77.7922C172.76 78.4155 171.945 79.0751 169.517 80.365C169.976 80.8364 170.102 80.7985 171.054 80.1613C171.572 79.8142 172.142 79.5448 172.768 79.196C173.114 80.018 172.977 80.5204 172.166 80.8157C171.169 81.1783 170.196 81.5997 169.215 82.0055C169.018 82.0866 168.84 82.2092 168.458 82.4216C170.209 82.8827 171.442 81.8794 172.787 81.4736C172.834 81.5496 172.879 81.6256 172.926 81.7016C172.762 81.8967 172.62 82.116 172.432 82.2852C170.496 84.0206 168.222 84.0638 165.853 83.5595C165.668 83.5198 165.399 83.304 165.383 83.1469L165.38 83.1486ZM165.549 85.238C168.294 85.9977 170.964 86.369 173.407 84.233C173.28 85.0739 173.283 85.0843 171.808 85.756C171.156 86.053 170.482 86.3034 169.855 86.6729C171.144 87.1495 172.149 86.5037 173.15 85.8406C173.513 86.4035 173.539 86.7195 172.85 86.9768C171.915 87.3273 171.03 87.8126 170.133 88.2598C170 88.3254 169.918 88.4929 169.709 88.7312C169.999 88.8193 170.266 88.8434 170.515 88.8244C171.598 88.7398 172.363 87.8316 173.338 87.6934C173.378 87.8264 173.411 87.9438 173.438 88.0491C173.611 88.7364 173.487 88.9039 172.77 89.1163C172.715 89.1318 172.656 89.1491 172.594 89.1663C171.708 89.4081 170.822 89.7776 169.924 89.8208C168.621 89.8829 167.305 89.7258 166 89.5997C165.832 89.5842 165.578 89.2026 165.571 88.9833C165.53 87.7832 165.551 86.5814 165.551 85.238H165.549ZM165.64 91.0105C168.376 92.0328 171.017 92.4075 173.659 91.1245C173.867 91.8411 173.304 92.1933 171.175 92.891H173.046C173.084 92.9358 173.122 92.9825 173.16 93.0274C172.392 93.4763 171.622 93.927 170.853 94.376C172.112 94.9009 172.865 93.8942 173.944 93.3157C173.944 94.0375 173.977 94.6229 173.924 95.2014C173.908 95.3654 173.673 95.5812 173.494 95.6469C172.756 95.9162 172.01 96.2875 171.249 96.341C169.826 96.4429 168.389 96.3583 166.96 96.3341C166.675 96.3289 166.376 96.2944 166.113 96.1942C165.93 96.1252 165.665 95.9231 165.661 95.7764C165.628 94.2378 165.64 92.6975 165.64 91.0088V91.0105ZM170 100.547C170.664 100.447 171.349 100.416 171.983 100.224C172.064 100.2 172.143 100.173 172.223 100.143C172.777 99.9396 173.302 99.6357 173.844 99.3853C173.981 100.06 173.053 100.748 171.57 101.148C171.392 101.197 171.206 101.24 171.012 101.28C170.755 101.331 170.486 101.376 170.204 101.411C170.638 102.212 171.318 102.157 171.979 101.934C172.611 101.72 173.207 101.397 173.818 101.121C173.87 101.183 173.922 101.245 173.974 101.307C173.744 101.558 173.558 101.886 173.276 102.045C171.014 103.329 168.628 103.403 166.189 102.663C165.975 102.597 165.69 102.283 165.687 102.079C165.659 100.701 165.696 99.3231 165.722 97.9452C165.722 97.8795 165.823 97.8157 165.894 97.7328C168.595 98.7308 171.258 98.9277 173.779 97.2148C174.19 98.1904 174.117 98.3872 173.262 98.7498C172.337 99.1435 171.408 99.5338 170.484 99.9344C170.291 100.019 170.114 100.143 169.93 100.25C169.952 100.349 169.976 100.446 169.999 100.544L170 100.547ZM173.464 73.7516C173.14 74.1867 172.953 74.7237 172.634 75.164C172.578 75.24 172.427 75.2435 172.266 75.2435C172.233 75.2435 172.202 75.2435 172.169 75.2435C172.105 75.2435 172.041 75.2435 171.986 75.2487C171.995 75.1347 171.984 75.0069 171.986 74.8878C171.986 74.7686 172 74.6581 172.055 74.577C172.306 74.2161 172.642 73.9139 172.945 73.5892C172.865 73.5064 172.784 73.4252 172.705 73.3423C172.117 73.9191 171.529 74.4958 170.926 75.0881C170.385 74.5355 170.387 74.0606 170.807 73.5702C171.422 72.8485 172.041 72.1319 172.653 71.4066C172.839 71.1856 173.003 70.9456 173.055 70.5899C171.798 71.1977 170.948 72.2786 169.709 73.1506C169.748 72.8208 169.669 72.3926 169.847 72.1802C170.781 71.0682 171.789 70.0218 172.751 68.9322C173.103 68.535 173.426 68.1707 174.027 68.4418C174.069 68.4608 174.183 68.3157 174.319 68.1966C173.675 67.815 173.155 67.7269 172.604 68.2674C171.584 69.2672 170.527 70.2324 169.413 71.2823C169.089 70.5052 169.351 69.875 169.786 69.3604C170.489 68.5298 171.273 67.7683 172.028 66.9827C172.451 66.5406 172.884 66.1089 173.314 65.6738L173.072 65.4199C171.874 66.532 170.674 67.644 169.475 68.756C169.886 66.4094 170.931 64.5428 173.114 63.4549C174.084 64.4754 174.404 65.7359 174.633 66.9999C175.065 69.3777 175.006 71.6933 173.468 73.7516H173.464Z" fill="black"/>
<path d="M144.063 84.0154C144.151 83.9342 144.182 83.7926 144.287 83.5889C142.395 84.6905 129.354 99.8446 129.076 101.261C134.286 95.6416 138.489 89.2302 144.063 84.0154Z" fill="black"/>
<path d="M131.967 85.1172C128.061 88.4291 124.858 92.4007 121.447 96.1788C121.516 96.2427 121.586 96.3083 121.653 96.3722C125.143 92.67 128.632 88.9679 132.124 85.2657C132.072 85.2156 132.019 85.1673 131.967 85.1172Z" fill="black"/>
<path d="M126.638 96.5165C130.133 92.5018 133.766 88.3265 137.53 84.001C135.37 85.3358 126.74 95.5116 126.638 96.5165Z" fill="black"/>
<path d="M136.26 99.3453C136.341 99.4161 136.424 99.4886 136.505 99.5594C139.226 96.4288 141.949 93.2999 144.671 90.1693L144.477 89.9932C141.59 92.9822 138.665 95.9384 136.26 99.3453Z" fill="black"/>
<path d="M143.564 59.4968C143.555 59.6108 143.546 59.7248 143.538 59.8405C147.558 60.0356 151.578 60.2324 155.598 60.4276C155.604 60.2998 155.611 60.1737 155.62 60.0459C151.605 59.8025 147.603 59.3552 143.565 59.4968H143.564Z" fill="black"/>
<path d="M129.995 80.874C127.018 84.0599 124.039 87.2458 121.062 90.4299C121.147 90.5111 121.233 90.5905 121.318 90.6717C124.305 87.5013 127.292 84.3327 130.28 81.1624C130.185 81.0657 130.09 80.9707 129.995 80.874Z" fill="black"/>
<path d="M125.509 79.3223C123.844 81.201 122.181 83.078 120.517 84.9567C120.615 85.0361 120.715 85.1155 120.814 85.195L125.752 79.5364L125.509 79.324V79.3223Z" fill="black"/>
<path d="M143.961 60.9165C145.156 61.0218 146.351 61.1271 147.546 61.2324C147.549 61.1185 147.554 61.0028 147.558 60.8888C146.365 60.8042 145.173 60.7213 143.98 60.6367C143.973 60.73 143.966 60.8232 143.961 60.9165Z" fill="black"/>
<path d="M47.644 42.3689C49.7679 42.9836 51.7468 42.6538 53.5564 41.4226C54.8964 40.5109 55.1934 39.1088 54.311 37.7343C53.8206 36.971 53.199 36.27 52.5463 35.6345C51.1165 34.2428 49.8664 32.7439 49.1549 30.7236C48.5109 31.1225 48.5299 31.6475 48.7906 32.1016C49.3155 33.0168 49.8905 33.9112 50.5173 34.7608C51.2668 35.7761 52.156 36.6896 52.8675 37.7274C53.6186 38.8221 53.3372 39.632 52.156 40.2571C50.8506 40.946 49.4917 41.0945 48.0671 40.6939C47.5439 40.5472 46.9758 40.4764 46.7806 41.1412C46.5734 41.8422 47.0051 42.1824 47.6457 42.3672L47.644 42.3689Z" fill="black"/>
<path d="M41.5296 45.2028C41.533 45.543 41.4104 45.9643 41.5676 46.2026C41.8248 46.5928 42.2289 46.9192 42.633 47.1713C44.1197 48.102 45.7878 48.3438 47.5283 48.4595C48.5955 48.2609 49.6695 48.0968 50.7246 47.8499C51.2132 47.7359 51.5862 47.306 51.322 46.8173C51.1752 46.5462 50.6659 46.4167 50.2963 46.339C50.0373 46.2855 49.7369 46.4305 49.4554 46.4858C47.7563 46.819 46.0744 46.7569 44.4461 46.1629C43.7795 45.9194 43.1873 45.4791 42.5276 45.2149C42.2393 45.0992 41.8663 45.1993 41.5313 45.2011L41.5296 45.2028Z" fill="black"/>
<path d="M18.9246 32.6171C19.8328 32.1595 20.4044 32.5705 20.8603 33.3165C21.1694 33.8224 21.4681 34.337 21.7651 34.836C20.1972 36.0361 20.1022 37.4348 21.3921 39.2133C21.9101 39.9265 22.4696 40.0819 23.074 39.6796C21.589 37.4244 21.5561 37.3035 22.2538 36.6008C22.518 36.8321 22.7839 37.0635 23.2415 37.4624C23.3468 36.9254 23.5108 36.5749 23.4625 36.2554C23.1948 34.501 22.442 32.9556 21.1918 31.7019C20.3561 30.8645 19.1508 31.0147 18.5032 31.9558C18.3927 32.1164 18.4169 32.3702 18.3789 32.5791C18.5637 32.5947 18.7847 32.6862 18.9263 32.6154L18.9246 32.6171Z" fill="black"/>
<path d="M34.8021 28.2222C35.498 27.7249 36.0903 27.0601 36.8293 26.6508C38.4628 25.7443 40.2449 25.487 42.3843 25.8548C42.5553 25.6839 43.0284 25.4335 43.0923 25.1037C43.2063 24.5131 42.7452 24.185 42.165 24.0935C40.1033 23.7689 38.0916 24.078 36.313 25.0778C35.3357 25.6269 34.6191 26.6681 33.8541 27.547C33.7074 27.7145 33.8869 28.1635 33.9146 28.4829C34.215 28.4 34.5673 28.3914 34.8038 28.2222H34.8021Z" fill="black"/>
<path d="M42.184 31.9416C42.1443 31.7568 42.0821 31.3596 41.9699 30.978C41.6746 29.98 40.996 29.5258 39.9772 29.6156C38.9947 29.7019 38.4905 30.22 38.4128 31.3234C38.3834 31.743 38.4663 32.1781 38.5509 32.596C38.7927 33.7944 39.3349 34.2157 40.4417 34.1104C41.5624 34.0033 42.1754 33.3143 42.1823 31.9398L42.184 31.9416Z" fill="black"/>
<path d="M54.7617 28.883C54.0866 28.8398 53.7481 29.4718 53.6531 30.1038C53.5737 30.6373 53.4805 31.2158 53.61 31.7183C53.755 32.2812 54.0244 33.0099 54.463 33.2396C54.855 33.445 55.6596 33.2188 56.0844 32.9115C56.5265 32.5903 56.732 31.9445 57.022 31.4714C56.7699 30.7168 56.7199 30.0347 56.3572 29.6341C55.986 29.2248 55.3212 28.9192 54.7634 28.883H54.7617Z" fill="black"/>
<path d="M52.0956 22.9709C53.9208 22.2647 55.4524 22.7137 56.8511 23.9638C56.9944 24.0916 57.3087 24.2297 57.4123 24.1624C57.6264 24.0225 57.7525 23.7463 57.9113 23.5304C57.7559 23.23 57.6575 22.9899 57.5194 22.7775C56.2985 20.8919 53.18 20.3411 51.4135 21.7398C51.1355 21.9591 51.0596 22.4322 50.8903 22.7879C51.2961 22.8587 51.7658 23.097 52.0956 22.9709Z" fill="black"/>
<path d="M134.778 20.3182C129.948 20.2854 125.119 20.2198 120.289 20.1905C118.477 20.1801 116.666 20.2526 114.855 20.2699C114.214 20.2751 113.939 20.7068 113.967 21.1954C113.981 21.4372 114.435 21.7342 114.748 21.8568C115.081 21.9863 115.481 21.9518 115.854 21.9673C117.635 22.045 119.415 22.1313 121.197 22.1797C121.793 22.1952 122.01 22.4145 121.952 23.0137C121.8 24.5868 121.841 26.1961 121.518 27.7295C120.872 30.7893 120.054 33.8146 119.267 36.8433C118.949 38.0641 119.17 38.5545 120.423 38.6478C121.969 38.7618 123.525 38.7911 125.074 38.7548C125.419 38.7462 126.025 38.3266 126.039 38.071C126.07 37.5047 125.611 37.2595 124.984 37.2301C123.737 37.1714 122.494 37.0039 121.171 36.8727C121.332 36.0628 121.449 35.4481 121.575 34.8368C122.395 30.8446 123.577 26.9093 123.504 22.7771C123.495 22.2436 123.715 22.064 124.227 22.0968C125.117 22.1521 126.01 22.1641 126.899 22.2073C129.684 22.3437 132.469 22.4853 135.255 22.6252C136.28 22.6753 136.595 22.197 136.251 21.2231C135.992 20.4909 135.481 20.3217 134.778 20.3165V20.3182Z" fill="black"/>
<path d="M130.247 42.7111C128.189 42.5454 126.125 42.4245 124.063 42.2881V42.1344C122.226 42.1344 120.389 42.0947 118.557 42.1707C118.225 42.1845 117.759 42.6075 117.626 42.9477C117.431 43.4485 117.918 43.5935 118.338 43.6729C118.562 43.7161 118.78 43.8266 119.004 43.8387C122.698 44.0356 126.391 44.2307 130.086 44.4051C130.67 44.4327 131.202 44.2428 131.283 43.5572C131.375 42.7837 130.737 42.7526 130.249 42.7129L130.247 42.7111Z" fill="black"/>
<path d="M129.548 25.022C128.434 25.844 128.208 27.0233 128.215 28.2977C128.215 28.5273 128.194 28.757 128.218 28.9849C128.315 29.8984 128.938 30.6633 129.739 30.8723C130.749 31.1365 131.444 30.8982 132.079 30.0693C133.039 28.8157 132.967 26.6987 131.917 25.338C131.236 24.4539 130.449 24.3572 129.548 25.022Z" fill="black"/>
<path d="M118.419 29.3583C119.153 28.3965 119.267 26.6369 118.666 25.6043C118.148 24.715 117.163 24.4232 116.222 24.829C114.896 25.3988 114.827 26.5886 114.718 27.5918C114.701 28.8558 115.307 29.7727 116.257 30.1025C117.136 30.4081 117.792 30.1819 118.419 29.36V29.3583Z" fill="black"/>
<path d="M103.304 88.8813C103.063 88.5739 102.557 88.4738 102.058 88.2217C102.058 88.548 102.035 88.6188 102.061 88.6551C103.204 90.242 104.77 91.5509 105.287 93.5574C105.318 93.68 105.649 93.8526 105.741 93.806C105.915 93.718 106.128 93.4848 106.124 93.3156C106.117 93.0152 106.026 92.675 105.857 92.4281C105.033 91.2262 104.206 90.0227 103.304 88.8796V88.8813Z" fill="black"/>
<path d="M104.292 89.208C104.601 89.638 104.846 89.9471 105.054 90.2786C105.28 90.6395 105.437 91.0522 105.696 91.3854C105.822 91.5495 106.109 91.641 106.33 91.6531C106.416 91.6583 106.592 91.3544 106.599 91.1886C106.628 90.415 105.311 89.2028 104.292 89.2097V89.208Z" fill="black"/>
</g>
<defs>
<clipPath id="clip0_363_758">
<rect width="176.546" height="117" fill="white" transform="translate(0.227226)"/>
</clipPath>
</defs>
</svg>
